<?xml version="1.0" encoding="utf-8"?>
<!-- Generator: Adobe Illustrator 21.0.2, SVG Export Plug-In . SVG Version: 6.00 Build 0)  -->
<svg version="1.1" id="Layer_1" xmlns="http://www.w3.org/2000/svg" xmlns:xlink="http://www.w3.org/1999/xlink" x="0px" y="0px"
	 viewBox="0 0 250 250" style="enable-background:new 0 0 250 250;" xml:space="preserve">
<style type="text/css">
	.st0{fill:#FFFFFF;}
</style>
<g transform="translate(0,-952.36218)">
	<path class="st0" d="M125,968.4c-44.1,0-79.9,35.8-79.9,79.9c0,16.2,4.9,31.3,13.2,43.9l-41.5,59.9c-1.5,2.2-1,5.2,1.2,6.7
		c1.1,0.8,2.5,1,3.8,0.8l31.9-6.4l8.5,29.6c0.7,2.6,3.4,4.1,6,3.4c1.2-0.3,2.2-1.1,2.8-2.1l36.9-57.7c5.5,1.2,11.2,1.8,17.1,1.8
		c5.9,0,11.6-0.6,17.1-1.8l36.9,57.7c1.4,2.3,4.4,3,6.7,1.5c1-0.6,1.8-1.7,2.1-2.8l8.5-29.6l31.9,6.4c2.6,0.6,5.2-1.1,5.7-3.7
		c0.3-1.3,0-2.7-0.8-3.8l-41.4-59.8c8.3-12.6,13.2-27.7,13.2-44C204.9,1004.2,169.1,968.4,125,968.4z M125,978.1
		c38.9,0,70.2,31.4,70.2,70.2c0,38.9-31.4,70.2-70.2,70.2s-70.2-31.4-70.2-70.2C54.8,1009.4,86.1,978.1,125,978.1z M91.1,1014.4
		c-2.7,0-4.8,2.2-4.8,4.8s2.2,4.8,4.8,4.8h67.8c2.7,0,4.8-2.2,4.8-4.8s-2.2-4.8-4.8-4.8H91.1z M79,1043.4c-2.7,0-4.8,2.2-4.8,4.8
		s2.2,4.8,4.8,4.8h92c2.7,0,4.8-2.2,4.8-4.8s-2.2-4.8-4.8-4.8H79z M91.1,1072.5c-2.7,0-4.8,2.2-4.8,4.8s2.2,4.8,4.8,4.8h67.8
		c2.7,0,4.8-2.2,4.8-4.8s-2.2-4.8-4.8-4.8H91.1z M64.4,1100.4c9,10.4,20.5,18.5,33.7,23.2l-29.5,46.2l-6.7-23.5
		c-0.7-2.5-3.2-3.9-5.7-3.4l-24.5,4.9L64.4,1100.4L64.4,1100.4z M185.6,1100.4l32.8,47.3l-24.5-4.9c-2.5-0.5-5,1-5.7,3.4l-6.7,23.5
		l-29.5-46.2C165,1118.9,176.6,1110.8,185.6,1100.4L185.6,1100.4z"/>
</g>
</svg>
