<?xml version="1.0" encoding="utf-8"?>
<!-- Generator: Adobe Illustrator 21.0.2, SVG Export Plug-In . SVG Version: 6.00 Build 0)  -->
<svg version="1.1" id="Layer_1" xmlns="http://www.w3.org/2000/svg" xmlns:xlink="http://www.w3.org/1999/xlink" x="0px" y="0px"
	 viewBox="0 0 144 144" style="enable-background:new 0 0 144 144;" xml:space="preserve">
<style type="text/css">
	.st0{fill:#FFFFFF;}
</style>
<path d="M72,142.8c18.9,0,36.7-7.4,50-20.7c13.4-13.4,20.7-31.1,20.7-50c0-18.9-7.4-36.7-20.7-50C108.7,8.6,90.9,1.2,72,1.2
	C33,1.2,1.2,33,1.2,72c0,18.9,7.4,36.7,20.7,50C35.3,135.4,53.1,142.8,72,142.8z"/>
<path class="st0" d="M3.7,72c0-18.2,7.1-35.4,20-48.3c12.9-12.9,30.1-20,48.3-20s35.4,7.1,48.3,20c12.9,12.9,20,30.1,20,48.3
	c0,37.7-30.6,68.3-68.3,68.3c-18.2,0-35.4-7.1-48.3-20C10.8,107.4,3.7,90.2,3.7,72z"/>
<path d="M72,6.5C35.8,6.5,6.5,35.8,6.5,72s29.3,65.5,65.5,65.5s65.5-29.3,65.5-65.5S108.2,6.5,72,6.5L72,6.5z"/>
<path class="st0" d="M72,113.8c-23.1,0-41.8-18.7-41.8-41.8c0-23.1,18.7-41.8,41.8-41.8s41.8,18.7,41.8,41.8
	C113.8,95.1,95.1,113.8,72,113.8z"/>
<path d="M32.9,72H72V32.9C50.4,32.9,32.9,50.4,32.9,72z M72,72v39.1c21.6,0,39.1-17.5,39.1-39.1L72,72L72,72z"/>
<path class="st0" d="M41.3,32.1c-1.4-1.3-3.5-1.8-5.5-0.5c0.4-1,0.2-2,0-2.6c-0.9-1.6-1.2-1.8-1.9-2.4c-2.3-1.9-4.7-0.3-6.5,1.8
	l-8.4,10l13.2,11.1L41,39C43.1,36.6,43.4,34.2,41.3,32.1L41.3,32.1z M74.2,27.3l4.5-12v12h3.5V10.1H77l-4.7,12.3h0l-4.7-12.3h-5.2
	v17.2h3.5v-12l4.5,12L74.2,27.3L74.2,27.3z M120.6,34.5l-6.5,9.2l10.1-4.8l2.7,3.3L111,49.9l-3.1-3.9l6.2-9.1l0,0L103.8,41l-3.2-3.9
	l10.8-13.9l2.7,3.3l-6.8,8.9l10.3-4.4L120.6,34.5L120.6,34.5z"/>
<path d="M29.2,30.9c0.6-0.7,1.9-0.7,2.8,0c0.9,0.8,0.9,1.9,0.3,2.6l-5,6l-3.1-2.6L29.2,30.9z M38.1,37.9l-5.3,6.3l-3.3-2.8l5.3-6.3
	c0.6-0.7,1.9-0.9,2.8-0.2C38.7,35.8,38.8,37.1,38.1,37.9L38.1,37.9z"/>
</svg>
