<?xml version="1.0" encoding="utf-8"?>
<!-- Generator: Adobe Illustrator 21.0.2, SVG Export Plug-In . SVG Version: 6.00 Build 0)  -->
<svg version="1.1" id="Layer_1" xmlns="http://www.w3.org/2000/svg" xmlns:xlink="http://www.w3.org/1999/xlink" x="0px" y="0px"
	 viewBox="0 0 144 144" style="enable-background:new 0 0 144 144;" xml:space="preserve">
<style type="text/css">
	.st0{fill:#161314;}
	.st1{fill:#FFFFFF;}
</style>
<path class="st0" d="M29.2,30.9c0.6-0.7,1.9-0.7,2.8,0c0.9,0.8,0.9,1.9,0.3,2.6l-5,6l-3.1-2.6L29.2,30.9z M38.1,37.9l-5.3,6.3
	l-3.3-2.8l5.3-6.3c0.6-0.7,1.9-0.9,2.8-0.2C38.7,35.8,38.8,37.1,38.1,37.9L38.1,37.9z"/>
<path d="M72,352.7c18.9,0,36.7-7.4,50-20.7c13.4-13.4,20.7-31.1,20.7-50c0-18.9-7.4-36.7-20.7-50c-13.3-13.5-31.1-20.9-50-20.9
	c-39,0-70.8,31.8-70.8,70.8c0,18.9,7.4,36.7,20.7,50C35.3,345.3,53.1,352.7,72,352.7z"/>
<path class="st1" d="M3.7,281.9c0-18.2,7.1-35.4,20-48.3s30.1-20,48.3-20s35.4,7.1,48.3,20s20,30.1,20,48.3
	c0,37.7-30.6,68.3-68.3,68.3c-18.2,0-35.4-7.1-48.3-20S3.7,300.1,3.7,281.9z"/>
<path d="M72,216.4c-36.2,0-65.5,29.3-65.5,65.5s29.3,65.5,65.5,65.5s65.5-29.3,65.5-65.5S108.2,216.4,72,216.4L72,216.4z"/>
<path class="st1" d="M72,323.7c-23.1,0-41.8-18.7-41.8-41.8c0-23.1,18.7-41.8,41.8-41.8s41.8,18.7,41.8,41.8
	C113.8,305,95.1,323.7,72,323.7z"/>
<path class="st0" d="M32.9,281.9H72v-39.1C50.4,242.8,32.9,260.3,32.9,281.9z M72,281.9V321c21.6,0,39.1-17.5,39.1-39.1H72L72,281.9
	z"/>
<path class="st0" d="M32.9,74.4H72V35.3C50.4,35.3,32.9,52.8,32.9,74.4z M72,74.4v39.1c21.6,0,39.1-17.5,39.1-39.1H72L72,74.4z"/>
<path class="st1" d="M41.3,242c-1.4-1.3-3.5-1.8-5.5-0.5c0.4-1,0.2-2,0-2.6c-0.9-1.6-1.2-1.8-1.9-2.4c-2.3-1.9-4.7-0.3-6.5,1.8
	l-8.4,10l13.2,11.1l8.8-10.5C43.1,246.5,43.4,244.1,41.3,242L41.3,242z M74.2,237.2l4.5-12v12h3.5V220H77l-4.7,12.3l0,0L67.6,220
	h-5.2v17.2h3.5v-12l4.5,12H74.2L74.2,237.2z M120.6,244.4l-6.5,9.2l10.1-4.8l2.7,3.3l-15.9,7.7l-3.1-3.9l6.2-9.1l0,0l-10.3,4.1
	l-3.2-3.9l10.8-13.9l2.7,3.3l-6.8,8.9l10.3-4.4L120.6,244.4L120.6,244.4z"/>
<g>
	<path class="st0" d="M122,22.1C108.7,8.6,90.9,1.2,72,1.2C33,1.2,1.2,33,1.2,72c0,18.9,7.4,36.7,20.7,50
		c13.4,13.4,31.2,20.8,50.1,20.8s36.7-7.4,50-20.7c13.4-13.4,20.7-31.1,20.7-50C142.7,53.2,135.3,35.4,122,22.1z M72,140.3
		c-18.2,0-35.4-7.1-48.3-20c-12.9-12.9-20-30.1-20-48.3s7.1-35.4,20-48.3c12.9-12.9,30.1-20,48.3-20s35.4,7.1,48.3,20
		c12.9,12.9,20,30.1,20,48.3C140.3,109.7,109.7,140.3,72,140.3z"/>
	<path class="st0" d="M72,6.5C35.8,6.5,6.5,35.8,6.5,72s29.3,65.5,65.5,65.5s65.5-29.3,65.5-65.5S108.2,6.5,72,6.5z M62.4,10.5h5.2
		l4.7,12.3L77,10.5h5.2v17.2h-3.5v-12l-4.5,12h-3.8l-4.5-12v12h-3.5V10.5z M19,38.8l8.4-10c1.8-2.1,4.2-3.7,6.5-1.8
		c0.7,0.6,1,0.8,1.9,2.4c0.2,0.6,0.4,1.6,0,2.6c2-1.3,4.1-0.8,5.5,0.5c2.1,2.1,1.8,4.5-0.3,6.9l-8.8,10.5L19,38.8z M72,116.2
		c-23.1,0-41.8-18.7-41.8-41.8c0-23.1,18.7-41.8,41.8-41.8s41.8,18.7,41.8,41.8C113.8,97.5,95.1,116.2,72,116.2z M111,50.3l-3.1-3.9
		l6.2-9.1l-10.3,4.1l-3.2-3.9l10.8-13.9l2.7,3.3l-6.8,8.9l10.3-4.4l3,3.5l-6.5,9.2l10.1-4.8l2.7,3.3L111,50.3z"/>
</g>
<path d="M29.2,240.8c0.6-0.7,1.9-0.7,2.8,0c0.9,0.8,0.9,1.9,0.3,2.6l-5,6l-3.1-2.6L29.2,240.8z M38.1,247.8l-5.3,6.3l-3.3-2.8
	l5.3-6.3c0.6-0.7,1.9-0.9,2.8-0.2C38.7,245.7,38.8,247,38.1,247.8L38.1,247.8z"/>
</svg>
