<?xml version="1.0" encoding="utf-8"?>
<!-- Generator: Adobe Illustrator 21.0.2, SVG Export Plug-In . SVG Version: 6.00 Build 0)  -->
<svg version="1.1" id="Layer_1" xmlns="http://www.w3.org/2000/svg" xmlns:xlink="http://www.w3.org/1999/xlink" x="0px" y="0px"
	 viewBox="0 0 250 250" style="enable-background:new 0 0 250 250;" xml:space="preserve">
<style type="text/css">
	.st0{fill:#FFFCED;}
</style>
<path class="st0" d="M79.2,112.3c12.7,23.7,35.5,45.9,63.6,61.9c0.5-0.5,1.1-1,1.7-1.5c7.6-7.4,15.3-14.7,22.8-22.2
	c2.9-2.8,5.9-3.6,9.9-2.7c11.8,2.7,23.5,5.2,35.4,7.5c3.7,0.7,7.5,0.7,11.3,0.9c9.5,0.4,16.9,6.4,18.4,15c0.2,1.1,0.2,2.2,0.2,3.3
	c-0.1,14.9-0.2,29.8-0.4,44.7c-0.1,10.6-8.3,18.7-18.8,18.7c-29.6,0-58.7-3.5-86.8-13c-56.8-19.3-95-57.4-115-113.9
	C14.7,91.7,10.8,71.9,9,51.6c-0.6-6.1-1-12.3-1.2-18.4c-0.4-10.5,8.3-19.5,18.9-19.5c16.8,0,33.7,0,50.5,0c9.3,0,17.5,5.9,19.2,14.1
	c0.7,3.1,0.3,6.3,0.5,9.5c0.8,10.8,3.8,21.1,6.7,31.4c1,3.6,1.9,7.1,3,10.7s0.2,6.7-2.5,9.3c-7.7,7.3-15.3,14.7-22.9,22.1
	C80.5,111.4,79.8,111.9,79.2,112.3z M51.6,29.7c-8.3,0-16.6,0-24.9,0c-3.1,0-3.2,0-3,3c0.2,4.3,0.5,8.6,0.8,12.9
	c1.4,19.1,4.8,37.9,10.8,56.1c17.6,53.6,52.9,89.9,106.5,108c26.2,8.9,53.2,12,80.7,12.1c3.3,0,3.7-0.3,3.7-3.7
	c0.1-14,0.2-28,0.4-42c0-2.9-1-3.8-4-4c-3.8-0.2-7.8-0.2-11.5-0.9c-10.8-2.1-21.6-4.4-32.4-6.7c-1.7-0.4-2.8-0.1-4.1,1.1
	c-8.2,8.1-16.4,16.1-24.7,24.1c-2.9,2.8-6.5,3.5-9.8,1.6c-15.4-8.9-30.2-18.5-43.2-30.8c-13.6-12.8-24.3-27.9-34.1-43.7
	c-2.9-4.7-2.5-8.2,1.5-12.1C71,98.1,77.8,91.6,84.5,85c1.7-1.7,4.4-3.2,4.9-5.3c0.5-2-1-4.6-1.7-7c-3.5-12.8-7-25.9-6.7-39.7
	c0-2.2-1.2-3.3-3.5-3.3C68.8,29.7,60.2,29.7,51.6,29.7z"/>
</svg>
