<?xml version="1.0" encoding="utf-8"?>
<!-- Generator: Adobe Illustrator 21.0.2, SVG Export Plug-In . SVG Version: 6.00 Build 0)  -->
<svg version="1.1" id="Layer_1" xmlns="http://www.w3.org/2000/svg" xmlns:xlink="http://www.w3.org/1999/xlink" x="0px" y="0px"
	 viewBox="0 0 250 250" enable-background="new 0 0 250 250" xml:space="preserve">
<path fill="#161314" d="M73.5,158.8c0,8.2,0,16.3,0,24.3c0,10.1-4.6,15.8-14.4,18.1c-6.5,1.5-12.9,1.3-19-1.4
	c-6.5-2.9-10.1-7.8-10-15.2c0.1-7.9,0-15.8,0-23.7c0-0.7,0-1.3,0-2.2c-2.7,0-5.1,0-7.6,0c-9.4-0.1-16.8-7.4-16.8-16.8
	c-0.1-10.5-0.1-21.1,0-31.6c0.1-9.3,7.4-16.5,16.7-16.6c2.3,0,4.7,0.1,7,0c0.6,0,1.5-0.4,1.8-0.9c1.5-3.2,2.9-6.4,4.5-10
	c-5.1,0-9.9,0-14.6,0c-9.9,0-14.9-5.4-15.5-15.4C5,56,11.8,49.2,22.8,50.1c3.2,0.3,6.5,0,9.7,0c7.8,0,9.5,0.8,14.7,6.5
	c2-4.5,4-8.8,5.9-13.2c2.4-5.4,4.8-10.7,7.2-16.1c2.9-6.6,7.9-9.8,15.1-9.8c33.1,0,66.3,0,99.4,0c7.1,0,12,3.2,14.9,9.7
	c4,9.1,8.1,18.1,12.1,27.2c0.3,0.7,0.6,1.3,1,2.2c2.3-3.2,5-5.5,8.8-6.2c0.9-0.2,1.8-0.3,2.7-0.3c5.5,0,11-0.1,16.5,0
	c7.4,0.1,13.4,6,13.5,13.3c0,2.4,0.2,4.8-0.1,7.2c-0.8,6.8-6.5,11.9-13.4,12c-5.3,0.1-10.5,0-15.8,0.1c-0.1,0-0.1,0-0.6,0.1
	c1.5,3.4,3,6.8,4.6,10.2c0.2,0.4,1.2,0.5,1.8,0.5c3.4,0.2,6.8-0.1,10.1,0.5c7.8,1.4,13.3,8.1,13.4,16c0.1,10.7,0.1,21.4,0,32.1
	c-0.1,9.1-7.5,16.5-16.6,16.6c-2.5,0-5,0-7.8,0c0,0.9,0,1.7,0,2.4c0,8,0,16,0,24c0,6.3-2.8,11.1-8.4,13.9
	c-8.7,4.4-17.8,4.4-26.5,0.1c-5.6-2.8-8.5-7.6-8.5-14.1c0-8.7,0-17.3,0-26.1C142.3,158.8,108,158.8,73.5,158.8z M42.8,93.4
	c9.2,0.6,18,0.7,26.2-3.8c3-1.7,6.4-2.6,9.6-3.9c11.1-4.4,22.2-8.9,33.3-13.3c4.4-1.8,8.5,1.2,7.8,5.7c-0.3,2.4-1.9,3.6-4,4.5
	c-8.2,3.2-16.4,6.5-24.5,9.8c-0.7,0.3-1.4,0.6-2.1,1c9,0.3,17.8,0.3,26.7,0.3c6.3,0,12.8,0.9,18.9-0.3c6.1-1.2,11.8-4.4,17.7-6.8
	c11.7-4.7,23.5-9.4,35.2-14.1c3.4-1.4,6.6-0.3,7.8,2.7c1.2,2.9-0.2,5.9-3.5,7.3c-7,2.9-14.1,5.7-21.2,8.5c-1.9,0.8-3.8,1.6-6.3,2.6
	c14.7,0,28.7,0,42.9,0c-0.2-0.6-0.4-1-0.5-1.4c-9-20.2-17.9-40.3-26.8-60.4c-1.2-2.7-3.1-3.4-5.7-3.4c-32.8,0-65.6,0-98.3,0
	c-3,0-4.8,1.1-6.1,3.9c-4.6,10.7-9.4,21.3-14.2,32C51.4,74,47.1,83.6,42.8,93.4z M125.1,104.4c-33.9,0-67.8,0-101.7,0
	c-4.7,0-6.8,2.1-6.8,6.7c0,9.9,0,19.9,0,29.8c0,4.7,2.2,6.9,6.9,6.9c67.7,0,135.4,0,203.1,0c4.8,0,6.9-2.1,6.9-6.9
	c0-9.8,0-19.6,0-29.4c0-5.2-2-7.2-7.3-7.2C192.6,104.4,158.8,104.4,125.1,104.4z M41,158.7c0,0.8,0,1.3,0,1.9c0,8.1,0.1,16.3,0,24.4
	c0,2.1,0.8,3.5,2.6,4.3c5.5,2.5,11.1,2.5,16.6,0c1.9-0.9,2.6-2.4,2.6-4.5c-0.1-8,0-16,0-24c0-0.7,0-1.4,0-2.2
	C55.3,158.7,48.3,158.7,41,158.7z M187.5,158.8c0,9.2-0.1,18.2,0.1,27.3c0,1.1,1.1,2.6,2.1,3.1c5.6,2.9,11.4,2.9,17.1,0.1
	c1.6-0.8,2.4-2.1,2.3-4c-0.1-5.1,0-10.2,0-15.4c0-3.7,0-7.3,0-11.1C201.9,158.8,194.8,158.8,187.5,158.8z M27.4,71.9
	c2.6,0,5.3,0,7.9,0c1.9,0,2.9-1,3-2.9c0-1.7,0-3.5,0-5.2c-0.1-1.7-1-2.7-2.7-2.7c-5.4,0-10.8,0-16.3,0c-1.8,0-2.7,1.1-2.7,2.9
	c0,1.6,0,3.2,0,4.7c0.1,2.3,0.9,3.1,3.1,3.2C22.3,71.9,24.8,71.9,27.4,71.9z M222.8,71.9c2.6,0,5.3,0,7.9,0c1.8,0,2.8-1,2.9-2.8
	c0-1.7,0-3.5,0-5.2c0-1.8-1-2.8-2.8-2.8c-5.3,0-10.7,0-16,0c-1.9,0-2.9,1.1-2.9,3c0,1.5,0,3,0,4.5c0,2.4,0.9,3.3,3.2,3.3
	C217.7,71.9,220.2,71.9,222.8,71.9z"/>
<path fill="#161314" d="M125,120.7c13.5,0,27,0,40.5,0c4.4,0,7.1,4,5.3,7.7c-1.1,2.3-3,3.1-5.5,3.1c-8.7,0-17.3,0-26,0
	c-18.2,0-36.3,0-54.5,0c-4.2,0-6.8-3.2-5.8-6.9c0.7-2.5,2.7-3.9,5.8-4c12.1,0,24.3,0,36.4,0C122.4,120.7,123.7,120.7,125,120.7z"/>
<path fill="#161314" d="M51.7,142.4c-8.9,0-16.2-7.4-16.2-16.3c0-9,7.4-16.3,16.5-16.3c8.9,0.1,16.1,7.5,16.1,16.4
	C68,135.1,60.6,142.4,51.7,142.4z M51.8,120.7c-3,0-5.4,2.4-5.4,5.4c0,3,2.4,5.4,5.4,5.4s5.4-2.4,5.4-5.4
	C57.2,123.1,54.9,120.7,51.8,120.7z"/>
<path fill="#161314" d="M214.6,126.1c0,8.9-7.3,16.3-16.2,16.3c-9,0-16.4-7.4-16.4-16.4c0-8.9,7.4-16.2,16.3-16.2
	C207.2,109.9,214.6,117.2,214.6,126.1z M203.7,126c-0.1-3-2.5-5.4-5.5-5.3c-3,0-5.4,2.5-5.3,5.5c0,3,2.5,5.4,5.5,5.3
	C201.4,131.5,203.8,129,203.7,126z"/>
</svg>
