<?xml version="1.0" encoding="utf-8"?>
<!-- Generator: Adobe Illustrator 21.0.2, SVG Export Plug-In . SVG Version: 6.00 Build 0)  -->
<svg version="1.1" id="Layer_1" xmlns="http://www.w3.org/2000/svg" xmlns:xlink="http://www.w3.org/1999/xlink" x="0px" y="0px"
	 viewBox="0 0 324 144" style="enable-background:new 0 0 324 144;" xml:space="preserve">
<style type="text/css">
	.st0{fill:#FFFFFF;}
</style>
<g>
	<path class="st0" d="M-27.2-104h363.5v363.5H-27.2V-104z"/>
	<path d="M63.6,113.9H50.7V96.6h-9v43.2h9v-19.3h12.9l0,19.3h9V96.6h-9V113.9z M278.7,96.6v6.6h12.2v36.6h9v-36.6h12.2v-6.6
		L278.7,96.6L278.7,96.6z M231.1,96.6h-9v43.2h25.8v-6.6h-16.8L231.1,96.6L231.1,96.6z M128,132.6c-0.1,0.4-0.5,0.6-0.9,0.6
		c-0.5,0-0.8-0.2-1-0.6l-9.5-36h-10.5L117,136c0.5,2.6,2.3,3.8,4.7,3.8h8.3c2.4,0,4-1.2,4.6-3.7l10.6-39.5h-8L128,132.6L128,132.6z
		 M11.4,103.4l0,29.7c0,4.8,2.5,6.8,6.7,6.8l20.2,0v-6.6H23.7c-2.5,0-3.3-0.6-3.3-3.3l0-23.4c0-2.6,0.6-3.3,3.3-3.3h14.6v-6.6H18.1
		C13.5,96.6,11.4,99,11.4,103.4L11.4,103.4z M87.1,129.9l0-9.4H105v-6.6H87.1l0-7.4c0-2.5,0.6-3.3,3.3-3.3h14.8v-6.6l-20.4,0
		c-4.7,0-6.7,2.3-6.7,6.7l0,29.7c0,4.6,2.2,6.8,6.7,6.8l22.3,0v-6.6H90.4C87.9,133.2,87.1,132.7,87.1,129.9z M171.6,121.6
		c4.2,0,6.7-1.9,6.7-6.8l0-11.4c0-4.5-2.1-6.7-6.7-6.7h-25.1v43.2h9v-36.6H166c2.8,0,3.3,0.8,3.3,3.3l0,5.3c0,2.5-0.7,3.3-3.3,3.3
		l-4.9,0c-1.9,0-3,1.2-3,3c0,0.9,0.5,1.6,0.9,2.3l11.4,19.4h11.2l-11.9-18.2L171.6,121.6L171.6,121.6z M209.9,96.6H190
		c-4.8,0-6.7,2.4-6.7,6.7l0,29.7c0,4.9,2.6,6.8,6.7,6.8h19.9c4.3,0,6.7-2,6.7-6.8l0-29.7C216.6,99,214.5,96.6,209.9,96.6L209.9,96.6
		z M204.3,133.2h-8.7c-2.6,0-3.3-0.7-3.3-3.3v-23.4c0-2.3,0.3-3.3,3.3-3.3h8.7c2.4,0,3.3,0.4,3.3,3.3l0,23.4
		C207.6,132.7,206.8,133.2,204.3,133.2L204.3,133.2z M258.6,129.9l0-9.4h17.9v-6.6h-17.9v-7.4c0-2.5,0.6-3.3,3.3-3.3h14.8v-6.6
		l-20.4,0c-4.7,0-6.7,2.3-6.7,6.7l0,29.7c0,4.6,2.2,6.8,6.7,6.8l22.3,0v-6.6h-16.7C259.4,133.2,258.6,132.7,258.6,129.9z
		 M240.6,18.2l-48,0c-1.2,0-2-0.4-2-2V9.1c0-2.1-1.1-3.1-3.1-3.1l-54.9,0c-2.1,0-3.1,1.2-3.1,3.1l0,7.1c0,1.5-0.7,2-2,2l-31.5,0
		c-2.4,0-3.8,1.1-4.5,2.7L76.1,50.8c-0.2,0.4-0.3,0.8-0.3,1.3c0,1.2,0.8,2.7,2.9,2.7l48.7,0c1.5,0,2,0.7,2,2l0,7.1
		c0,2.1,1.2,3.1,3.1,3.1l27.5,0l27.5,0c1.9,0,3.1-0.9,3.1-3.1l0-7.1c0-1.5,0.6-2,2-2l30.5,0c2.1,0,3.6-0.6,4.7-2.5L243,22.7
		c0.3-0.6,0.6-1,0.6-1.8C243.6,18.9,241.8,18.2,240.6,18.2L240.6,18.2z M228.5,30.1l-7.3,14.3c-0.5,0.8-1.3,0.9-1.8,0.9h-36.2
		c-1.5,0-2.1,0.7-2.1,2l0,8.2c0,1.4-0.6,2-2.1,2h-19l-19,0c-1.3,0-2.1-0.4-2.1-2l0-8.2c0-1.5-0.7-2-2.1-2H92.5
		c-1.1,0-1.8-0.7-1.8-1.6c0-0.3,0.1-0.5,0.2-0.8l7.3-14.3c0.3-0.5,0.7-0.9,1.8-0.9l36.9,0c1.3,0,2.1-0.5,2.1-2.1l0-8.2
		c0-1.5,0.6-2,2-2l38.1,0c1.4,0,2,0.6,2,2.1l0,8.2c0,1.4,0.7,2,2.1,2h43.7c1.4,0,1.8,0.9,1.8,1.6C228.7,29.6,228.7,29.9,228.5,30.1
		L228.5,30.1z"/>
	<path d="M197.8,12.2c0-0.7-0.6-0.9-1.2-0.9h-1.5v3.4h0.5v-1.5h0.7l1,1.5h0.5l-1-1.5C197.3,13.2,197.8,12.9,197.8,12.2z M196.4,12.8
		h-0.9v-1.1h0.9c0.4,0,0.8,0,0.8,0.5C197.3,12.5,197.1,12.8,196.4,12.8L196.4,12.8z"/>
	<path d="M196.2,10c-1.7,0-3,1.3-3,3c0,0,0,0,0,0c0,1.7,1.3,3,3,3c1.7,0,3-1.3,3-3C199.2,11.4,197.9,10,196.2,10z M196.2,15.6
		c-1.4,0-2.5-1.2-2.5-2.6c0-1.3,1.1-2.4,2.5-2.5c1.4,0,2.5,1.1,2.5,2.5C198.7,14.4,197.6,15.6,196.2,15.6z M318.8,99
		c0-0.7-0.6-0.9-1.2-0.9h-1.5v3.4h0.5V100h0.7l1,1.5h0.5l-1-1.5C318.4,100,318.8,99.7,318.8,99L318.8,99z M317.5,99.6h-0.9v-1.1h0.9
		c0.4,0,0.8,0,0.8,0.5C318.3,99.4,318.2,99.6,317.5,99.6L317.5,99.6z"/>
	<path d="M317.3,96.8c-1.7,0-3,1.4-3,3c0,1.7,1.3,3,3,3c1.7,0,3-1.3,3-3C320.3,98.2,318.9,96.8,317.3,96.8z M317.3,102.4
		c-1.4,0-2.5-1.1-2.5-2.5c0-1.4,1.1-2.5,2.5-2.5c1.4,0,2.5,1.1,2.5,2.5C319.8,101.2,318.7,102.4,317.3,102.4L317.3,102.4z"/>
</g>
</svg>
