<svg id="Layer_1" data-name="Layer 1" xmlns="http://www.w3.org/2000/svg" viewBox="0 0 100 100"><title>makes</title><polygon points="66.07 45.92 66.07 45.71 66.07 45.37 66.07 45.23 66.07 45.06 61.81 45.06 61.81 42.34 61.81 42.34 61.81 42.22 61.81 42.22 61.81 42.19 59.94 42.19 59.94 42.22 59.94 42.34 59.94 45.71 59.94 45.92 59.94 46.07 66.07 46.07 66.07 45.92" fill="#676767"/><path d="M26.43,45.92V44.55h3.26v1.52h1.87V42.19H29.69v1.45H26.43V42.19H24.55v3.88h1.88V45.92Z" fill="#676767"/><polygon points="74.42 45.92 74.42 45.71 74.42 45.44 74.42 45.3 74.42 45.12 70.04 45.12 70.04 44.49 74.25 44.49 74.25 44.34 74.25 44.23 74.25 43.87 74.25 43.72 74.25 43.65 70.04 43.65 70.04 42.97 74.33 42.97 74.34 42.34 74.34 42.34 74.34 42.22 74.34 42.22 74.34 42.19 68.16 42.19 68.16 42.22 68.16 42.34 68.16 45.71 68.16 45.92 68.16 46.07 74.42 46.07 74.42 45.92" fill="#676767"/><path d="M53.73,46.23c1.81,0,3.55-.31,3.55-1.29,0,0,0,0,0-.07a0.79,0.79,0,0,0,0-.08s0,0,0-.07a0.68,0.68,0,0,0,0-.07c0-.63-0.71-1-2.72-1.17a3.32,3.32,0,0,1-1.69-.38c0.08-.17.41-0.25,1.41-0.25a10.09,10.09,0,0,1,2.33.29l0.14-.78,0-.07h0v0A17.11,17.11,0,0,0,53.82,42a4.61,4.61,0,0,0-2.71.58,0.67,0.67,0,0,0-.25.52h0v0s0,0,0,.06a0.78,0.78,0,0,0,0,.09c0,0.86,1,1.07,2.36,1.24a4.86,4.86,0,0,1,2,.4,2.43,2.43,0,0,1-1.55.26A10.8,10.8,0,0,1,51,44.86s-0.18.94-.18,0.93a0.41,0.41,0,0,0,0,.15A13.39,13.39,0,0,0,53.73,46.23Z" fill="#676767"/><path d="M19.47,46.23a18,18,0,0,0,2.27-.17l0.16-.93V45a17.94,17.94,0,0,1-2,.15c-1.39,0-2.35-.3-2.44-1,0.09-.77,1-1.1,2.47-1.1a15.08,15.08,0,0,1,2,.16V43h0l-0.08-.36-0.08-.4A17.67,17.67,0,0,0,19.53,42a6.37,6.37,0,0,0-3,.57A1.51,1.51,0,0,0,15.57,44s0,0,0,0,0,0,0,0,0,0,0,.07,0,0,0,.07C15.57,45.41,16.84,46.23,19.47,46.23Z" fill="#676767"/><path d="M36.34,45.92V43c0.26,0,.54,0,1,0a7.72,7.72,0,0,1,1.05,0,0.77,0.77,0,0,1,.74.41,0.89,0.89,0,0,1-.82.45,6.91,6.91,0,0,1-1,.05H36.77v0.24l2.13,1.94h2.39V45.71l-1.82-1.22a3.16,3.16,0,0,0,.66-0.16A1,1,0,0,0,41,43.52a0.9,0.9,0,0,0,0-.1s0,0,0,0,0,0,0,0h0a0.77,0.77,0,0,0-.51-0.72,3.17,3.17,0,0,0-.81-0.28,10.81,10.81,0,0,0-2.31-.19c-1.35,0-2.74.05-2.88,0.06v3.88h1.88V45.92Z" fill="#676767"/><path d="M78.77,45.92V43c0.26,0,.54,0,1,0a7.81,7.81,0,0,1,1.06,0,0.77,0.77,0,0,1,.74.41,0.88,0.88,0,0,1-.82.45,6.82,6.82,0,0,1-1,.05H79.19v0.24l2.13,1.94h2.38V45.71l-1.82-1.22a3.18,3.18,0,0,0,.66-0.16,1,1,0,0,0,.86-0.81,0.92,0.92,0,0,0,0-.1s0,0,0,0,0,0,0,0h0a0.78,0.78,0,0,0-.52-0.72,3.16,3.16,0,0,0-.81-0.28,10.8,10.8,0,0,0-2.31-.19c-1.35,0-2.74.05-2.88,0.06v3.88h1.88V45.92Z" fill="#676767"/><path d="M45,45.71v0.36h1.88V44.52l2.46-2.18V42.19H48l-0.46.41L46.3,43.69,45,42.6l-0.48-.41H42.31v0.15L45,44.55v1.16Z" fill="#676767"/><path d="M89.17,50.61a0.69,0.69,0,0,0-.61-0.48L59.87,50a9.34,9.34,0,0,0-1.58,0c-0.4.1-2.13,0.89-2.67,1a45,45,0,0,1-5.5.15H49.88a45,45,0,0,1-5.5-.15c-0.54-.1-2.28-0.89-2.67-1a9.34,9.34,0,0,0-1.58,0l-28.69.18a0.69,0.69,0,0,0-.61.48,0.49,0.49,0,0,0,0,.13h0a3.36,3.36,0,0,0,1.52,1.39,14.44,14.44,0,0,0,2.56,1.3c0.7,0.24,26.71,4.21,26.71,4.21S44.08,58,45.33,58a3.67,3.67,0,0,0,1.91-.33,10.3,10.3,0,0,1,2.65-.28h0.23a10.29,10.29,0,0,1,2.65.28,3.67,3.67,0,0,0,1.91.33c1.24,0,3.69-.33,3.69-0.33s26-4,26.71-4.21a14.44,14.44,0,0,0,2.56-1.3,3.37,3.37,0,0,0,1.52-1.39h0A0.49,0.49,0,0,0,89.17,50.61ZM38.68,55.17c-1.74-.74-4.09-2.46-4.62-2.67A2.49,2.49,0,0,0,33,52.35s-12.1-.49-13.48-0.59-3.84-.38-3.84-0.38l17.82,0.29a5.29,5.29,0,0,1,.94.13,2.9,2.9,0,0,1,.78.4h4.38c-0.3,0-1,0-1.29,0a0.56,0.56,0,0,0-.41.18H34.76l0.13,0.13,1,0.13L36.28,53l0.37,0.31h3.26l-0.19,0a1.17,1.17,0,0,0-.54.24H36.44a0.86,0.86,0,0,0,.62.31h0.56a10,10,0,0,0,2.48,1.14c1.55,0.45,4.3.91,4.3,0.91S40.42,55.91,38.68,55.17Zm11.44-.59H44.71c-2.1,0-2.65-.36-3.43-1-1.15-1-1-1.41-1-1.41H59.61s0.13,0.41-1,1.41c-0.77.68-1.32,1.05-3.43,1H50.12Zm30.39-2.83C79.13,51.87,67,52.35,67,52.35a2.5,2.5,0,0,0-1.08.15c-0.53.21-2.88,1.93-4.62,2.67S55.6,56,55.6,56s2.76-.47,4.3-0.91a10,10,0,0,0,2.48-1.14h0.47a0.86,0.86,0,0,0,.62-0.31H60.9a1.6,1.6,0,0,0-.63-0.24l-0.18,0h3.27L64,52.82h0l0.18-.15,1-.13,0.13-.13H62.13a0.68,0.68,0,0,0-.15-0.1h0a1,1,0,0,0-.27-0.06c-0.34,0-1.37,0-1.37,0h4.5a2.9,2.9,0,0,1,.78-0.4,5.29,5.29,0,0,1,.94-0.13l17.82-.29S81.88,51.65,80.51,51.76Z" fill="#676767"/><polygon points="53.3 53.47 52.38 53.47 52.38 52.82 52.37 52.82 52.37 52.79 51.94 52.79 51.94 53.64 53.34 53.64 53.34 53.48 53.3 53.48 53.3 53.47" fill="#676767"/><path d="M45.51,52.82h0v0.32H44.8V52.82h0v0H44.36v0.84h0.42v0h0V53.29h0.7v0.32h0v0h0.42V52.8H45.51v0Z" fill="#676767"/><path d="M49.47,52.78l0,0h0l-0.37.33-0.42-.36H48.14l0.62,0.51v0.35h0.44V53.29L49.57,53l0.2-.17H49.47Z" fill="#676767"/><polygon points="55.09 53.48 54.15 53.48 54.15 53.28 55.09 53.28 55.09 53.14 54.15 53.14 54.15 52.95 55.07 52.95 55.07 52.93 55.11 52.93 55.11 52.79 53.7 52.79 53.7 53.64 55.13 53.64 55.13 53.5 55.09 53.5 55.09 53.48" fill="#676767"/><path d="M50.84,53.1A1.34,1.34,0,0,1,50.48,53a0,0,0,0,1,0,0c0-.05.05-0.08,0.31-0.08a2.17,2.17,0,0,1,.5.06v0h0l0-.17a3.94,3.94,0,0,0-.67-0.06,1.39,1.39,0,0,0-.55.08h0A0.2,0.2,0,0,0,50,53a0.2,0.2,0,0,0,.13.19v0.24H50.06v0h0l0,0.18,0.14,0h0a3.34,3.34,0,0,0,.53,0c0.42,0,.82-0.07.82-0.3S51.3,53.15,50.84,53.1Zm-0.2.41a2.16,2.16,0,0,1-.51-0.07V53.2a1.35,1.35,0,0,0,.41.09,1.8,1.8,0,0,1,.43.07,0,0,0,0,1,0,0C51,53.47,50.89,53.5,50.63,53.5Z" fill="#676767"/><path d="M43.83,52.8a4,4,0,0,0-.5,0c-0.6,0-.9.18-0.9,0.46s0.29,0.46.88,0.46a4.05,4.05,0,0,0,.51,0l0-.18h0v0a3.58,3.58,0,0,1-.44,0c-0.31,0-.53-0.08-0.53-0.26s0.2-.26.53-0.26a3.22,3.22,0,0,1,.43,0v0h0Z" fill="#676767"/><path d="M47.75,53.25a0.22,0.22,0,0,0,.19-0.18c0-.1-0.06-0.18-0.29-0.23a2.39,2.39,0,0,0-.51,0H46.5v0.83h0.43V53h0.44c0.12,0,.16.06,0.16,0.11a0.16,0.16,0,0,1-.18.12H47l0.47,0.43H48l-0.48-.34A0.71,0.71,0,0,0,47.75,53.25Z" fill="#676767"/><path d="M56.86,53.25a0.23,0.23,0,0,0,.2-0.19c0-.1-0.06-0.18-0.3-0.24a2.45,2.45,0,0,0-.53,0H55.57v0.85H56v0h0V53h0.44c0.12,0,.16.06,0.16,0.11a0.16,0.16,0,0,1-.17.12H56.1l0.49,0.44h0.54l-0.49-.35A0.74,0.74,0,0,0,56.86,53.25Z" fill="#676767"/></svg>