<?xml version="1.0" encoding="utf-8"?>
<!-- Generator: Adobe Illustrator 21.0.2, SVG Export Plug-In . SVG Version: 6.00 Build 0)  -->
<svg version="1.1" id="Layer_1" xmlns="http://www.w3.org/2000/svg" xmlns:xlink="http://www.w3.org/1999/xlink" x="0px" y="0px"
	 viewBox="0 0 666 144" style="enable-background:new 0 0 666 144;" xml:space="preserve">
<style type="text/css">
	.st0{fill:#161314;}
</style>
<title>makes</title>
<polygon class="st0" points="466.1,35.8 466.1,34.1 466.1,31.3 466.1,30.1 466.1,28.7 430.8,28.7 430.8,6.2 430.8,6.2 430.8,5.2 
	430.8,5.2 430.8,4.9 415.3,4.9 415.3,5.2 415.3,6.2 415.3,34.1 415.3,35.8 415.3,37.1 466.1,37.1 "/>
<path class="st0" d="M137.8,35.8V24.5h27v12.6h15.5V4.9h-15.5v12h-27v-12h-15.6V37h15.6C137.8,37.1,137.8,35.8,137.8,35.8z"/>
<polygon class="st0" points="535.3,35.8 535.3,34.1 535.3,31.9 535.3,30.7 535.3,29.2 499,29.2 499,24 533.9,24 533.9,22.8 
	533.9,21.8 533.9,18.9 533.9,17.6 533.9,17 499,17 499,11.4 534.5,11.4 534.6,6.2 534.6,6.2 534.6,5.2 534.6,5.2 534.6,4.9 
	483.4,4.9 483.4,5.2 483.4,6.2 483.4,34.1 483.4,35.8 483.4,37.1 535.3,37.1 "/>
<path class="st0" d="M363.9,38.4c15,0,29.4-2.6,29.4-10.7c0,0,0,0,0-0.6c0-0.2,0-0.4,0-0.7c0,0,0,0,0-0.6c0-0.2,0-0.4,0-0.6
	c0-5.2-5.9-8.3-22.5-9.7c-4.9,0.2-9.7-0.9-14-3.1c0.7-1.4,3.4-2.1,11.7-2.1c6.5,0,13,0.9,19.3,2.4l1.2-6.5V5.8l0,0l0,0
	c-8-1.5-16.1-2.3-24.3-2.4c-7.8-0.7-15.6,0.9-22.4,4.8c-1.3,1-2.1,2.6-2.1,4.3l0,0l0,0c0,0,0,0,0,0.5c0,0.2,0,0.5,0,0.7
	c0,7.1,8.3,8.9,19.5,10.3c5.7-0.1,11.3,1,16.6,3.3c-3.9,2.1-8.4,2.9-12.8,2.2c-7.4,0.1-14.9-0.7-22.1-2.4c0,0-1.5,7.8-1.5,7.7
	c-0.1,0.4-0.1,0.8,0,1.2C347.7,37.7,355.8,38.5,363.9,38.4z"/>
<path class="st0" d="M80.1,38.4c6.3-0.1,12.6-0.5,18.8-1.4l1.3-7.7v-1.1c-5.5,0.7-11,1.1-16.6,1.2c-11.5,0-19.5-2.5-20.2-8.3
	c0.7-6.4,8.3-9.1,20.5-9.1c5.5,0.1,11.1,0.5,16.6,1.3v-1.7l0,0l-0.7-3l-0.7-3.3c-6.1-1.1-12.3-1.7-18.6-2C72,2.8,63.4,4.5,55.7,8
	c-4.9,1.9-8,6.6-8,11.8l0,0l0,0c0,0,0,0,0,0.6s0,0,0,0.6C47.8,31.6,58.3,38.4,80.1,38.4z"/>
<path class="st0" d="M219.9,35.8V11.7c2.2,0,4.5,0,8.3,0c2.9-0.2,5.8-0.2,8.7,0c2.5-0.2,4.9,1.1,6.1,3.4c-1.4,2.4-4,3.9-6.8,3.7
	c-2.7,0.3-5.5,0.5-8.3,0.4h-4.5v2L241,37.3h19.8v-3.1l-15-10.2c1.9-0.2,3.7-0.7,5.5-1.3c3.6-0.4,6.5-3.1,7.2-6.7c0-0.3,0-0.6,0-0.8
	l0,0l0,0l0,0c0-2.7-1.7-5.1-4.2-6c-2.1-1.1-4.4-1.9-6.7-2.3c-6.3-1.2-12.7-1.7-19.1-1.6c-11.2,0-22.7,0.4-23.9,0.5v32.1h15.6v-2.1
	H219.9z"/>
<path class="st0" d="M571.3,35.8V11.7c2.2,0,4.5,0,8.3,0c2.9-0.2,5.9-0.2,8.8,0c2.5-0.2,4.9,1.1,6.1,3.4c-1.4,2.4-4,3.9-6.8,3.7
	c-2.7,0.3-5.5,0.5-8.3,0.4h-4.6v2l17.6,16.1h19.7v-3.1l-15-10.2c1.9-0.2,3.7-0.7,5.5-1.3c3.6-0.4,6.5-3.2,7.1-6.7c0-0.3,0-0.6,0-0.8
	l0,0l0,0l0,0c-0.1-2.7-1.8-5.1-4.3-6c-2.1-1.1-4.4-1.9-6.7-2.3c-6.3-1.2-12.7-1.7-19.1-1.6c-11.2,0-22.7,0.4-23.9,0.5v32.1h15.6
	L571.3,35.8L571.3,35.8z"/>
<path class="st0" d="M291.6,34.1v3h15.6V24.2l20.4-18.1V4.9h-11.1l-3.8,3.4l-10.3,9l-10.8-9l-4-3.4h-18.3v1.2l22.3,18.3L291.6,34.1
	L291.6,34.1z"/>
<path class="st0" d="M657.5,74.7c-0.7-2.2-2.7-3.8-5.1-4l-237.6-1.1c-4.4-0.4-8.7-0.4-13.1,0c-3.3,0.8-17.6,7.4-22.1,8.3
	c-15.1,1.3-30.4,1.8-45.6,1.2h-2c-15.2,0.5-30.4,0.1-45.6-1.2c-4.5-0.8-18.9-7.4-22.1-8.3c-4.4-0.4-8.7-0.4-13.1,0L13.6,71.1
	c-2.3,0.2-4.3,1.7-5.1,4c0,0.4,0,0.7,0,1.1l0,0c2.9,5.1,7.3,9.1,12.6,11.5c6.7,4.3,13.8,7.9,21.2,10.8c5.8,2,221.2,34.9,221.2,34.9
	s20.4,2.6,30.7,2.6c5.4,0.5,10.9-0.4,15.8-2.7c7.2-1.7,14.6-2.5,22-2.3h1.9c7.4-0.2,14.8,0.6,22,2.3c4.9,2.3,10.4,3.3,15.8,2.7
	c10.3,0,30.6-2.7,30.6-2.7s215.4-33.3,221.3-35c7.4-2.9,14.5-6.5,21.2-10.8c5.3-2.4,9.7-6.5,12.6-11.5l0,0
	C657.5,75.6,657.5,75.1,657.5,74.7z M239.2,112.5c-14.4-6.1-33.9-20.4-38.3-22.1c-2.8-1-5.8-1.5-8.8-1.2c0,0-100.2-4.1-111.7-4.9
	c-11.4-0.8-31.8-3.1-31.8-3.1l147.6,2.4c2.6,0.1,5.2,0.5,7.8,1.1c2.3,0.8,4.5,1.9,6.5,3.3h36.3c-2.5,0-8.3,0-10.7,0
	c-1.3,0-2.5,0.5-3.4,1.5h-26l1.1,1.1l8.3,1.1l3.2,3l3.1,2.6h27h-1.6c-1.6,0.3-3.2,1-4.5,2h-22.7c1.3,1.5,3.1,2.5,5.1,2.6h4.6
	c6.4,4.1,13.3,7.2,20.5,9.4c12.8,3.7,35.6,7.5,35.6,7.5S253.7,118.6,239.2,112.5z M334,107.6h-44.8c-17.4,0-22-3-28.4-8.3
	c-9.5-8.3-8.3-11.7-8.3-11.7h160.1c0,0,1.1,3.4-8.3,11.7c-6.4,5.6-10.9,8.7-28.4,8.3H334z M585.7,84.1c-11.4,1-111.9,5-111.9,5
	c-3-0.2-6.1,0.2-8.9,1.2c-4.4,1.7-23.9,16-38.3,22.1s-47.2,6.9-47.2,6.9s22.9-3.9,35.6-7.5c7.2-2.2,14.2-5.4,20.5-9.4h3.9
	c2-0.1,3.9-1,5.1-2.6h-21.3c-1.6-1-3.4-1.7-5.2-2h-1.5h27.1L449,93l0,0l1.5-1.2l8.3-1.1l1.1-1.1h-26.3c-0.4-0.3-0.8-0.6-1.2-0.8l0,0
	c-0.7-0.3-1.5-0.4-2.2-0.5c-2.8,0-11.3,0-11.3,0h37.3c2-1.4,4.2-2.5,6.5-3.3c2.6-0.6,5.2-1,7.8-1.1l147.6-2.4
	C617.8,81.5,597.1,83.3,585.7,84.1L585.7,84.1z"/>
<polygon class="st0" points="360.3,98.4 352.7,98.4 352.7,93 352.6,93 352.6,92.7 349.1,92.7 349.1,99.8 360.7,99.8 360.7,98.5 
	360.3,98.5 "/>
<path class="st0" d="M295.8,93L295.8,93v2.7h-5.9V93l0,0l0,0h-3.6v7h3.5l0,0l0,0v-3.1h5.8v2.7l0,0l0,0h3.5v-6.7L295.8,93L295.8,93
	L295.8,93L295.8,93z"/>
<path class="st0" d="M328.6,92.7L328.6,92.7L328.6,92.7l-3.1,2.7l-3.5-3h-4.5l5.1,4.2v2.9h3.6v-2.7l3.1-2.4L331,93h-2.5L328.6,92.7
	L328.6,92.7z"/>
<polygon class="st0" points="375.2,98.5 367.4,98.5 367.4,96.8 375.2,96.8 375.2,95.6 367.4,95.6 367.4,94.1 375,94.1 375,93.9 
	375.3,93.9 375.3,92.7 363.7,92.7 363.7,99.8 375.5,99.8 375.5,98.6 375.2,98.6 "/>
<path class="st0" d="M340,95.3c-1-0.1-2-0.4-3-0.8l0,0c0-0.4,0.4-0.7,2.6-0.7c1.4,0,2.8,0.2,4.1,0.5l0,0l0,0v-1.4
	c-1.8-0.3-3.7-0.5-5.5-0.5c-1.5-0.1-3.1,0.1-4.6,0.7l0,0c-0.4,0.3-0.6,0.9-0.6,1.4c0,0.7,0.4,1.3,1.1,1.6v2h-0.6l0,0l0,0v1.5h1.2
	l0,0c1.5,0.1,2.9,0.1,4.4,0c3.5,0,6.8-0.6,6.8-2.5S343.8,95.7,340,95.3z M338.3,98.7c-1.4,0-2.8-0.2-4.2-0.6v-2
	c1.1,0.4,2.2,0.7,3.4,0.7c1.2,0,2.4,0.2,3.6,0.6l0,0C341.3,98.4,340.4,98.6,338.3,98.7L338.3,98.7z"/>
<path class="st0" d="M281.9,92.8c-1.4-0.1-2.8-0.1-4.1,0c-5,0-7.5,1.5-7.5,3.8s2.4,3.8,7.3,3.8c1.4,0.1,2.8,0.1,4.2,0V99l0,0l0,0
	c-1.2,0.1-2.4,0.1-3.6,0c-2.6,0-4.4-0.7-4.4-2.2s1.7-2.2,4.4-2.2c1.2-0.1,2.4-0.1,3.6,0l0,0l0,0L281.9,92.8z"/>
<path class="st0" d="M314.4,96.6c0.8-0.1,1.4-0.7,1.6-1.5c0-0.8-0.5-1.5-2.4-1.9c-1.4-0.2-2.8-0.2-4.2,0H304v6.9h3.6v-5.5h3.6
	c1,0,1.3,0.5,1.3,0.9c-0.2,0.7-0.8,1.1-1.5,1h-2.9l3.9,3.6h4.4l-4-2.8C313.1,97.1,313.8,96.9,314.4,96.6z"/>
<path class="st0" d="M389.8,96.6c0.8-0.1,1.5-0.7,1.7-1.6c0-0.8-0.5-1.5-2.5-2c-1.5-0.2-2.9-0.2-4.4,0h-5.5v7h3.6l0,0l0,0v-5.5h3.6
	c1,0,1.3,0.5,1.3,0.9c-0.2,0.6-0.8,1.1-1.4,1h-2.7l4.1,3.6h4.5l-4.1-2.9C388.6,97,389.3,96.8,389.8,96.6z"/>
</svg>
