<?xml version="1.0" encoding="utf-8"?>
<!-- Generator: Adobe Illustrator 21.0.2, SVG Export Plug-In . SVG Version: 6.00 Build 0)  -->
<svg version="1.1" id="Layer_1" xmlns="http://www.w3.org/2000/svg" xmlns:xlink="http://www.w3.org/1999/xlink" x="0px" y="0px"
	 viewBox="0 0 144 144" style="enable-background:new 0 0 144 144;" xml:space="preserve">
<g>
	<g>
		<path d="M110.2,3.9c-6.3-0.7-23.1-1.6-38.8-1.6S38.8,3.2,32.5,3.9c-7.2,0.7-10.6,4.4-10.6,11.5c0,13.6,0.5,34.8,1.4,47.2
			c0.8,11.1,1.5,19.8,15.3,28.2c9.9,6,19.7,11.2,32.5,17.8l0.2,0.1l0.2-0.1c12.8-6.6,22.7-11.8,32.5-17.8
			c13.8-8.4,14.5-17.1,15.3-28.2c0.9-12.5,1.4-33.7,1.4-47.2C120.8,8.3,117.4,4.6,110.2,3.9z M115.1,62.4
			c-0.8,10.6-1.3,17.6-13.2,24.9c-9.4,5.7-17.6,10-30.1,16.5l-0.4,0.2l-0.4-0.2C58.8,97.5,50.2,93,40.8,87.3
			C28.9,80,28.4,73,27.6,62.4C26.7,50,26.2,29,26.2,15.5c0-4.9,1.7-6.8,6.7-7.3c6.3-0.6,22.8-1.6,38.4-1.6s32.2,0.9,38.4,1.6
			c5,0.5,6.7,2.3,6.7,7.3C116.5,28.9,116,50,115.1,62.4z"/>
		<g>
			<path d="M70.7,34.1l-1.5,5c-5.4-11-11.8-16.8-19.6-16.8c-8.4,0-12.5,5.6-13.8,7.4c2.2-5.4,7.9-10.2,15.5-10.2
				C61.7,19.5,67.6,27.7,70.7,34.1z"/>
			<path d="M31.6,45.4C31.7,63.7,37,72.6,45,72.6c3.7,0,6.3-2.3,6.3-6.1c0-3.2-1.4-5.8-2-6.8c0.2,1,0.4,2.3,0.4,3.6
				c0,3.1-2.1,4.2-3.9,4.2c-5.3,0-10.6-10.3-12.1-22C33.2,45.4,31.6,45.4,31.6,45.4z"/>
			<path d="M91.4,19.5c7.6,0,13.3,4.8,15.5,10.2c-1.2-1.8-5.3-7.4-13.8-7.4c-7.8,0-14.2,5.8-19.6,16.8l-1.5-5
				C75.1,27.7,81,19.5,91.4,19.5z"/>
			<path d="M108.9,45.4c-1.5,11.7-6.8,22-12.1,22c-1.7,0-3.9-1-3.9-4.2c0-1.4,0.2-2.6,0.4-3.6c-0.6,1-1.9,3.6-1.9,6.8
				c0,3.8,2.6,6.1,6.3,6.1c8,0,13.3-8.8,13.4-27.2C111.1,45.4,109.5,45.4,108.9,45.4z"/>
			<path d="M98.1,29.6c-6.8,0-13.5,5.4-17.5,18l2.6,1.8l-1.2,6.1l-4.8,2l-0.9,6.1l2.3-2.9l2.5-1l-0.8,3.9l-4.4,1.8l-1.5,10.5l1,3.3
				l-4.2,1.7l-4.2-1.7l1-3.3l-1.5-10.5l-4.4-1.8l-0.8-3.9l2.5,1l2.3,2.9l-0.9-6.1l-4.8-2l-1.2-6.1l2.6-1.8c-4-12.5-10.6-18-17.5-18
				c-8.4,0-11.9,8-11.4,14.6h2c1.7,9.3,6.4,17.2,10,17.2c1.1,0,1.7-0.8,1.7-2.2c0-3.3-2.3-6.7-2.3-13c0-2.9,0.9-4.7,3.1-4.7
				c1.5,0,2.7,1.6,3.4,3.3c-1.3,4.7-1.1,8.6,2.6,10.3c1.9,0.8,4.1,1.8,4.1,1.8s2.4,10.1,2.6,10.8c0.2,0.7,0.5,1.6,0.9,2.1
				c0.4,0.8,3.5,6.1,3.5,6.1s1,5.3,1.3,6.5c0.6,3.1,2.8,3.1,5.2,3.1s4.6,0,5.2-3.1c0.2-1.1,1.3-6.5,1.3-6.5s3.1-5.3,3.5-6.1
				c0.3-0.5,0.7-1.4,0.9-2.1c0.2-0.7,2.6-10.8,2.6-10.8s2.2-1,4.1-1.8c3.7-1.7,3.9-5.6,2.6-10.3c0.7-1.7,1.9-3.3,3.4-3.3
				c2.2,0,3.1,1.8,3.1,4.7c0,6.3-2.3,9.7-2.3,13c0,1.4,0.6,2.2,1.7,2.2c3.6,0,8.3-7.9,10-17.2h2C110,37.6,106.5,29.6,98.1,29.6z
				 M55.2,53.2c-2.6-1.1-2.9-4.3-2-8.4l2.9,4.5l1.1,4.7C57.2,54,56.1,53.6,55.2,53.2z M87.4,53.2c-0.9,0.4-1.9,0.9-1.9,0.9l1.1-4.7
				l2.9-4.5C90.4,48.9,90.1,52.1,87.4,53.2z"/>
		</g>
	</g>
	<g>
		<path d="M36.3,135.5c5.4-2.4,4.6-6.5,4.6-6.5c0-6.5-8.8-6.2-8.8-6.2h-26v19.5h14.2v-5.9H23l4.3,5.8h15.1L36.3,135.5z M23.5,131.6
			h-3.4v-3.7l3.7,0c0,0,1.9,0,1.9,1.9C25.7,131.4,23.5,131.6,23.5,131.6z"/>
		<path d="M77.6,122.8H55.5l-10.2,19.4h15l1.7-3.8h9.9l1.6,3.8h15.1L77.6,122.8z M64.1,133.3l2.8-6.3l2.8,6.3H64.1z"/>
		<polygon points="118.5,142.2 124,131.3 124,142.2 138.5,142.2 138.5,122.8 118.2,122.8 115.2,128.8 115.2,128.8 112.1,122.8 
			91.8,122.8 91.8,142.2 106.3,142.2 106.3,131.3 111.9,142.2 		"/>
	</g>
</g>
</svg>
