<?xml version="1.0" encoding="utf-8"?>
<!-- Generator: Adobe Illustrator 18.1.1, SVG Export Plug-In . SVG Version: 6.00 Build 0)  -->
<svg version="1.1" id="Layer_1" xmlns="http://www.w3.org/2000/svg" xmlns:xlink="http://www.w3.org/1999/xlink" x="0px" y="0px"
	 viewBox="0 0 360 360" enable-background="new 0 0 360 360" xml:space="preserve">
<g>
	<g>
		<path d="M277.4,4.1C261.1,2.4,218.1,0,177.5,0c-40.6,0-83.6,2.4-99.9,4.1C59,5.9,50.3,15.4,50.3,33.8c0,35,1.3,89.4,3.7,121.5
			c2.1,28.5,3.8,51,39.3,72.6c25.4,15.4,50.7,28.7,83.6,45.7l0.6,0.3l0.6-0.3c33-17,58.3-30.3,83.6-45.7
			c35.5-21.6,37.2-44.1,39.3-72.6c2.4-32.2,3.7-86.6,3.7-121.5C304.6,15.4,296,5.9,277.4,4.1z M289.9,154.5c-2,27.3-3.4,45.3-34,64
			c-24.1,14.6-45.3,25.8-77.3,42.4l-1.1,0.6l-1.1-0.6c-31.1-16.1-53.2-27.7-77.4-42.4c-30.7-18.6-32-36.7-34-64
			c-2.4-31.8-3.6-85.9-3.6-120.6c0-12.7,4.4-17.5,17.3-18.7c16.1-1.6,58.7-4,98.8-4c40.1,0,82.7,2.4,98.8,4
			c12.9,1.3,17.3,6,17.3,18.7C293.6,68.5,292.3,122.6,289.9,154.5z"/>
		<g>
			<path d="M175.8,81.8l-3.8,12.9c-13.9-28.3-30.4-43.2-50.4-43.2c-21.6,0-32.2,14.5-35.4,19c5.6-14,20.2-26.2,39.8-26.2
				C152.7,44.3,167.9,65.4,175.8,81.8z"/>
			<path d="M75.4,110.8c0.2,47.2,13.9,69.9,34.4,69.9c9.5,0,16.3-6,16.3-15.7c0-8.3-3.6-14.9-5.1-17.5c0.6,2.7,1.1,5.8,1.1,9.3
				c0,8.1-5.5,10.8-10,10.8c-13.6,0-27.3-26.5-31.1-56.7C79.3,110.8,75.4,110.8,75.4,110.8z"/>
			<path d="M229,44.3c19.6,0,34.2,12.3,39.8,26.2c-3.1-4.6-13.7-19-35.4-19c-20,0-36.5,14.9-50.4,43.2l-3.8-12.9
				C187.1,65.4,202.3,44.3,229,44.3z"/>
			<path d="M274,110.8c-3.8,30.2-17.5,56.7-31.1,56.7c-4.5,0-10-2.6-10-10.8c0-3.5,0.5-6.6,1.1-9.3c-1.5,2.7-5,9.2-5,17.5
				c0,9.7,6.8,15.7,16.3,15.7c20.5,0,34.2-22.7,34.4-69.9C279.6,110.8,275.7,110.8,274,110.8z"/>
			<path d="M246.2,70.2c-17.5,0-34.6,13.9-44.9,46.2l6.6,4.6l-3.2,15.8l-12.4,5.1l-2.3,15.6l6-7.4l6.5-2.7l-2,10.1l-11.2,4.6
				l-3.9,26.9l2.7,8.6l-10.8,4.3l-10.8-4.3l2.7-8.6l-3.9-26.9l-11.2-4.6l-2-10.1l6.5,2.7l6,7.4l-2.3-15.6l-12.4-5.1l-3.2-15.8
				l6.6-4.6c-10.2-32.2-27.3-46.2-44.9-46.2c-21.7,0-30.6,20.5-29.4,37.5h5.2c4.3,23.9,16.5,44.2,25.7,44.2c2.8,0,4.3-2.1,4.3-5.6
				c0-8.5-5.8-17.3-5.8-33.4c0-7.4,2.4-12.1,8-12.1c3.8,0,6.9,4,8.8,8.4c-3.4,12.1-2.9,22.2,6.7,26.5c4.8,2.1,10.5,4.6,10.5,4.6
				s6.1,25.9,6.6,27.7c0.4,1.7,1.4,4,2.2,5.4c1.1,2,9.1,15.7,9.1,15.7s2.7,13.7,3.3,16.6c1.6,7.9,7.2,7.9,13.5,7.9
				c6.3,0,11.9,0,13.5-7.9c0.6-2.9,3.3-16.6,3.3-16.6s8-13.7,9.1-15.7c0.8-1.4,1.8-3.7,2.2-5.4c0.4-1.8,6.6-27.7,6.6-27.7
				s5.7-2.5,10.5-4.6c9.6-4.3,10.1-14.4,6.7-26.5c1.9-4.4,5-8.4,8.8-8.4c5.6,0,8,4.7,8,12.1c0,16.1-5.8,25-5.8,33.4
				c0,3.5,1.5,5.6,4.3,5.6c9.2,0,21.3-20.3,25.7-44.2h5.2C276.8,90.8,267.8,70.2,246.2,70.2z M136.1,131c-6.8-2.9-7.5-11-5.2-21.7
				l7.5,11.7l2.8,12.1C141.1,133.1,138.4,131.9,136.1,131z M218.9,131c-2.3,1-5,2.2-5,2.2l2.8-12.1l7.5-11.7
				C226.4,120,225.7,128,218.9,131z"/>
		</g>
	</g>
	<g>
		<path d="M87.4,342.5c13.8-6.1,11.8-16.6,11.8-16.6c0-16.8-22.7-16-22.7-16H9.7l0,50.1h36.4v-15.2h7l11,14.9H103L87.4,342.5z
			 M54.5,332.5h-8.7v-9.6l9.4-0.1c0,0,4.8,0.1,4.8,4.8C60.1,332,54.5,332.5,54.5,332.5z"/>
		<path d="M193.6,309.9h-56.9l-26.2,49.9H149l4.3-9.9h25.4l4.2,9.9h38.8L193.6,309.9z M158.9,337l7.2-16.2l7.2,16.2L158.9,337z"/>
		<polygon points="298.7,359.7 313,331.7 313,359.7 350.3,359.7 350.3,309.8 298,309.8 290.2,325.3 290.2,325.3 282.4,309.8 
			230.1,309.8 230.1,359.7 267.4,359.7 267.4,331.7 281.7,359.7 		"/>
	</g>
</g>
</svg>
