<?xml version="1.0" encoding="utf-8"?>
<!-- Generator: Adobe Illustrator 21.0.2, SVG Export Plug-In . SVG Version: 6.00 Build 0)  -->
<svg version="1.1" id="Layer_1" xmlns="http://www.w3.org/2000/svg" xmlns:xlink="http://www.w3.org/1999/xlink" x="0px" y="0px"
	 viewBox="0 0 144 144" style="enable-background:new 0 0 144 144;" xml:space="preserve">
<style type="text/css">
	.st0{fill:#141414;}
</style>
<path class="st0" d="M73.7,1.8C35.4,0.7,1,31.2,1,72c0,38.8,31.6,70.3,70.5,70.3c38.4,0.1,69.9-31,70.7-68.3
	C143.1,34.8,111.4,2.9,73.7,1.8z M118.2,115.7c-1.3,2.2-2.8,4.2-4.5,5.9c-3.7,3.7-8.2,6.4-13.2,8.3c-19.1,7.2-38.3,7.2-57.3-0.1
	c-6.7-2.6-12.3-6.7-16.5-12.8c-12.8-18.6-17-39.3-15.8-61.4c0.2-3,0.8-5.9,1.1-8.8c1-9.8,5.7-17.1,13.1-22.6c1-0.8,2.2-1.5,3.3-2.2
	c25.9-15.8,51.7-16.3,77.1-4.5c3.8,1.7,7.5,3.7,11.3,5.9c7.7,4.7,12.1,12.2,13.5,21.1c1.1,7.3,1.6,14.7,2.4,22.1
	C131.9,84.3,126.8,100.5,118.2,115.7z"/>
<path class="st0" d="M120.2,41.9c-0.4-7.3-3.8-12.8-11-15.8C99.6,22,89.6,20.4,79.3,20c-15.5-0.6-30.9,0.6-45.6,5.9
	c-7.7,2.8-10.8,7.3-11,15.5c-0.1,3.9,0,7.8,0,11.7c-0.3,20.2,3.6,39.5,10.7,58.3c2.5,6.5,6.8,10.1,13.1,12.1
	c12.3,3.8,24.8,4.4,37.4,3c7.1-0.8,14-2.3,20.1-6.2c1.8-1.2,3.8-2.8,4.5-4.7C117.8,91.9,121.7,67.3,120.2,41.9z M52.8,51.2
	c-3.4,0-7,0-10.7,0c0,5.9,0,11.3,0,17c2.8,0,5.4,0,8.3,0c0,2.3,0,4.2,0,6.5c-2.7,0-5.4,0-8.5,0c0,9.2,0,18.1,0,27.1
	c-2.1,0-3.8,0-5.7,0c0-18.9,0-37.7,0-56.6c5.6,0,10.9,0,16.6-0.1C52.8,47,52.8,48.8,52.8,51.2z M61.3,101.8c-1.9,0-3.6,0-5.5,0
	c0-18.9,0-37.7,0-56.7c1.8,0,3.5,0,5.5,0C61.3,63.9,61.3,82.7,61.3,101.8z M87.9,101.8c-2,0-3.7,0-5.8,0c0-8.7,0-17.5,0-26.7
	c-3,0-5.3,0-8.2,0c0,8.9,0,17.7,0,26.8c-2,0-3.5,0-5.2,0c0-18.9,0-37.7,0-56.8c4.2,0,8.1-0.1,12.1,0c0.7,0,1.7,0.5,2,1.1
	c2.3,4.9,5.4,9.4,5.2,15.4C87.6,74.9,87.9,88.2,87.9,101.8z M106.8,51.3c-1.7,0.1-3.4,0.3-5.5,0.4c0,16.6,0,33.1,0,50
	c-2.3,0-4,0-6.1,0c0-16.6,0-33.1,0-49.9c-2.3-0.2-4-0.3-5.9-0.5c0-2,0-4,0-6.1c5.9,0,11.6,0,17.5,0
	C106.8,47.3,106.8,49.1,106.8,51.3z"/>
<path class="st0" d="M73.5,70V50.3h5.8c0,0,2.8,5.4,2.8,11.2c0,3.3,0,8.4,0,8.4H73.5z"/>
</svg>
