<?xml version="1.0" encoding="utf-8"?>
<!-- Generator: Adobe Illustrator 21.0.2, SVG Export Plug-In . SVG Version: 6.00 Build 0)  -->
<svg version="1.1" id="Layer_1" xmlns="http://www.w3.org/2000/svg" xmlns:xlink="http://www.w3.org/1999/xlink" x="0px" y="0px"
	 viewBox="0 0 144 144" style="enable-background:new 0 0 144 144;" xml:space="preserve">
<style type="text/css">
	.st0{fill:#FFFFFF;}
</style>
<path d="M71.5,141.9c-38.9,0-70.5-31.5-70.5-70.3c0-40.8,34.4-71.3,72.7-70.2c37.7,1.1,69.4,33,68.5,72.2
	C141.4,110.9,109.9,142,71.5,141.9z M132.7,66.2c-0.8-7.4-1.3-14.8-2.4-22.1c-1.4-8.9-5.8-16.4-13.5-21.1
	C87.6,5.6,58.1,3.5,28.3,21.7C19.1,27.3,13.1,35.3,12,46.4c-0.3,2.9-0.9,5.8-1.1,8.8c-1.2,22.1,3,42.8,15.8,61.4
	c4.2,6.1,9.8,10.2,16.5,12.8c19,7.3,38.2,7.3,57.3,0.1c7.3-2.8,13.6-7.1,17.6-14.1C126.8,100.1,131.8,83.8,132.7,66.2z"/>
<path class="st0" d="M132.7,66.2c-0.8,17.7-5.9,33.9-14.5,49.1c-4,7-10.3,11.3-17.6,14.1c-19,7.3-38.2,7.2-57.3-0.1
	c-6.7-2.6-12.3-6.7-16.5-12.8C14,97.9,9.7,77.2,11,55.1c0.2-2.9,0.8-5.8,1.1-8.8c1.1-11.1,7.1-19,16.3-24.7
	C58.1,3.5,87.6,5.5,116.7,23c7.7,4.6,12.1,12.1,13.5,21.1C131.3,51.4,131.9,58.8,132.7,66.2z M22.7,52.7
	c-0.4,20.1,3.6,39.5,10.7,58.3c2.5,6.5,6.7,10.1,13.1,12.1c12.2,3.8,24.7,4.4,37.4,3c7.1-0.8,14-2.3,20.1-6.2
	c1.8-1.1,3.8-2.8,4.5-4.7c9.3-23.7,13.2-48.3,11.7-73.7c-0.4-7.4-3.8-12.8-11-15.8c-9.6-4-19.6-5.6-29.9-6.1
	c-15.5-0.6-30.8,0.5-45.6,5.9c-7.6,2.8-10.8,7.3-11,15.5C22.6,45,22.7,48.8,22.7,52.7z"/>
<path d="M22.7,52.7c0-3.9-0.1-7.8,0-11.7c0.2-8.2,3.3-12.7,11-15.5c14.7-5.3,30.1-6.5,45.6-5.9c10.3,0.4,20.3,2,29.9,6.1
	c7.2,3,10.6,8.5,11,15.8c1.5,25.4-2.4,50-11.7,73.7c-0.7,1.9-2.7,3.5-4.5,4.7c-6.1,3.9-13,5.4-20.1,6.2c-12.6,1.4-25.1,0.8-37.4-3
	c-6.3-2-10.6-5.6-13.1-12.1C26.3,92.2,22.4,72.9,22.7,52.7z M82.1,74.6c0,9.2,0,18,0,26.7c2.1,0,3.8,0,5.8,0
	c0-13.6-0.3-26.9,0.1-40.2c0.2-6-3-10.5-5.2-15.4c-0.3-0.6-1.3-1.1-2-1.1c-4-0.1-7.9,0-12.1,0c0,19.1,0,37.9,0,56.8
	c1.7,0,3.2,0,5.2,0c0-9.1,0-17.9,0-26.8C76.8,74.6,79.1,74.6,82.1,74.6z M36.2,45c0,18.9,0,37.7,0,56.6c1.9,0,3.6,0,5.7,0
	c0-9,0-17.9,0-27.1c3.1,0,5.8,0,8.5,0c0-2.3,0-4.2,0-6.5c-2.9,0-5.5,0-8.3,0c0-5.7,0-11.1,0-17c3.7,0,7.3,0,10.7,0
	c0-2.4,0-4.2,0-6.1C47.1,45,41.8,45,36.2,45z M101.3,101.5c0-16.9,0-33.4,0-50c2.1-0.2,3.8-0.3,5.5-0.4c0-2.2,0-4,0-6.1
	c-5.9,0-11.6,0-17.5,0c0,2.1,0,4.1,0,6.1c1.9,0.2,3.6,0.3,5.9,0.5c0,16.8,0,33.3,0,49.9C97.3,101.5,99,101.5,101.3,101.5z
	 M61.3,101.6c0-19.1,0-37.9,0-56.7c-2,0-3.7,0-5.5,0c0,19,0,37.8,0,56.7C57.7,101.6,59.4,101.6,61.3,101.6z"/>
<path class="st0" d="M82.1,74.6c-3,0-5.3,0-8.2,0c0,8.9,0,17.7,0,26.8c-2,0-3.5,0-5.2,0c0-18.9,0-37.6,0-56.8c4.2,0,8.1-0.1,12.1,0
	c0.7,0,1.7,0.5,2,1.1c2.3,4.9,5.4,9.4,5.2,15.4c-0.4,13.3-0.1,26.6-0.1,40.2c-1.9,0-3.6,0-5.8,0C82.1,92.6,82.1,83.8,82.1,74.6z
	 M74.1,51.4c0,5,0,10,0,15.1c2.6,0,5,0,7.8,0c0-2.8,0.3-5.4-0.1-7.9C80.9,52.5,78.8,50.6,74.1,51.4z"/>
<path class="st0" d="M36.2,45c5.6,0,10.9,0,16.6,0c0,1.9,0,3.7,0,6.1c-3.4,0-7,0-10.7,0c0,5.9,0,11.2,0,17c2.8,0,5.4,0,8.3,0
	c0,2.3,0,4.3,0,6.5c-2.7,0-5.4,0-8.5,0c0,9.2,0,18,0,27.1c-2.1,0-3.8,0-5.7,0C36.2,82.7,36.2,63.9,36.2,45z"/>
<path class="st0" d="M101.3,101.5c-2.3,0-3.9,0-6.1,0c0-16.6,0-33.2,0-49.9c-2.2-0.2-4-0.3-5.9-0.5c0-2,0-4,0-6.1
	c5.9,0,11.6,0,17.5,0c0,2,0,3.9,0,6.1c-1.7,0.1-3.4,0.3-5.5,0.4C101.3,68,101.3,84.6,101.3,101.5z"/>
<path class="st0" d="M61.3,101.6c-1.8,0-3.5,0-5.5,0c0-18.9,0-37.7,0-56.7c1.8,0,3.5,0,5.5,0C61.3,63.7,61.3,82.5,61.3,101.6z"/>
<path d="M74.1,51.4c4.7-0.8,6.8,1.1,7.7,7.3c0.4,2.5,0.1,5.1,0.1,7.9c-2.7,0-5.1,0-7.8,0C74.1,61.4,74.1,56.4,74.1,51.4z"/>
</svg>
