<?xml version="1.0" encoding="utf-8"?>
<!-- Generator: Adobe Illustrator 17.1.0, SVG Export Plug-In . SVG Version: 6.00 Build 0)  -->
<!DOCTYPE svg PUBLIC "-//W3C//DTD SVG 1.1//EN" "http://www.w3.org/Graphics/SVG/1.1/DTD/svg11.dtd">
<svg version="1.1" id="Layer_1" xmlns="http://www.w3.org/2000/svg" xmlns:xlink="http://www.w3.org/1999/xlink" x="0px" y="0px"
	 viewBox="0 0 100 100" enable-background="new 0 0 100 100" xml:space="preserve">
<g>
	<path fill="#222222" d="M49.955,69.899C38.927,69.893,29.995,60.984,30,49.988c0.005-11.553,9.756-20.193,20.584-19.879
		c10.677,0.31,19.663,9.359,19.41,20.46C69.755,61.098,60.827,69.906,49.955,69.899z M67.269,48.441
		c-0.221-2.085-0.369-4.182-0.683-6.253c-0.383-2.528-1.631-4.648-3.823-5.965c-8.248-4.952-16.617-5.52-25.036-0.38
		c-2.619,1.599-4.307,3.843-4.625,6.985c-0.084,0.829-0.253,1.651-0.299,2.482c-0.346,6.265,0.849,12.13,4.473,17.385
		c1.185,1.718,2.776,2.888,4.673,3.618c5.391,2.075,10.821,2.078,16.216,0.023c2.061-0.785,3.859-2.012,4.987-3.986
		C65.612,58.048,67.03,53.44,67.269,48.441z"/>
	<path fill="#FFFFFF" d="M67.269,48.441c-0.239,4.999-1.657,9.607-4.116,13.908c-1.128,1.973-2.926,3.2-4.987,3.986
		c-5.394,2.055-10.824,2.052-16.216-0.023c-1.897-0.73-3.488-1.9-4.673-3.618c-3.624-5.255-4.819-11.12-4.473-17.385
		c0.046-0.83,0.215-1.653,0.299-2.482c0.318-3.141,2.006-5.386,4.625-6.985c8.419-5.14,16.788-4.573,25.036,0.38
		c2.192,1.316,3.44,3.437,3.823,5.965C66.9,44.259,67.047,46.355,67.269,48.441z M36.136,44.634
		c-0.101,5.704,1.01,11.178,3.037,16.508c0.703,1.848,1.906,2.87,3.7,3.43c3.469,1.084,7.009,1.242,10.59,0.859
		c2.002-0.214,3.96-0.65,5.687-1.742c0.509-0.322,1.071-0.791,1.28-1.322c2.638-6.707,3.741-13.674,3.324-20.868
		c-0.121-2.089-1.081-3.631-3.116-4.484c-2.722-1.141-5.563-1.599-8.477-1.721c-4.396-0.184-8.735,0.154-12.912,1.659
		c-2.165,0.78-3.049,2.065-3.108,4.38C36.112,42.433,36.136,43.534,36.136,44.634z"/>
	<path fill="#222222" d="M36.136,44.634c0-1.1-0.023-2.201,0.005-3.301c0.059-2.315,0.943-3.6,3.108-4.38
		c4.177-1.505,8.515-1.843,12.912-1.659c2.914,0.122,5.755,0.58,8.477,1.721c2.035,0.853,2.995,2.395,3.116,4.484
		c0.417,7.194-0.686,14.162-3.324,20.868c-0.209,0.531-0.771,1-1.28,1.322c-1.727,1.092-3.685,1.528-5.687,1.742
		c-3.581,0.383-7.12,0.225-10.59-0.859c-1.794-0.561-2.997-1.583-3.7-3.43C37.146,55.812,36.035,50.338,36.136,44.634z
		 M52.945,50.834c0,2.606,0,5.088,0,7.573c0.605,0,1.086,0,1.632,0c0-3.844-0.084-7.614,0.038-11.377
		c0.055-1.711-0.841-2.968-1.481-4.369c-0.072-0.158-0.362-0.302-0.555-0.306c-1.124-0.029-2.25-0.014-3.428-0.014
		c0,5.42,0,10.732,0,16.083c0.491,0,0.907,0,1.481,0c0-2.567,0-5.077,0-7.589C51.448,50.834,52.105,50.834,52.945,50.834z
		 M39.95,42.435c0,5.367,0,10.675,0,16.042c0.531,0,1.01,0,1.617,0c0-2.562,0-5.073,0-7.674c0.879,0,1.632,0,2.409,0
		c0-0.644,0-1.191,0-1.848c-0.818,0-1.567,0-2.361,0c0-1.623,0-3.137,0-4.803c1.057,0,2.063,0,3.031,0c0-0.67,0-1.183,0-1.717
		C43.049,42.435,41.531,42.435,39.95,42.435z M58.381,58.438c0-4.789,0-9.47,0-14.174c0.6-0.044,1.081-0.079,1.567-0.115
		c0-0.619,0-1.138,0-1.715c-1.675,0-3.291,0-4.962,0c0,0.603,0,1.148,0,1.723c0.544,0.045,1.03,0.086,1.666,0.138
		c0,4.752,0,9.434,0,14.142C57.267,58.438,57.725,58.438,58.381,58.438z M47.049,58.475c0-5.4,0-10.74,0-16.063
		c-0.568,0-1.05,0-1.548,0c0,5.394,0,10.714,0,16.063C46.052,58.475,46.535,58.475,47.049,58.475z"/>
	<path fill="#FFFFFF" d="M52.945,50.834c-0.841,0-1.498,0-2.314,0c0,2.512,0,5.022,0,7.589c-0.574,0-0.991,0-1.481,0
		c0-5.351,0-10.663,0-16.083c1.178,0,2.304-0.015,3.428,0.014c0.193,0.005,0.483,0.148,0.555,0.306
		c0.641,1.401,1.536,2.658,1.481,4.369c-0.121,3.763-0.038,7.533-0.038,11.377c-0.546,0-1.027,0-1.632,0
		C52.945,55.922,52.945,53.44,52.945,50.834z M50.686,44.265c0,1.41,0,2.827,0,4.288c0.744,0,1.426,0,2.201,0
		c0-0.785,0.087-1.522-0.017-2.231C52.614,44.577,52.003,44.034,50.686,44.265z"/>
	<path fill="#FFFFFF" d="M39.95,42.435c1.581,0,3.099,0,4.697,0c0,0.534,0,1.047,0,1.717c-0.967,0-1.974,0-3.031,0
		c0,1.666,0,3.18,0,4.803c0.793,0,1.543,0,2.361,0c0,0.656,0,1.204,0,1.848c-0.778,0-1.53,0-2.409,0c0,2.602,0,5.112,0,7.674
		c-0.607,0-1.086,0-1.617,0C39.95,53.109,39.95,47.801,39.95,42.435z"/>
	<path fill="#FFFFFF" d="M58.381,58.438c-0.657,0-1.115,0-1.729,0c0-4.708,0-9.391,0-14.142c-0.636-0.053-1.122-0.093-1.666-0.138
		c0-0.575,0-1.12,0-1.723c1.672,0,3.288,0,4.962,0c0,0.578,0,1.096,0,1.715c-0.487,0.036-0.967,0.071-1.567,0.115
		C58.381,48.968,58.381,53.649,58.381,58.438z"/>
	<path fill="#FFFFFF" d="M47.049,58.475c-0.514,0-0.997,0-1.548,0c0-5.349,0-10.669,0-16.063c0.499,0,0.98,0,1.548,0
		C47.049,47.736,47.049,53.075,47.049,58.475z"/>
	<path d="M50.686,44.265c1.317-0.231,1.927,0.312,2.184,2.057c0.104,0.709,0.017,1.447,0.017,2.231c-0.775,0-1.457,0-2.201,0
		C50.686,47.092,50.686,45.675,50.686,44.265z"/>
</g>
</svg>
