<?xml version="1.0" encoding="utf-8"?>
<!-- Generator: Adobe Illustrator 21.0.2, SVG Export Plug-In . SVG Version: 6.00 Build 0)  -->
<svg version="1.1"
	 id="svg3359" inkscape:version="0.48.4 r9939" sodipodi:docname="Ford_logo.svg" xmlns:cc="http://creativecommons.org/ns#" xmlns:dc="http://purl.org/dc/elements/1.1/" xmlns:inkscape="http://www.inkscape.org/namespaces/inkscape" xmlns:rdf="http://www.w3.org/1999/02/22-rdf-syntax-ns#" xmlns:sodipodi="http://sodipodi.sourceforge.net/DTD/sodipodi-0.dtd" xmlns:svg="http://www.w3.org/2000/svg"
	 xmlns="http://www.w3.org/2000/svg" xmlns:xlink="http://www.w3.org/1999/xlink" x="0px" y="0px" viewBox="0 0 396 144"
	 style="enable-background:new 0 0 396 144;" xml:space="preserve">
<style type="text/css">
	.st0{fill:#161314;}
</style>
<sodipodi:namedview  bordercolor="#666666" borderopacity="1.0" fit-margin-bottom="0" fit-margin-left="0" fit-margin-right="0" fit-margin-top="0" id="base" inkscape:current-layer="layer1" inkscape:cx="98.172573" inkscape:cy="46.212637" inkscape:document-units="px" inkscape:pageopacity="0.0" inkscape:pageshadow="2" inkscape:window-height="706" inkscape:window-maximized="1" inkscape:window-width="1360" inkscape:window-x="-8" inkscape:window-y="-8" inkscape:zoom="3.1868983" pagecolor="#ffffff" showgrid="false">
	<inkscape:grid  empspacing="5" enabled="true" id="grid4325" snapvisiblegridlinesonly="true" type="xygrid" visible="true">
		</inkscape:grid>
</sodipodi:namedview>
<g>
	<path class="st0" d="M275.1,82.1c-3.4-1.7-8.7,1.3-13.4,7.1c-3.9,4.7-6,9.5-6.1,14.2c0,1.7,0.6,3.7,2.1,4.5
		c3.3,1.8,7.4-0.8,10.3-3.2c1.9-1.6,3.5-3.2,4.9-5.3c1.5-2.3,2.7-3.8,3.9-6.4c0.1-0.3,0-0.4-0.1-0.5c-0.4-0.1-0.8-0.5-0.9-0.8
		c-0.1-0.2-0.1-0.4,0.1-0.6C277.5,87.9,278.7,83.8,275.1,82.1z"/>
	<path class="st0" d="M198.2,13.5C99.1,13.5,18.8,39.7,18.8,72s80.3,58.6,179.4,58.6s179.4-26.2,179.4-58.5
		C377.6,39.7,297.3,13.5,198.2,13.5z M104.6,113.3c-10.8,0.1-20.2-6.5-21.3-17.9c-0.6-6.3,1.2-11.9,4.8-16.6
		c3.2-4.1,8.6-7.6,13.2-8.4c1.5-0.3,3.5-0.1,4.3,0.9c1.3,1.5,0.9,3.1-0.4,3.8c-3.5,1.8-7.7,4.8-9.8,8.9c-1.7,3.4-2,7.4,0.5,11.3
		c4.3,6.5,16.4,6.6,27.6-3.7c2.8-2.5,5.3-4.9,7.8-7.8c4.9-5.6,6.6-7.6,13.1-16.6c0.1-0.1,0.1-0.2,0.1-0.3c-0.1-0.1-0.1-0.1-0.3-0.2
		c-4.4,0.1-8.2,1.4-11.9,4.2c-1.1,0.8-2.6,0.7-3.3-0.4c-0.7-1.1-0.2-2.6,1-3.5c6-4.1,12.5-4.9,19.1-6c0,0,0.5,0,0.8-0.5
		c2.7-3.5,4.8-6.6,7.7-10.1c2.9-3.6,6.7-6.8,9.6-9.3c4-3.4,6.6-4.6,9.3-6c0.7-0.4-0.1-0.8-0.3-0.8c-14.7-2.7-30-6.3-44.6-0.9
		c-10.1,3.7-14.6,11.7-12.4,17c1.5,3.8,6.5,4.4,11.2,2.1c3.9-1.9,7.5-4.9,10-8.8c1.4-2.2,4.4-0.6,2.8,3.2
		c-4.3,10-12.4,17.8-22.4,18.2c-8.5,0.3-13.9-5.9-13.9-13.5c0-15,16.9-24.9,34.6-26.4c21.4-1.7,41.6,3.9,62.8,6.4
		c16.2,1.9,31.8,2,48.2-1.7c1.9-0.4,3.3,0.8,3.2,2.7c-0.2,2.8-2.3,5.5-7.7,8.4c-6.1,3.3-12.5,4.3-19.2,4.4
		c-16.2,0.1-31.2-6.1-46.8-9.5c0,0.7,0.2,1.5-0.4,1.9c-8.6,6.3-16.4,12.7-21.7,21.7c-0.2,0.2-0.1,0.4,0.2,0.4
		c4.5-0.2,8.6-0.4,12.9-0.7c0.7-0.1,0.8-0.2,0.7-0.8c-0.4-3.1,0.5-6.6,3.3-9.1s6.3-2.8,8.7-1c2.7,2.1,2.4,5.7,1,8.5
		c-1.5,2.8-3.9,4.3-6.3,5c0,0-0.5,0.1-0.4,0.5c0.1,0.7,3.3,2.5,3.6,2.9s0.1,1.1-0.4,1.7c-0.3,0.4-0.9,0.7-1.5,0.7
		c-0.5,0-0.9-0.2-1.6-0.6c-1.4-0.8-3.2-2-4.4-3.5c-0.4-0.5-0.6-0.5-1.6-0.5c-4.6,0.3-11.7,0.9-16.6,1.5c-1.2,0.1-1.3,0.4-1.6,0.8
		c-7.7,12.6-16,26.2-25,35.3C121.2,110.7,113.2,113.3,104.6,113.3z M314,55.2c-1.5,2.5-30.4,46-32.2,50.1c-0.6,1.4-0.7,2.5-0.1,3.3
		c1.5,2,4.9,0.9,7-0.6c6.3-4.3,10.6-9.5,15.4-14c0.3-0.2,0.8-0.3,1.1,0c0.8,0.6,1.8,1.5,2.5,2.2c0.3,0.3,0.2,0.7,0,0.9
		c-4.6,5.7-9.8,11-14.8,14.8c-7.7,5.9-15.4,7.4-19.2,3.6c-1.4-1.4-2.2-3.4-2.3-5.1c-0.1-0.9-0.6-0.9-1-0.5
		c-4.6,4.5-12.5,9.4-19.7,5.9c-6-2.9-7.4-10-6.3-16c0.1-0.2-0.1-1-0.8-0.5c-1.2,0.9-2.9,1.9-4.9,2.6c-2.5,0.9-3.7,1.2-6,1.2
		c-2.9,0-5.5-1.2-7.4-4.1c-1.1-1.5-1.5-3.9-1.6-5.6c0-0.2-0.2-0.5-0.5-0.1c-4.9,7.5-9.5,14.6-14.4,22.2c-0.3,0.4-0.5,0.6-1,0.6
		c-3,0-6.3,0-9.6,0c-0.6,0-0.9-0.4-0.6-1c1.7-3.2,11.1-16.7,17.4-28.2c1.7-3.2,1.4-4.8,0.3-5.5c-1.3-0.8-4,0.5-6.3,2.2
		c-6.2,4.7-11.5,11.9-14.1,15.2c-1.5,1.9-3,4.7-7.1,9.1c-6.4,6.9-14.9,10.8-23.1,8.1c-4.5-1.5-7.8-5-9-9.4c-0.3-0.8-0.7-1.1-1.2-0.5
		c-1.3,1.7-4,4.1-6.3,5.6c-0.3,0.2-0.9,0.6-1.4,0.3c-0.5-0.2-2.2-2.5-2.5-3.2c-0.2-0.5,0-1,0.3-1.3c3.2-2.8,5-4.4,6.4-6.2
		c1-1.3,1.9-2.7,2.8-5.1c2-4.9,6.5-14.1,15.4-18.8c3.4-1.9,6.9-3.2,10.7-3.6c1.7-0.2,3,0,3.5,1.3c0.2,0.6,0.6,1.7,0.9,2.6
		c0.1,0.6,0,1-0.6,1.2c-5.3,2-10.5,5.1-14.2,9.9c-4.2,5.5-5.3,12.1-2.5,15.9c2,2.8,5.3,3.3,8.4,2.3c4.7-1.5,8.8-5.9,10.9-10.8
		c2.3-5.3,2.7-11.6,1-17.2c-0.3-0.9,0-1.7,0.6-2.2c1.2-1,3-1.8,3.5-2.1c1.1-0.6,2.4-0.2,3,0.7c1.8,2.6,2.7,6.2,2.8,9.9
		c0.1,0.8,0.4,0.8,0.8,0.4c3.1-3.3,6-6.8,9.3-9.4c3.1-2.4,7-4.4,10.6-4.3c4.7,0.1,7.1,3.3,6.9,8.9c0,0.7,0.6,0.7,0.9,0.2
		c1.4-2,2.3-3,3.9-4.3c3.2-2.6,6.5-3.8,10-3.6c4.3,0.3,7.7,4.2,7,8.6c-0.4,2.8-2,5.3-4.6,6.6c-2.2,1.1-4.8,0.9-6.6-0.7
		c-1.5-1.3-2-3.3-1.6-5.2c0.1-0.4-0.5-0.7-0.9-0.3c-4.2,4.3-4.5,9.9-1.8,12.4c3,2.8,7.5,0.9,10.8-1.2c6-3.9,10.7-9.1,16.1-13.2
		c3.5-2.7,7.6-5.1,12.2-5.7c2.6-0.3,5-0.1,7.5,0.9c3.3,1.3,5.3,4,5.6,6.4c0,0.7,0.6,0.8,1,0.2c2.5-4,16.5-24.6,17.6-26.8
		c0.4-0.7,0.8-0.8,1.5-0.8c3.1,0,7,0,10,0C314,54.4,314.3,54.8,314,55.2z"/>
	<path class="st0" d="M178.9,58c1.5-0.3,3.1-1.5,4-2.9c0.9-1.3,1.3-3.1,0.4-3.8c-0.8-0.7-2-0.5-2.9,0.3c-1.9,1.7-2.5,4-2.2,5.7
		C178.3,57.9,178.6,58.1,178.9,58z"/>
	<path class="st0" d="M197.2,2.5C90.6,2.5,4.2,33.6,4.2,72s86.4,69.5,193,69.5c106.7,0,193-31.1,193-69.5
		C390.2,33.5,303.8,2.5,197.2,2.5z M198.2,136.1C95.5,136.1,12.3,107.4,12.3,72c0-35.4,83.3-64.1,185.9-64.1
		c102.7,0,185.9,28.7,185.9,64.1S300.9,136.1,198.2,136.1z"/>
</g>
</svg>
