<?xml version="1.0" encoding="utf-8"?>
<!-- Generator: Adobe Illustrator 21.0.2, SVG Export Plug-In . SVG Version: 6.00 Build 0)  -->
<svg version="1.1"
	 id="svg3359" inkscape:version="0.48.4 r9939" sodipodi:docname="Ford_logo.svg" xmlns:cc="http://creativecommons.org/ns#" xmlns:dc="http://purl.org/dc/elements/1.1/" xmlns:inkscape="http://www.inkscape.org/namespaces/inkscape" xmlns:rdf="http://www.w3.org/1999/02/22-rdf-syntax-ns#" xmlns:sodipodi="http://sodipodi.sourceforge.net/DTD/sodipodi-0.dtd" xmlns:svg="http://www.w3.org/2000/svg"
	 xmlns="http://www.w3.org/2000/svg" xmlns:xlink="http://www.w3.org/1999/xlink" x="0px" y="0px" viewBox="0 0 396 144"
	 style="enable-background:new 0 0 396 144;" xml:space="preserve">
<style type="text/css">
	.st0{fill:url(#path3098_1_);}
	.st1{fill:url(#path3119_1_);}
	.st2{fill:url(#path3413_1_);}
	.st3{fill:#FFFFFF;}
</style>
<sodipodi:namedview  bordercolor="#666666" borderopacity="1.0" fit-margin-bottom="0" fit-margin-left="0" fit-margin-right="0" fit-margin-top="0" id="base" inkscape:current-layer="layer1" inkscape:cx="98.172573" inkscape:cy="46.212637" inkscape:document-units="px" inkscape:pageopacity="0.0" inkscape:pageshadow="2" inkscape:window-height="706" inkscape:window-maximized="1" inkscape:window-width="1360" inkscape:window-x="-8" inkscape:window-y="-8" inkscape:zoom="3.1868983" pagecolor="#ffffff" showgrid="false">
	<inkscape:grid  empspacing="5" enabled="true" id="grid4325" snapvisiblegridlinesonly="true" type="xygrid" visible="true">
		</inkscape:grid>
</sodipodi:namedview>
<g id="layer1" transform="translate(-78,-839.13179)" inkscape:groupmode="layer" inkscape:label="Layer 1">
	<path id="path3014" inkscape:connector-curvature="0" d="M275.2,841.7c-106.6,0-193,31.1-193,69.5c0,38.4,86.4,69.5,193,69.5
		c106.7,0,193-31.1,193-69.5C468.2,872.7,381.8,841.7,275.2,841.7z"/>
	
		<linearGradient id="path3098_1_" gradientUnits="userSpaceOnUse" x1="622.1416" y1="-1547.0725" x2="622.1416" y2="-1247.4941" gradientTransform="matrix(0.3521 0 0 -0.3487 135.2561 420.7078)">
		<stop  offset="0" style="stop-color:#00053E"/>
		<stop  offset="0.1748" style="stop-color:#00073F"/>
		<stop  offset="0.3297" style="stop-color:#001046"/>
		<stop  offset="0.4771" style="stop-color:#001950"/>
		<stop  offset="0.6198" style="stop-color:#00245D"/>
		<stop  offset="0.758" style="stop-color:#002F6D"/>
		<stop  offset="0.809" style="stop-color:#003475"/>
		<stop  offset="0.9226" style="stop-color:#005693"/>
		<stop  offset="1" style="stop-color:#006CA9"/>
	</linearGradient>
	<path id="path3098" inkscape:connector-curvature="0" class="st0" d="M353.8,926c0-0.1,0-0.1,0-0.2c0,0,0,0,0,0
		c0.1,0.6,0.2,1.9,0.4,2.8c0.2-0.4,0.4-0.8,0.7-1.3c0.2-0.3,0.1-0.5-0.1-0.5C354.3,926.6,353.9,926.3,353.8,926L353.8,926z"/>
	
		<linearGradient id="path3119_1_" gradientUnits="userSpaceOnUse" x1="640.4703" y1="-1546.8162" x2="640.4703" y2="-1248.0105" gradientTransform="matrix(0.3521 0 0 -0.3487 135.2561 420.7078)">
		<stop  offset="0" style="stop-color:#00053E"/>
		<stop  offset="0.1748" style="stop-color:#00073F"/>
		<stop  offset="0.3297" style="stop-color:#001046"/>
		<stop  offset="0.4771" style="stop-color:#001950"/>
		<stop  offset="0.6198" style="stop-color:#00245D"/>
		<stop  offset="0.758" style="stop-color:#002F6D"/>
		<stop  offset="0.809" style="stop-color:#003475"/>
		<stop  offset="0.9226" style="stop-color:#005693"/>
		<stop  offset="1" style="stop-color:#006CA9"/>
	</linearGradient>
	<path id="path3119" inkscape:connector-curvature="0" class="st1" d="M361.3,916.1c0.1,0.7,0.6,0.8,1,0.2c0.1-0.2,0.2-0.4,0.4-0.6
		c-0.1-0.2-0.2-0.3-0.4-0.5c-0.6-0.7-2.1-2.3-3.5-3.5C360.3,913.1,361.1,914.7,361.3,916.1z"/>
	
		<linearGradient id="path3413_1_" gradientUnits="userSpaceOnUse" x1="562.8365" y1="-1543.0719" x2="562.8365" y2="-1248.4415" gradientTransform="matrix(0.3521 0 0 -0.3487 135.2561 420.7078)">
		<stop  offset="0" style="stop-color:#00053E"/>
		<stop  offset="0.1748" style="stop-color:#00073F"/>
		<stop  offset="0.3297" style="stop-color:#001046"/>
		<stop  offset="0.4771" style="stop-color:#001950"/>
		<stop  offset="0.6198" style="stop-color:#00245D"/>
		<stop  offset="0.758" style="stop-color:#002F6D"/>
		<stop  offset="0.809" style="stop-color:#003475"/>
		<stop  offset="0.9226" style="stop-color:#005693"/>
		<stop  offset="1" style="stop-color:#006CA9"/>
	</linearGradient>
	<path id="path3413" inkscape:connector-curvature="0" class="st2" d="M333.4,868.2c0.1,0.1,0.1,0.2,0.2,0.3
		C333.5,868.4,333.4,868.3,333.4,868.2z"/>
	<path id="path3534" inkscape:connector-curvature="0" class="st3" d="M276.2,974.5c-102.7,0-185.9-28.7-185.9-64.1
		c0-35.4,83.3-64.1,185.9-64.1c102.7,0,185.9,28.7,185.9,64.1C462.1,945.8,378.9,974.5,276.2,974.5z M276.2,851.9
		c-99.1,0-179.4,26.2-179.4,58.5S177.1,969,276.2,969c99.1,0,179.4-26.2,179.4-58.5C455.6,878.1,375.3,851.9,276.2,851.9z"/>
	<path id="path3549" inkscape:connector-curvature="0" class="st3" d="M392,889.5c0.3-0.4,0-0.8-0.6-0.8c-3,0-6.9,0-10,0
		c-0.7,0-1.1,0.1-1.5,0.8c-1.1,2.2-15.1,22.8-17.6,26.8c-0.4,0.6-1,0.5-1-0.2c-0.3-2.4-2.3-5.1-5.6-6.4c-2.5-1-4.9-1.2-7.5-0.9
		c-4.6,0.6-8.7,3-12.2,5.7c-5.4,4.1-10.1,9.3-16.1,13.2c-3.3,2.1-7.8,4-10.8,1.2c-2.7-2.5-2.4-8.1,1.8-12.4c0.4-0.4,1-0.1,0.9,0.3
		c-0.4,1.9,0.1,3.9,1.6,5.2c1.8,1.6,4.4,1.8,6.6,0.7c2.6-1.3,4.2-3.8,4.6-6.6c0.7-4.4-2.7-8.3-7-8.6c-3.5-0.2-6.8,1-10,3.6
		c-1.6,1.3-2.5,2.3-3.9,4.3c-0.3,0.5-0.9,0.5-0.9-0.2c0.2-5.6-2.2-8.8-6.9-8.9c-3.6-0.1-7.5,1.9-10.6,4.3c-3.3,2.6-6.2,6.1-9.3,9.4
		c-0.4,0.4-0.7,0.4-0.8-0.4c-0.1-3.7-1-7.3-2.8-9.9c-0.6-0.9-1.9-1.3-3-0.7c-0.5,0.3-2.3,1.1-3.5,2.1c-0.6,0.5-0.9,1.3-0.6,2.2
		c1.7,5.6,1.3,11.9-1,17.2c-2.1,4.9-6.2,9.3-10.9,10.8c-3.1,1-6.4,0.5-8.4-2.3c-2.8-3.8-1.7-10.4,2.5-15.9c3.7-4.8,8.9-7.9,14.2-9.9
		c0.6-0.2,0.7-0.6,0.6-1.2c-0.3-0.9-0.7-2-0.9-2.6c-0.5-1.3-1.8-1.5-3.5-1.3c-3.8,0.4-7.3,1.7-10.7,3.6
		c-8.9,4.7-13.4,13.9-15.4,18.8c-0.9,2.4-1.8,3.8-2.8,5.1c-1.4,1.8-3.2,3.4-6.4,6.2c-0.3,0.3-0.5,0.8-0.3,1.3c0.3,0.7,2,3,2.5,3.2
		c0.5,0.3,1.1-0.1,1.4-0.3c2.3-1.5,5-3.9,6.3-5.6c0.5-0.6,0.9-0.3,1.2,0.5c1.2,4.4,4.5,7.9,9,9.4c8.2,2.7,16.7-1.2,23.1-8.1
		c4.1-4.4,5.6-7.2,7.1-9.1c2.6-3.3,7.9-10.5,14.1-15.2c2.3-1.7,5-3,6.3-2.2c1.1,0.7,1.4,2.3-0.3,5.5c-6.3,11.5-15.7,25-17.4,28.2
		c-0.3,0.6,0,1,0.6,1c3.3,0,6.6,0,9.6,0c0.5,0,0.7-0.2,1-0.6c4.9-7.6,9.5-14.7,14.4-22.2c0.3-0.4,0.5-0.1,0.5,0.1
		c0.1,1.7,0.5,4.1,1.6,5.6c1.9,2.9,4.5,4.1,7.4,4.1c2.3,0,3.5-0.3,6-1.2c2-0.7,3.7-1.7,4.9-2.6c0.7-0.5,0.9,0.3,0.8,0.5
		c-1.1,6,0.3,13.1,6.3,16c7.2,3.5,15.1-1.4,19.7-5.9c0.4-0.4,0.9-0.4,1,0.5c0.1,1.7,0.9,3.7,2.3,5.1c3.8,3.8,11.5,2.3,19.2-3.6
		c5-3.8,10.2-9.1,14.8-14.8c0.2-0.2,0.3-0.6,0-0.9c-0.7-0.7-1.7-1.6-2.5-2.2c-0.3-0.3-0.8-0.2-1.1,0c-4.8,4.5-9.1,9.7-15.4,14
		c-2.1,1.5-5.5,2.6-7,0.6c-0.6-0.8-0.5-1.9,0.1-3.3C361.6,935.5,390.5,892,392,889.5L392,889.5z M353.8,926c0.1,0.3,0.5,0.7,0.9,0.8
		c0.1,0.1,0.2,0.2,0.1,0.5c-1.2,2.6-2.4,4.1-3.9,6.4c-1.4,2.1-3,3.7-4.9,5.3c-2.9,2.4-7,5-10.3,3.2c-1.5-0.8-2.1-2.8-2.1-4.5
		c0.1-4.7,2.2-9.5,6.1-14.2c4.7-5.8,10-8.8,13.4-7.1c3.6,1.7,2.4,5.8,0.8,9C353.7,925.6,353.7,925.8,353.8,926z"/>
	<path id="path3564" inkscape:connector-curvature="0" class="st3" d="M182.6,950.7c-10.8,0.1-20.2-6.5-21.3-17.9
		c-0.6-6.3,1.2-11.9,4.8-16.6c3.2-4.1,8.6-7.6,13.2-8.4c1.5-0.3,3.5-0.1,4.3,0.9c1.3,1.5,0.9,3.1-0.4,3.8c-3.5,1.8-7.7,4.8-9.8,8.9
		c-1.7,3.4-2,7.4,0.5,11.3c4.3,6.5,16.4,6.6,27.6-3.7c2.8-2.5,5.3-4.9,7.8-7.8c4.9-5.6,6.6-7.6,13.1-16.6c0.1-0.1,0.1-0.2,0.1-0.3
		c-0.1-0.1-0.1-0.1-0.3-0.2c-4.4,0.1-8.2,1.4-11.9,4.2c-1.1,0.8-2.6,0.7-3.3-0.4c-0.7-1.1-0.2-2.6,1-3.5c6-4.1,12.5-4.9,19.1-6
		c0,0,0.5,0,0.8-0.5c2.7-3.5,4.8-6.6,7.7-10.1c2.9-3.6,6.7-6.8,9.6-9.3c4-3.4,6.6-4.6,9.3-6c0.7-0.4-0.1-0.8-0.3-0.8
		c-14.7-2.7-30-6.3-44.6-0.9c-10.1,3.7-14.6,11.7-12.4,17c1.5,3.8,6.5,4.4,11.2,2.1c3.9-1.9,7.5-4.9,10-8.8c1.4-2.2,4.4-0.6,2.8,3.2
		c-4.3,10-12.4,17.8-22.4,18.2c-8.5,0.3-13.9-5.9-13.9-13.5c0-15,16.9-24.9,34.6-26.4c21.4-1.7,41.6,3.9,62.8,6.4
		c16.2,1.9,31.8,2,48.2-1.7c1.9-0.4,3.3,0.8,3.2,2.7c-0.2,2.8-2.3,5.5-7.7,8.4c-6.1,3.3-12.5,4.3-19.2,4.4
		c-16.2,0.1-31.2-6.1-46.8-9.5c0,0.7,0.2,1.5-0.4,1.9c-8.6,6.3-16.4,12.7-21.7,21.7c-0.2,0.2-0.1,0.4,0.2,0.4
		c4.5-0.2,8.6-0.4,12.9-0.7c0.7-0.1,0.8-0.2,0.7-0.8c-0.4-3.1,0.5-6.6,3.3-9.1c2.8-2.5,6.3-2.8,8.7-1c2.7,2.1,2.4,5.7,1,8.5
		c-1.5,2.8-3.9,4.3-6.3,5c0,0-0.5,0.1-0.4,0.5c0.1,0.7,3.3,2.5,3.6,2.9c0.3,0.4,0.1,1.1-0.4,1.7c-0.3,0.4-0.9,0.7-1.5,0.7
		c-0.5,0-0.9-0.2-1.6-0.6c-1.4-0.8-3.2-2-4.4-3.5c-0.4-0.5-0.6-0.5-1.6-0.5c-4.6,0.3-11.7,0.9-16.6,1.5c-1.2,0.1-1.3,0.4-1.6,0.8
		c-7.7,12.6-16,26.2-25,35.3C199.2,948.1,191.2,950.7,182.6,950.7L182.6,950.7z M256.2,894.7c0.1,0.6,0.4,0.8,0.7,0.7
		c1.5-0.3,3.1-1.5,4-2.9c0.9-1.3,1.3-3.1,0.4-3.8c-0.8-0.7-2-0.5-2.9,0.3C256.5,890.7,255.9,893,256.2,894.7L256.2,894.7"/>
</g>
</svg>
