<?xml version="1.0" encoding="utf-8"?>
<!-- Generator: Adobe Illustrator 21.0.2, SVG Export Plug-In . SVG Version: 6.00 Build 0)  -->
<svg version="1.1" id="Layer_1" xmlns="http://www.w3.org/2000/svg" xmlns:xlink="http://www.w3.org/1999/xlink" x="0px" y="0px"
	 viewBox="0 0 144 144" style="enable-background:new 0 0 144 144;" xml:space="preserve">
<style type="text/css">
	.st0{fill:#FFFFFF;}
</style>
<g>
	<path class="st0" d="M2,1h140.6v140.6H2V1z"/>
	<path d="M4.1,6.3v130h136.4V6.3H4.1z M138.7,134.5H5.9V8.1h132.8V134.5z"/>
	<path d="M10.6,12.7v117.2h123.5V12.7H10.6z M39,66.5V52.9c0-14,6.4-17,13.7-17c6.9,0,13.5,2.2,13.9,11.4l0,6.2h-8l0-4.1
		c-0.2-4.7-1.5-5.8-5.9-6c-6.3,0-5.4,9.1-5.4,13v14c-0.1,6.6-0.1,11.4,5.4,11.4c3.2,0,5.8-0.9,5.8-5.8l0-9.4H53v-7.4h13.4v30h-7.7
		l0-3.1c-1.6,2.4-5.8,3.7-7.9,3.8C37.6,89.9,39.2,81.3,39,66.5L39,66.5z M106.5,106.6H38.8V92.4h67.7L106.5,106.6L106.5,106.6z
		 M106.5,89.1h-7.8V54.4l-6.9,34.7h-6.3l-6.6-34.5l0,34.5h-7.8v-52H82l6.8,34.6l6.8-34.6h10.9V89.1z"/>
</g>
</svg>
