<?xml version="1.0" encoding="utf-8"?>
<!-- Generator: Adobe Illustrator 21.0.2, SVG Export Plug-In . SVG Version: 6.00 Build 0)  -->
<svg version="1.1" id="Layer_1" xmlns="http://www.w3.org/2000/svg" xmlns:xlink="http://www.w3.org/1999/xlink" x="0px" y="0px"
	 viewBox="0 0 144 144" style="enable-background:new 0 0 144 144;" xml:space="preserve">
<style type="text/css">
	.st0{fill:#161314;}
</style>
<path class="st0" d="M4.1,6.3v130h136.4V6.3H4.1z M138.7,134.5H5.9V8.1h132.8V134.5z"/>
<path class="st0" d="M10.6,12.7v117.2h123.5V12.7H10.6z M71.1,37.1H82l6.8,34.6l6.8-34.6h10.9v52h-7.8V54.4l-6.9,34.7h-6.3
	l-6.6-34.5v34.5h-7.8V37.1z M39,52.9c0-14,6.4-17,13.7-17c6.9,0,13.5,2.2,13.9,11.4v6.2h-8v-4.1c-0.2-4.7-1.5-5.8-5.9-6
	c-6.3,0-5.4,9.1-5.4,13v14c-0.1,6.6-0.1,11.4,5.4,11.4c3.2,0,5.8-0.9,5.8-5.8v-9.4H53v-7.4h13.4v30h-7.7v-3.1
	c-1.6,2.4-5.8,3.7-7.9,3.8c-13.2,0-11.6-8.6-11.8-23.4V52.9z M108.1,106.6H40.4V92.4h67.7V106.6z"/>
</svg>
