<?xml version="1.0" encoding="utf-8"?>
<!-- Generator: Adobe Illustrator 21.0.2, SVG Export Plug-In . SVG Version: 6.00 Build 0)  -->
<svg version="1.1" id="Layer_1" xmlns="http://www.w3.org/2000/svg" xmlns:xlink="http://www.w3.org/1999/xlink" x="0px" y="0px"
	 viewBox="0 0 252 144" style="enable-background:new 0 0 252 144;" xml:space="preserve">
<path d="M41.9,119.6l3.4,0.4c1.5,0.2,1.7,1.4,1.7,2.2v3.9H31.5v-3.9c0-0.8,0.2-2.1,1.7-2.2l3.4-0.4v-3.4h-20v3.4l3.4,0.4
	c1.5,0.2,1.7,1.4,1.7,2.2v13c0,0.8-0.2,2.1-1.7,2.2l-3.4,0.4v3.4h20v-3.4l-3.4-0.4c-1.5-0.2-1.7-1.4-1.7-2.2v-3.9h15.4v3.9
	c0,0.8-0.2,2.1-1.7,2.2l-3.4,0.4v3.4h20v-3.4l-3.4-0.4c-1.5-0.2-1.7-1.4-1.7-2.2v-13c0-0.8,0.2-2.1,1.7-2.2l3.4-0.4v-3.4h-20
	L41.9,119.6L41.9,119.6z"/>
<path d="M175.1,116.2h-24.7v3.4l3,0.3c1,0.2,1.8,0.6,1.8,2v13.2c0,0.8-0.2,2.1-1.7,2.2l-3.4,0.4v3.4h25c9,0,16.3-3.6,16.3-12.5
	S184.1,116.2,175.1,116.2 M173.3,136.4h-8.4V121h8.4c5,0,6.6,2.3,6.6,7.7C179.9,134,178.3,136.4,173.3,136.4"/>
<path d="M233.4,137.4c-1.6-0.2-2.1-1.2-2.6-1.9l-11.5-17.6c-0.8-1.3-1.4-1.7-2.6-1.7h-18.9v3.4l4.6,0.5c0.6,0.1,1.5,1,0.8,2.1
	l-8.6,13.8c-0.3,0.6-0.8,1.2-1.8,1.4l-3.4,0.4v3.4h15.9v-3.4l-2.7-0.2c-1.2-0.2-1.8-1-1.2-1.9l1.3-2.1h15.4l1.1,1.7
	c1,1.5-0.2,2.2-1.4,2.2l-2.8,0.3v3.4h21.6v-3.4L233.4,137.4z M205.4,129.1l4.7-7.7l5,7.7H205.4z"/>
<path d="M132.6,119.6l3.4,0.4c1.5,0.2,1.7,1.4,1.7,2.2v12.5l-13.2-17.5c-0.6-0.8-1.1-1-2.6-1h-17.1v3.4l3.4,0.4
	c1.5,0.2,1.7,1.4,1.7,2.2v13c0,0.8-0.2,2.1-1.7,2.2l-3.4,0.4v3.4h16v-3.4l-3.4-0.4c-1.5-0.2-1.7-1.4-1.7-2.2v-12.5l13.2,17.4
	c0.6,0.8,1.1,1,2.6,1h0.2h12v-19c0-0.8,0.2-2.1,1.7-2.2l3.4-0.4v-3.4h-15.9L132.6,119.6L132.6,119.6z"/>
<path d="M83.2,115.3c-16.3,0-20.4,7.1-20.4,13.3c0,6.2,4.2,13.4,20.4,13.4s20.4-7.1,20.4-13.3C103.7,122.5,99.5,115.3,83.2,115.3
	 M83.2,137.3c-6.3,0-8.9-2.6-8.9-8.6s2.6-8.6,8.9-8.6c6.3,0,8.9,2.6,8.9,8.6S89.6,137.3,83.2,137.3"/>
<path d="M154.2,10.9c-2.7,12.2-3.8,17.9-6.1,26.7c-2.2,8.5-3.8,16.4-6.7,20.3c-2.9,3.9-6.8,4.7-9.4,5c-1.4,0.2-2.4,0.2-5.4,0.2
	s-4-0.1-5.4-0.2c-2.6-0.3-6.6-1.1-9.4-5c-2.9-3.8-4.6-11.8-6.6-20.3c-2.2-8.9-3.4-14.5-6.1-26.7c0,0-2.7,0.1-3.9,0.2
	c-1.7,0.1-3,0.2-4.3,0.4c0,0,1.6,25.2,2.3,35.9c0.7,11.2,2.1,30.2,3.3,44.5c0,0,2.3,0.4,6.2,0.6c4,0.2,5.8,0.2,5.8,0.2
	c1.7-6.3,3.7-15,6-18.8c1.9-3,4.8-3.4,6.5-3.6c2.6-0.3,4.8-0.4,5.8-0.4l0,0l0,0c1,0,3.2,0,5.8,0.4c1.7,0.2,4.6,0.6,6.5,3.6
	c2.3,3.8,4.4,12.5,6,18.8c0,0,1.8,0,5.8-0.2c3.8-0.2,6.2-0.6,6.2-0.6c1.2-14.3,2.6-33.2,3.3-44.5c0.7-10.6,2.3-35.9,2.3-35.9
	c-1.4-0.2-2.7-0.3-4.3-0.4C157,11,154.2,10.9,154.2,10.9"/>
<path d="M186,25.8c-1.6-16-12.3-19.4-21.7-21c-4.7-0.8-13.1-1.4-18.5-1.7c-4.7-0.3-15.8-0.5-19.1-0.5s-14.4,0.2-19.1,0.5
	c-5.4,0.2-13.8,0.9-18.5,1.7c-9.4,1.6-20.1,5-21.7,21c-0.5,4.4-0.6,10.1-0.5,16.2c0.2,10.2,1,17,1.5,21.8c0.3,3.3,1.7,13,3.4,18.1
	c2.4,7,4.6,9,7.1,11c4.6,3.8,12.3,5,13.9,5.3c8.6,1.5,26.1,1.8,33.9,1.8c7.7,0,25.2-0.2,33.9-1.8c1.6-0.3,9.3-1.4,13.9-5.3
	c2.6-2.1,4.7-4.1,7.1-11c1.8-5,3.1-14.9,3.4-18.1c0.5-4.7,1.4-11.6,1.5-21.8C186.6,35.8,186.4,30.2,186,25.8 M180.1,52.7
	c-1,12.8-2.1,20.5-3.7,26c-1.4,4.9-3.2,8.1-5.8,10.4c-4.3,3.9-10.2,4.7-13.8,5.3c-7.5,1.1-20.3,1.5-30.2,1.5
	c-10,0-22.7-0.4-30.2-1.5c-3.5-0.6-9.4-1.4-13.8-5.3c-2.6-2.3-4.3-5.6-5.8-10.4c-1.6-5.5-2.8-13.2-3.7-26
	c-0.6-7.7-0.5-20.2,0.4-26.9c1.2-10.1,6.2-15.1,16.8-17c5-0.9,11.7-1.5,18-1.8c5.1-0.3,13.4-0.5,18.2-0.5c4.6-0.1,13,0.2,18.1,0.5
	c6.3,0.3,13,1,18,1.8c10.6,1.9,15.6,7,16.9,17C180.6,32.5,180.7,45,180.1,52.7"/>
</svg>
