<?xml version="1.0" encoding="utf-8"?>
<!-- Generator: Adobe Illustrator 21.0.2, SVG Export Plug-In . SVG Version: 6.00 Build 0)  -->
<svg version="1.1" id="Layer_1" xmlns="http://www.w3.org/2000/svg" xmlns:xlink="http://www.w3.org/1999/xlink" x="0px" y="0px"
	 viewBox="0 0 300 200" style="enable-background:new 0 0 300 200;" xml:space="preserve">
<path d="M44.2,159l4.2,0.5c1.9,0.2,2.1,1.8,2.1,2.8v4.9H31.2v-4.9c0-1,0.2-2.6,2.1-2.8l4.2-0.5v-4.2H12.5v4.2l4.2,0.5
	c1.9,0.2,2.1,1.8,2.1,2.8v16.2c0,1-0.2,2.6-2.1,2.8l-4.2,0.5v4.2h25v-4.2l-4.2-0.5c-1.9-0.2-2.1-1.8-2.1-2.8v-4.9h19.2v4.9
	c0,1-0.2,2.6-2.1,2.8l-4.2,0.5v4.2h25v-4.2l-4.2-0.5c-1.9-0.2-2.1-1.8-2.1-2.8v-16.2c0-1,0.2-2.6,2.1-2.8l4.2-0.5v-4.2h-25V159z"/>
<path d="M210.7,154.8h-30.8v4.2l3.7,0.4c1.3,0.2,2.2,0.7,2.2,2.5v16.5c0,1-0.2,2.6-2.1,2.8l-4.2,0.5v4.2l31.2,0
	c11.2,0,20.4-4.5,20.4-15.6S221.9,154.8,210.7,154.8 M208.4,180l-10.5,0v-19.2h10.5c6.2,0,8.3,2.9,8.3,9.6
	C216.7,177,214.6,180,208.4,180"/>
<path d="M283.5,181.3c-2-0.2-2.6-1.5-3.2-2.4l-14.4-22c-1-1.6-1.8-2.1-3.3-2.1H239v4.2l5.7,0.6c0.8,0.1,1.9,1.2,1,2.6L235,179.5
	c-0.4,0.7-1,1.5-2.2,1.7l-4.2,0.5v4.2h19.9v-4.2l-3.4-0.3c-1.5-0.2-2.3-1.2-1.5-2.4l1.6-2.6h19.2l1.4,2.1c1.3,1.9-0.3,2.7-1.7,2.8
	l-3.5,0.4v4.2h27v-4.2L283.5,181.3z M248.5,170.9l5.9-9.6l6.3,9.6H248.5z"/>
<path d="M157.6,159l4.2,0.5c1.9,0.2,2.1,1.8,2.1,2.8v15.6l-16.5-21.8c-0.7-1-1.4-1.3-3.2-1.3h-21.4v4.2l4.2,0.5
	c1.9,0.2,2.1,1.8,2.1,2.8v16.2c0,1-0.2,2.6-2.1,2.8l-4.2,0.5v4.2h20v-4.2l-4.2-0.5c-1.9-0.2-2.1-1.8-2.1-2.8v-15.6l16.5,21.7
	c0.8,1,1.4,1.3,3.2,1.3h0.2h15v-23.7c0-1,0.2-2.6,2.1-2.8l4.2-0.5v-4.2h-19.9L157.6,159L157.6,159z"/>
<path d="M95.9,153.7c-20.3,0-25.5,8.9-25.5,16.6S75.6,187,95.9,187c20.3,0,25.5-8.9,25.5-16.6C121.4,162.6,116.2,153.7,95.9,153.7
	 M95.9,181.1c-7.9,0-11.1-3.3-11.1-10.7c0-7.4,3.3-10.7,11.1-10.7c7.9,0,11.1,3.3,11.1,10.7C107,177.8,103.8,181.1,95.9,181.1"/>
<path d="M184.6,23.3c-3.4,15.3-4.8,22.4-7.6,33.4c-2.7,10.6-4.8,20.5-8.4,25.3c-3.6,4.9-8.5,5.9-11.8,6.3c-1.7,0.2-3,0.3-6.7,0.3
	c-3.7,0-5-0.1-6.7-0.3c-3.3-0.4-8.2-1.4-11.8-6.3c-3.6-4.8-5.7-14.7-8.3-25.3c-2.8-11.1-4.2-18.1-7.6-33.4c0,0-3.4,0.1-4.9,0.2
	c-2.1,0.1-3.7,0.3-5.4,0.5c0,0,2,31.5,2.9,44.9c0.9,14,2.6,37.7,4.1,55.6c0,0,2.9,0.5,7.7,0.7c5,0.3,7.3,0.3,7.3,0.3
	c2.1-7.9,4.6-18.8,7.5-23.5c2.4-3.8,6-4.2,8.1-4.5c3.2-0.4,6-0.5,7.2-0.5h0h0c1.3,0,4,0,7.2,0.5c2.1,0.3,5.7,0.7,8.1,4.5
	c2.9,4.7,5.5,15.6,7.5,23.5c0,0,2.2,0,7.2-0.3c4.8-0.3,7.7-0.7,7.7-0.7c1.5-17.9,3.2-41.5,4.1-55.6c0.9-13.3,2.9-44.9,2.9-44.9
	c-1.7-0.2-3.4-0.4-5.4-0.5C188,23.4,184.6,23.3,184.6,23.3"/>
<path d="M224.3,41.9c-2-20-15.4-24.2-27.1-26.2c-5.9-1-16.4-1.8-23.1-2.1c-5.9-0.4-19.7-0.6-23.9-0.6s-18,0.2-23.9,0.6
	c-6.7,0.3-17.2,1.1-23.1,2.1c-11.7,2-25.1,6.2-27.1,26.2c-0.6,5.5-0.7,12.6-0.6,20.2c0.2,12.7,1.3,21.2,1.9,27.2
	c0.4,4.1,2.1,16.3,4.3,22.6c3,8.7,5.7,11.2,8.9,13.8c5.8,4.7,15.4,6.2,17.4,6.6c10.8,1.9,32.6,2.3,42.3,2.3c9.6,0,31.5-0.3,42.3-2.3
	c2-0.4,11.6-1.8,17.4-6.6c3.2-2.6,5.9-5.1,8.9-13.8c2.2-6.3,3.9-18.6,4.3-22.6c0.6-5.9,1.7-14.5,1.9-27.2
	C225,54.4,224.8,47.3,224.3,41.9 M216.9,75.5c-1.2,16-2.6,25.6-4.6,32.5c-1.8,6.1-4,10.1-7.2,13c-5.4,4.9-12.8,5.9-17.2,6.6
	c-9.4,1.4-25.3,1.9-37.7,1.9c-12.5,0-28.3-0.5-37.7-1.9c-4.4-0.7-11.8-1.7-17.2-6.6c-3.2-2.9-5.4-7-7.2-13c-2-6.9-3.5-16.5-4.6-32.5
	c-0.7-9.6-0.6-25.2,0.5-33.6C85.5,29.3,91.7,23,105,20.7c6.2-1.1,14.6-1.9,22.5-2.3c6.4-0.4,16.8-0.6,22.7-0.6
	c5.8-0.1,16.3,0.2,22.6,0.6c7.9,0.4,16.3,1.2,22.5,2.3c13.3,2.4,19.5,8.7,21.1,21.2C217.5,50.2,217.6,65.8,216.9,75.5"/>
</svg>
