<?xml version="1.0" encoding="utf-8"?>
<!-- Generator: Adobe Illustrator 21.0.2, SVG Export Plug-In . SVG Version: 6.00 Build 0)  -->
<svg version="1.1" id="Layer_1" xmlns="http://www.w3.org/2000/svg" xmlns:xlink="http://www.w3.org/1999/xlink" x="0px" y="0px"
	 viewBox="0 0 324 144" style="enable-background:new 0 0 324 144;" xml:space="preserve">
<title>Hyundai_Motor_Company</title>
<polygon points="14.8,104.3 26.2,104.3 26.2,116.8 46.6,116.8 46.6,104.3 57.8,104.3 57.8,139.4 46.6,139.4 46.6,124.6 26.1,124.6 
	26.1,139.3 14.8,139.3 14.8,104.3 "/>
<polygon points="59.1,104.3 70.2,104.3 81.9,117.8 93.4,104.3 104.4,104.3 87.4,125.8 87.4,139.4 76.2,139.4 76.2,124.8 59.1,104.3 
	"/>
<path d="M105.8,104.3h11.3v27.2h18.1c2.8,0,4.7-2.8,4.7-5.8v-21.4h11.2v28c0,4.4-5,7-7.8,7h-37.4V104.3L105.8,104.3z"/>
<path d="M153.5,104.3h37.4c4.1-0.3,7.7,2.9,8,7c0,0.4,0,0.8,0,1.2v26.9h-11.2v-21.3c0-3-1-4.8-4.8-4.8h-17v26.2h-12.4L153.5,104.3
	L153.5,104.3L153.5,104.3z"/>
<path d="M202.3,104.3h32.7c6.5,0,11.6,5.3,11.6,9.3v16.2c0,2.8-4.1,9.7-9,9.7h-35.3V104.3L202.3,104.3z M213.8,131.7h17.3
	c2.3,0.1,4.3-1.8,4.4-4.1c0,0,0,0,0,0v-10.2c0-2.5-2-4-4.7-4h-17V131.7L213.8,131.7L213.8,131.7z"/>
<path d="M260.5,104.1h35.2v35.3h-12.6v-9.1h-21.6v9.1h-12.7v-22.9C248.8,109.9,254,104.4,260.5,104.1L260.5,104.1L260.5,104.1z
	 M261.4,116.7v5.7H283v-9h-18.2c-1.7-0.1-3.2,1.1-3.3,2.9C261.4,116.4,261.4,116.6,261.4,116.7L261.4,116.7L261.4,116.7z"/>
<polygon points="297.9,104.2 309.2,104.2 309.2,140.5 297.9,140.5 297.9,104.2 "/>
<path d="M162.7,2.5c-46.7,0-84.5,18.7-84.5,41.7s37.8,41.7,84.5,41.7s84.5-18.7,84.5-41.7S209.4,2.5,162.7,2.5L162.7,2.5z
	 M154.7,11.8c9.6-3.3,38.3,0,49.4,5.3c3.6,3.3-15.9,14.4-39,19.2C131.9,43,147.7,17.4,154.7,11.8L154.7,11.8L154.7,11.8z M97.8,61.2
	c-7.3-5.2-21.5-20.1,2.1-35.5c8.6-5.3,18.1-8.9,28-10.7c4.2-0.9,7.1,0.2,3.3,3.3c-7.9,8.2-24.2,35.2-25.7,41.1c-1.2,4-3.6,5-7.9,1.8
	l0,0L97.8,61.2z M165.8,78.4c-13.9,1.5-45-3.1-45.6-7.1c0.6-9.7,49.3-25.7,58-16.7C182,61.5,174.9,78,165.8,78.4L165.8,78.4
	L165.8,78.4z M236.7,50.4c-3.6,8.2-15.6,17.4-40.8,23.6c-3.9,0.9-5.2-1.5-2.7-3.7c4.2-2.5,24.2-36.1,26.8-42.8
	c1.5-3.3,4.3-2.1,6.1-0.7C234.1,32,240.2,40.4,236.7,50.4L236.7,50.4L236.7,50.4z"/>
</svg>
