<svg id="Layer_1" data-name="Layer 1" xmlns="http://www.w3.org/2000/svg" viewBox="0 0 175.75 82.41"><defs><style>.cls-1{fill-rule:evenodd;}</style></defs><title>Hyundai_Motor_Company</title><polygon class="cls-1" points="0 60.78 6.8 60.78 6.8 68.26 18.96 68.26 18.96 60.78 25.67 60.78 25.67 81.78 18.96 81.78 18.96 72.94 6.72 72.94 6.72 81.69 0 81.69 0 60.78 0 60.78"/><polygon class="cls-1" points="26.44 60.78 33.07 60.78 40.04 68.86 46.92 60.78 53.47 60.78 43.35 73.62 43.35 81.78 36.64 81.78 36.64 73.02 26.44 60.78 26.44 60.78"/><path class="cls-1" d="M263.82,438.64h6.72v16.23h10.8c1.7,0,2.8-1.7,2.8-3.48V438.64h6.71v16.75c0,2.63-3,4.16-4.67,4.16H263.82V438.64h0Z" transform="translate(-209.5 -377.86)"/><path class="cls-1" d="M292.3,438.64h22.36a4.49,4.49,0,0,1,4.76,4.89v16.06l-6.71,0V446.88c0-1.78-.6-2.84-2.89-2.84H299.69v15.64h-7.4v-21h0Z" transform="translate(-209.5 -377.86)"/><path class="cls-1" d="M321.46,438.64H341c3.91,0,6.93,3.14,6.93,5.57v9.65c0,1.7-2.42,5.78-5.4,5.78H321.46v-21h0ZM328.3,455h10.32a2.54,2.54,0,0,0,2.63-2.47v-6.12c0-1.49-1.22-2.38-2.79-2.38H328.3v11h0Z" transform="translate(-209.5 -377.86)"/><path class="cls-1" d="M356.22,438.55h21v21.08H369.7V454.2H356.82v5.44h-7.56V445.95a7.26,7.26,0,0,1,7-7.4h0Zm0.51,7.49v3.4h12.92v-5.36H358.77a1.86,1.86,0,0,0-2,2h0Z" transform="translate(-209.5 -377.86)"/><polygon class="cls-1" points="169.03 60.74 175.75 60.74 175.75 82.41 169.03 82.41 169.03 60.74 169.03 60.74"/><path class="cls-1" d="M297.79,377.86c-27.87,0-50.46,11.15-50.46,24.91s22.59,24.91,50.46,24.91,50.46-11.15,50.46-24.91-22.59-24.91-50.46-24.91h0ZM293,383.4c5.76-2,22.87,0,29.51,3.19,2.13,2-9.49,8.59-23.31,11.44-19.77,4-10.37-11.26-6.21-14.63h0Zm-33.95,29.51c-4.34-3.1-12.85-12,1.24-21.18A47.24,47.24,0,0,1,277,385.35c2.48-.53,4.26.09,2,2-4.7,4.88-14.45,21-15.33,24.55-0.71,2.4-2.13,3-4.7,1.06h0Zm40.59,10.28c-8.33.88-26.85-1.86-27.21-4.25,0.36-5.77,29.43-15.34,34.65-10,2.22,4.17-2,14-7.45,14.27h0ZM342,406.45c-2.13,4.88-9.31,10.37-24.37,14.1-2.31.53-3.1-.89-1.6-2.22,2.48-1.51,14.45-21.54,16-25.53,0.89-2,2.57-1.24,3.63-.44,4.79,3.1,8.42,8.15,6.38,14.09h0Z" transform="translate(-209.5 -377.86)"/></svg>