<?xml version="1.0" encoding="utf-8"?>
<!-- Generator: Adobe Illustrator 21.0.2, SVG Export Plug-In . SVG Version: 6.00 Build 0)  -->
<svg version="1.1" id="Layer_1" xmlns="http://www.w3.org/2000/svg" xmlns:xlink="http://www.w3.org/1999/xlink" x="0px" y="0px"
	 viewBox="0 0 250 250" style="enable-background:new 0 0 250 250;" xml:space="preserve">
<style type="text/css">
	.st0{fill:#FFFCED;}
</style>
<g>
	<path class="st0" d="M125.2,52.7C102.1,52.7,83,72.1,83,95.8s18.8,43.1,42.2,43.1s42.2-19.4,42.2-43.1S148.2,52.7,125.2,52.7z
		 M125.2,129.6c-18.2,0-32.9-15.1-32.9-33.9s14.8-33.9,32.9-33.9s32.9,15.1,32.9,33.9S143.3,129.6,125.2,129.6z"/>
	<path class="st0" d="M125.2,6.5C75.9,6.5,35,45.9,31.6,96.4c-0.9,12.9,0.9,25.5,5.5,38.2c4.3,12,11.7,23.4,21.2,33.9l63.4,73.6
		c0.9,0.9,2.2,1.5,3.4,1.5s2.8-0.6,3.4-1.5l63.1-73.6c9.8-10.5,16.9-21.9,21.2-33.9c4.6-12.6,6.5-25.2,5.5-38.2
		C215.3,45.9,174.4,6.5,125.2,6.5z M204.6,131.2c-4,11.1-10.5,21.2-19.7,30.8l-59.7,69.9l-60-69.9c-8.9-9.5-15.4-19.7-19.4-30.8
		c-4-11.4-5.8-22.8-4.9-34.2c2.8-40,35.1-81.3,84.3-81.3S207,57,209.5,97C210.4,108.4,208.6,120.1,204.6,131.2z"/>
</g>
</svg>
