<?xml version="1.0" encoding="utf-8"?>
<!-- Generator: Adobe Illustrator 21.0.2, SVG Export Plug-In . SVG Version: 6.00 Build 0)  -->
<svg version="1.1" id="Layer_1" xmlns="http://www.w3.org/2000/svg" xmlns:xlink="http://www.w3.org/1999/xlink" x="0px" y="0px"
	 viewBox="0 0 144 144" style="enable-background:new 0 0 144 144;" xml:space="preserve">
<style type="text/css">
	.st0{fill:#161314;}
</style>
<path class="st0" d="M72.7,76.3h-42L9.9,112.9H52L72.7,76.3L72.7,76.3z M94,38.9L73,2L52,38.9l21,36.9L94,38.9z M94,112.9h42.1
	l-20.8-36.5h-42L94,112.9L94,112.9z"/>
<path class="st0" d="M92.1,141.5h3.1v-16.8h-3.1V141.5z M127.4,141.5h3.1v-16.8h-3.1V141.5z M33.1,141.5h3.1v-16.8h-3.1V141.5z
	 M48.2,124.7h-9.7v2.8h3.2v13.9H45v-13.9h3.2V124.7L48.2,124.7z M121.1,131.1H114v-6.4h-3.1v16.8h3.1v-7.6h7.1v7.6h3.1v-16.8h-3.1
	V131.1z M22.9,132.2l-2.9-7.5h-3.6v16.8h3.1v-10.4l3.4,8.3l3.3-8.4v10.5h3.1v-16.8h-3.5L22.9,132.2L22.9,132.2z M74.8,124.7h-3.1v12
	c0,1.3-1.5,2.4-2.8,2.4s-2.8-1.1-2.8-2.4v-12H63v11.8c0,3,2.9,5.5,5.9,5.5s5.9-2.5,5.9-5.5V124.7L74.8,124.7z M87,132.4
	c0.4-0.3,2.1-1.3,2.1-3.4c0-2.9-2.4-4.3-3.9-4.3h-7.3v16.8h6.4c2.6,0,5.3-1.2,5.3-4.5C89.6,134.2,88.3,133.1,87,132.4L87,132.4z
	 M84.5,138.6H81v-11.1h3.3c0.9,0,1.6,0.7,1.6,1.6s-0.3,1.9-1.5,1.9H83v2.8h1.5c0.9,0,2.1,0.8,2.1,2.6
	C86.5,137.9,85.3,138.6,84.5,138.6L84.5,138.6z M49.5,136c0,0.2,0,0.4,0,0.7c0,2.9,2.3,5.1,5.2,5.1s5.2-2,5.2-4.8
	c0-1.5-0.6-2.7-1.6-3.7c-0.8-0.8-3.3-2-4.2-2.5s-1.3-1-1.3-1.7c0-1.2,0.8-2,1.9-2c1.2,0,2.1,0.9,2.1,2.1l0,0c0,0.3,0,0.6,0,0.8h2.8
	v-0.8c0-2.7-1.7-4.8-4.9-4.8c-2.7,0-4.9,1.9-4.9,4.8c0,1.3,0.6,2.6,2.1,3.6c1.6,1.1,3.7,1.9,4.4,2.6c0.4,0.4,0.7,1,0.7,1.6
	c0,1.3-1,2.2-2.3,2.2s-2.3-1.1-2.4-2.2c0-0.3-0.1-0.7-0.1-0.9L49.5,136L49.5,136L49.5,136z M102.5,130.8c-0.9-0.5-1.3-1-1.3-1.7
	c0-1.2,0.8-2,1.9-2s2.1,0.9,2.1,2.1c0,0.3,0,0.6,0,0.8h2.8v-0.8c0-2.7-1.7-4.8-4.9-4.8c-2.7,0-4.9,1.9-4.9,4.8
	c0,1.3,0.6,2.6,2.1,3.6c1.6,1.1,3.7,1.9,4.4,2.6c0.4,0.4,0.7,1,0.7,1.6c0,1.3-1,2.2-2.3,2.2s-2.3-1.1-2.4-2.2c0-0.3-0.1-0.7-0.1-0.9
	h-2.7c0,0.2,0,0.4,0,0.7c0,2.9,2.3,5.1,5.2,5.1c2.9,0,5.2-2,5.2-4.8c0-1.5-0.6-2.7-1.6-3.7C105.9,132.5,103.5,131.3,102.5,130.8
	L102.5,130.8z"/>
</svg>
