<svg id="Layer_1" data-name="Layer 1" xmlns="http://www.w3.org/2000/svg" viewBox="0 0 100 100"><title>makes</title><path d="M62.4,47.56c-1.06,0-2.73-.27-2.68,1.36,1.44,0.07,2.93,0,4.33,0C64.31,47.78,63.17,47.53,62.4,47.56Z" fill="#676767"/><path d="M83.4,45c0-2.12-1.66-2.15-1.66-2.15-1-.15-1.93-0.29-2.91-0.42C75.34,30.37,63.77,21.53,50,21.53s-25.14,8.7-28.73,20.59L19,42.58c-2.12.38-2.26,1.87-2.26,2-0.47,1.91-.19,8.27,0,10.42a2,2,0,0,0,2.11,2.15c0.7,0.15,1.48.29,2.32,0.42C24.66,69.6,36.25,78.47,50,78.47s25.26-8.8,28.79-20.8c1.8-.23,2.81-0.39,2.81-0.39,1.69-.14,1.73-2.17,1.73-2.19C83.66,52.14,83.41,45,83.4,45ZM50,28.48A22.65,22.65,0,0,1,70.81,41.55a333.34,333.34,0,0,0-41.4-.4A22.69,22.69,0,0,1,50,28.48ZM66.32,50.53c0.06,1,0,2,0,3a18.82,18.82,0,0,1-2.1,0c-0.09-1,.07-1.9-0.1-3a39.8,39.8,0,0,0-4.39,0,20.89,20.89,0,0,0,0,2.5,0.42,0.42,0,0,1-.5.51,4,4,0,0,0-1.09,0,0.5,0.5,0,0,1-.64-0.5,38.65,38.65,0,0,1,.1-5.82,1.46,1.46,0,0,1,.77-1A3,3,0,0,1,59.6,46c1.11,0,2.35,0,3.42,0s2.8-.09,3.17,1.15A14.13,14.13,0,0,1,66.32,50.53ZM49.9,48.28A57.35,57.35,0,0,1,56,50.71,1.59,1.59,0,0,1,56.42,52a1.66,1.66,0,0,1-.67,1.29,1.72,1.72,0,0,1-1.09.26H47.15a8.67,8.67,0,0,1,0-1.6c2.07,0,4,0,6.09,0,0.41,0,.39-0.53,0-0.66-1.67-.54-3.12-1.16-4.75-1.71a1.76,1.76,0,0,1-1.2-1.25,1.58,1.58,0,0,1-.05-1.08c0.66-1.92,2.87-1.26,4.48-1.33s3.2,0,4.71,0a9.28,9.28,0,0,1,0,1.63c-2.14,0-4.12,0-6.3,0C49.66,47.59,49.5,48.11,49.9,48.28ZM36.77,52h6.1c0.41,0,.37-0.53,0-0.65-1.67-.53-3.11-1.16-4.74-1.71a1.77,1.77,0,0,1-1.21-1.25,1.65,1.65,0,0,1-.05-1.08c0.66-1.92,2.87-1.26,4.48-1.33s3.19,0,4.72,0a8,8,0,0,1,0,1.63c-2.09,0-4.16,0-6.25,0a0.75,0.75,0,0,0-.45.13c-0.25.16,0,.51,0.23,0.57,1.49,0.38,2.84,1.22,4.34,1.54s3.16,2,1.44,3.56a1.22,1.22,0,0,1-.35.12,0.7,0.7,0,0,1-.47.06c-2.58,0-5.14,0-7.73,0A11.94,11.94,0,0,1,36.77,52Zm-1-6q0,3.79,0,7.59c-0.8.07-1.36,0-2.2,0,0-2.53,0-5.09,0-7.63A20.33,20.33,0,0,1,35.76,46Zm-7.86,6.5c-0.63-1.35-1.33-2.53-2-3.9-0.14-.31-0.67-0.36-0.69,0-0.06,1.57,0,3,0,4.54,0,0.31-.06.55-0.46,0.51a2.52,2.52,0,0,0-.88,0,0.43,0.43,0,0,1-.58-0.5c0-1.83,0-3.58,0-5.38a1.5,1.5,0,0,1,.52-1.31,2.64,2.64,0,0,1,2.45-.28,2.1,2.1,0,0,1,1.15,1.15c0.64,1.37,1.32,2.5,2,4A0.45,0.45,0,0,0,30.33,51c-0.11-1.77,0-3.28,0-5,0.69,0,1.22,0,1.91,0,0,2,0,4,0,6a1.39,1.39,0,0,1-.52,1.11C30.58,53.94,28.53,53.82,27.9,52.49ZM50,71.52A22.65,22.65,0,0,1,29.19,58.39c9.8,0.74,21.1.78,21.1,0.78,8,0.13,15.06-.24,20.49-0.68A22.65,22.65,0,0,1,50,71.52Zm26.16-18.6c-1,1-3.12,1-3.88-.22s-1.41-2.77-2.16-4.07a0.46,0.46,0,0,0-.41-0.35,0.54,0.54,0,0,0-.31.54c0,1.58,0,3.18,0,4.75-0.67.07-1.17,0-1.88,0,0-1.5,0-3.07,0-4.58,0-.79-0.24-1.69.26-2.33a2.46,2.46,0,0,1,2.59-.61,2.13,2.13,0,0,1,1.26,1.18c0.68,1.4,1.43,2.71,2.15,4.12a0.39,0.39,0,0,0,.72-0.2c0-1.79,0-3.44,0-5.2a18.64,18.64,0,0,1,1.92,0c0,1.93,0,3.88,0,5.79A1.63,1.63,0,0,1,76.17,52.92Z" fill="#676767"/></svg>