<?xml version="1.0" encoding="utf-8"?>
<!-- Generator: Adobe Illustrator 21.0.2, SVG Export Plug-In . SVG Version: 6.00 Build 0)  -->
<svg version="1.1" id="Layer_1" xmlns="http://www.w3.org/2000/svg" xmlns:xlink="http://www.w3.org/1999/xlink" x="0px" y="0px"
	 viewBox="0 0 144 144" style="enable-background:new 0 0 144 144;" xml:space="preserve">
<title>makes</title>
<path d="M97.8,66.9c-2.2,0-5.7-0.6-5.6,2.8c3,0.1,6.1,0,9,0C101.7,67.4,99.4,66.9,97.8,66.9z"/>
<path d="M141.4,61.6c0-4.4-3.4-4.5-3.4-4.5c-2.1-0.3-4-0.6-6-0.9c-7.2-25-31.3-43.4-59.9-43.4S19.8,30.9,12.3,55.6l-4.7,1
	c-4.4,0.8-4.7,3.9-4.7,4.2c-1,4-0.4,17.2,0,21.6c-0.2,2.3,1.5,4.3,3.8,4.5c0.2,0,0.4,0,0.6,0c1.5,0.3,3.1,0.6,4.8,0.9
	c7.2,25,31.3,43.4,59.9,43.4s52.5-18.3,59.8-43.2c3.7-0.5,5.8-0.8,5.8-0.8c3.5-0.3,3.6-4.5,3.6-4.5
	C141.9,76.4,141.4,61.6,141.4,61.6z M72,27.3c18.5-0.2,35.4,10.4,43.2,27.1c-28.6-2.1-57.3-2.3-86-0.8C37.3,37.3,53.9,27.1,72,27.3z
	 M105.9,73.1c0.1,2.1,0,4.2,0,6.2c-1.5,0.1-2.9,0.1-4.4,0c-0.2-2.1,0.1-3.9-0.2-6.2c-3-0.2-6.1-0.2-9.1,0c-0.1,1.7-0.1,3.5,0,5.2
	c0.1,0.5-0.2,0.9-0.6,1.1c-0.1,0-0.3,0-0.4,0c-0.8-0.1-1.5-0.1-2.3,0c-0.6,0.2-1.1-0.2-1.3-0.7c0-0.1,0-0.2,0-0.3
	c-0.2-4-0.2-8.1,0.2-12.1c0.2-0.9,0.8-1.7,1.6-2.1c0.8-0.3,1.7-0.5,2.6-0.5c2.3,0,4.9,0,7.1,0c2.2,0,5.8-0.2,6.6,2.4
	C106,68.4,106.1,70.8,105.9,73.1z M71.8,68.4c4.3,1.4,8.5,3.1,12.7,5c0.7,0.7,1,1.7,0.9,2.7c0,1.1-0.5,2-1.4,2.7
	c-0.7,0.4-1.5,0.6-2.3,0.5H66.1c-0.1-1.1-0.1-2.2,0-3.3c4.3,0,8.3,0,12.6,0c0.9,0,0.8-1.1,0-1.4c-3.5-1.1-6.5-2.4-9.9-3.6
	c-1.2-0.4-2.2-1.4-2.5-2.6c-0.3-0.7-0.3-1.5-0.1-2.2c1.4-4,6-2.6,9.3-2.8c3.3-0.1,6.6,0,9.8,0c0.1,1.1,0.1,2.3,0,3.4
	c-4.4,0-8.6,0-13.1,0C71.3,67,71,68.1,71.8,68.4z M44.5,76.2h12.7c0.9,0,0.8-1.1,0-1.4c-3.5-1.1-6.5-2.4-9.8-3.6
	c-1.2-0.4-2.2-1.4-2.5-2.6c-0.3-0.7-0.3-1.5-0.1-2.2c1.4-4,6-2.6,9.3-2.8c3.3-0.1,6.6,0,9.8,0c0.1,1.1,0.1,2.3,0,3.4
	c-4.3,0-8.6,0-13,0c-0.3,0-0.7,0.1-0.9,0.3c-0.5,0.3,0,1.1,0.5,1.2c3.1,0.8,5.9,2.5,9,3.2c3.1,0.7,6.6,4.2,3,7.4
	c-0.2,0.1-0.5,0.2-0.7,0.2c-0.3,0.2-0.6,0.2-1,0.1c-5.4,0-10.7,0-16.1,0C44.5,78.4,44.5,77.3,44.5,76.2z M42.5,63.7
	c0,5.2,0,10.5,0,15.8c-1.7,0.1-2.8,0-4.6,0c0-5.3,0-10.6,0-15.8C39.4,63.6,40.9,63.6,42.5,63.7L42.5,63.7z M26.1,77.2
	c-1.3-2.8-2.8-5.3-4.2-8.1c-0.3-0.6-1.4-0.7-1.4,0c-0.1,3.3,0,6.2,0,9.4c0,0.6-0.1,1.1-1,1.1c-0.6-0.1-1.2-0.1-1.8,0
	c-0.5,0.2-1,0-1.2-0.5c-0.1-0.2-0.1-0.4,0-0.5c0-3.8,0-7.4,0-11.2c-0.1-1,0.3-2.1,1.1-2.7c1.5-1,3.4-1.2,5.1-0.6
	c1.1,0.4,1.9,1.3,2.4,2.4c1.3,2.8,2.7,5.2,4.2,8.3c0.2,0.5,0.8,0.8,1.3,0.6c0.5-0.2,0.8-0.8,0.6-1.3l0,0c-0.2-3.7,0-6.8,0-10.4
	c1.4,0,2.5,0,4,0c0,4.2,0,8.3,0,12.5c0,0.9-0.4,1.7-1.1,2.3C31.7,80.2,27.4,79.9,26.1,77.2L26.1,77.2z M72,116.7
	c-18.5,0.2-35.4-10.5-43.2-27.3C49.2,91,72.6,91,72.6,91c16.6,0.3,31.3-0.5,42.6-1.4C107.3,106.3,90.5,116.9,72,116.7z M126.4,78.1
	c-2.1,2.1-6.5,2.1-8.1-0.5c-1.6-2.5-2.9-5.8-4.5-8.5c-0.1-0.4-0.4-0.7-0.9-0.7c-0.4,0.2-0.7,0.6-0.6,1.1c0,3.3,0,6.6,0,9.9
	c-1.4,0.1-2.4,0-3.9,0c0-3.1,0-6.4,0-9.5c0-1.6-0.5-3.5,0.5-4.8c1.4-1.4,3.5-1.9,5.4-1.3c1.2,0.4,2.1,1.3,2.6,2.5
	c1.4,2.9,3,5.6,4.5,8.6c0.2,0.4,0.7,0.5,1.1,0.3c0.2-0.1,0.4-0.4,0.4-0.7c0-3.7,0-7.1,0-10.8c1.3-0.1,2.7-0.1,4,0c0,4,0,8.1,0,12
	C127,76.5,126.9,77.3,126.4,78.1L126.4,78.1z"/>
</svg>
