<?xml version="1.0" encoding="utf-8"?>
<!-- Generator: Adobe Illustrator 21.0.2, SVG Export Plug-In . SVG Version: 6.00 Build 0)  -->
<svg version="1.1" id="Layer_1" xmlns="http://www.w3.org/2000/svg" xmlns:xlink="http://www.w3.org/1999/xlink" x="0px" y="0px"
	 viewBox="0 0 144 144" style="enable-background:new 0 0 144 144;" xml:space="preserve">
<style type="text/css">
	.st0{fill:#161314;}
</style>
<path class="st0" d="M69.8,24.2l-25.2-11l25.3,94.6l25.5-94.6L69.8,24.2z M48.2,17.6L69.9,27l21.8-9.3L69.9,98.3L48.2,17.6
	L48.2,17.6z"/>
<path class="st0" d="M69.9,28.8L51,20.6l18.9,71.7L89,20.7L69.9,28.8z M69.9,47.5l-1.6-6.4l-9.8-1.5l9.8-1.6l1.6-6.2l1.5,6.2l10,1.6
	l-10,1.5L69.9,47.5L69.9,47.5z M93.8,140.3c0.3,0,0.5-0.2,0.5-0.5l0,0v-16.3c0-0.3-0.2-0.5-0.5-0.5l0,0h-2.5c-0.3,0-0.5,0.2-0.5,0.5
	l0,0v16.3c0,0.3,0.2,0.5,0.5,0.5l0,0H93.8z M65.5,123.5c0-0.3,0.2-0.5,0.5-0.5l0,0h2.5c0.3,0,0.5,0.2,0.5,0.5v13.3
	c0,1.3-0.5,3.5-3.5,3.5c-1,0-2.2-0.2-3-1.5l-8-11.4c-0.3-0.4-1-0.6-1,0.3v12.1c0,0.3-0.2,0.5-0.5,0.5l0,0h-2.5
	c-0.3,0-0.5-0.2-0.5-0.5l0,0v-12.1c-0.1-1.5,0.5-4.7,3.5-4.7c1,0,2.2,0.1,3.2,1.5l7.9,11.2c0.3,0.4,1,0.5,1-0.3L65.5,123.5
	L65.5,123.5z M9.7,132.4c-0.3,0-0.5,0.2-0.5,0.5l0,0v2.5c0,0.3,0.2,0.5,0.5,0.5h7.9c2.6,0,6.2-1.1,6.2-6.4c0-5.3-4.2-6.4-6.7-6.4
	H4.3c-0.3,0-0.5,0.2-0.5,0.5l0,0v16.3c0,0.3,0.2,0.5,0.5,0.5l0,0h2.5c0.3,0,0.5-0.2,0.5-0.5l0,0v-12.5c0-0.4,0.2-0.8,0.6-0.8h9.5
	c1.1,0,3,0.3,3,2.9c0,2.3-1.1,3-3,3L9.7,132.4L9.7,132.4z M107.9,127.8c-0.4-0.7-0.9-0.7-1.3,0l-6.9,12c-0.2,0.4-0.3,0.5-0.6,0.5
	h-2.8c-0.5,0-0.4-0.3-0.3-0.4l8.6-15c1.5-2.6,4-2.4,5.4,0.1l8.6,15c0.2,0.4,0,0.4-0.3,0.4h-2.6c-0.5,0-0.7-0.2-0.8-0.4l-1.5-2.6
	c-0.1-0.2-0.2-0.4-0.9-0.4h-8.8c-0.2,0-0.3-0.1-0.1-0.4c0.2-0.3,1.7-2.8,1.7-2.8c0.1-0.1,0.2-0.3,0.5-0.3h4.9c0.3,0,0.4-0.2,0.2-0.5
	C110.6,132.6,107.9,127.8,107.9,127.8L107.9,127.8z M136.3,136.8c0.3,0,0.5,0.2,0.5,0.5l0,0v2.5c0,0.3-0.2,0.5-0.5,0.5l0,0h-10.1
	c-3.8,0-8.2-2.6-8.3-8.7c-0.1-6.6,4.9-8.5,7.6-8.5h10.8c0.3,0,0.5,0.2,0.5,0.5l0,0v2.4c0,0.3-0.2,0.5-0.5,0.5l0,0h-9.9
	c-2.5,0.1-5.1,1.1-5.1,5.2s3.5,5.2,5.1,5.2L136.3,136.8L136.3,136.8L136.3,136.8z M39.7,123.1h-5.2c-4.4,0-8.5,3-8.5,8.5
	c0,5.5,3.4,8.7,7.6,8.7h5.8c4.2,0,7.6-3,7.6-8.9C47.1,125.4,42.2,123.1,39.7,123.1L39.7,123.1z M38.3,137.1H35
	c-4.3,0-5.4-2.8-5.4-5.2c0-4.6,3.4-5.5,4.9-5.5h4.4c2.6,0,4.8,1.9,4.8,5.2C43.7,136,40.5,137.1,38.3,137.1z M78.2,139.8
	c0,0.3,0.2,0.5,0.5,0.5l0,0h2.5c0.3,0,0.5-0.2,0.5-0.5v-13c0-0.3,0.1-0.4,0.4-0.4h6.5c0.3,0,0.5-0.2,0.5-0.5l0,0v-2.4
	c0-0.3-0.2-0.5-0.5-0.5l0,0H71.3c-0.3,0-0.5,0.2-0.5,0.5l0,0v2.4c0,0.3,0.2,0.5,0.5,0.5h6.5c0.3,0,0.4,0.1,0.4,0.4L78.2,139.8
	L78.2,139.8z M85.8,81.8c-1.6,0-3,1.1-3,3s1.4,3,3,3s3-1.1,3-3S87.4,81.8,85.8,81.8z M85.8,87.1L85.8,87.1c-1.2,0-2.2-0.9-2.2-2.3
	s1-2.3,2.2-2.3s2.2,0.9,2.2,2.3S87,87.1,85.8,87.1z"/>
<path class="st0" d="M86.4,85c0.4,0,0.8-0.2,0.8-0.9c0-0.7-0.5-1-1.3-1h-1.2v3.3h0.7V85h0.3l0.8,1.4h0.8L86.4,85L86.4,85z
	 M85.9,84.5h-0.6v-0.8h0.5c0.3,0,0.6,0,0.6,0.4C86.4,84.4,86.2,84.5,85.9,84.5z M141,136.6c-1.1,0-2.1,0.8-2.1,2.1s1,2.1,2.1,2.1
	s2.1-0.8,2.1-2.1C143.1,137.4,142.1,136.6,141,136.6z M141,140.4L141,140.4c-0.8,0-1.5-0.7-1.5-1.6c0-1,0.7-1.6,1.5-1.6
	s1.5,0.7,1.5,1.6S141.8,140.4,141,140.4z"/>
<path class="st0" d="M141.4,138.9c0.3,0,0.5-0.2,0.5-0.6c0-0.5-0.3-0.7-0.9-0.7h-0.9v2.3h0.5v-1h0.2l0.5,1h0.6L141.4,138.9
	L141.4,138.9z M141.1,138.5h-0.4V138h0.3c0.2,0,0.4,0,0.4,0.3C141.4,138.5,141.3,138.5,141.1,138.5z"/>
</svg>
