<?xml version="1.0" encoding="utf-8"?>
<!-- Generator: Adobe Illustrator 21.0.2, SVG Export Plug-In . SVG Version: 6.00 Build 0)  -->
<svg version="1.1" id="Ebene_1" xmlns="http://www.w3.org/2000/svg" xmlns:xlink="http://www.w3.org/1999/xlink" x="0px" y="0px"
	 viewBox="0 0 144 144" style="enable-background:new 0 0 144 144;" xml:space="preserve">
<path d="M72.8,104.8c0.8-0.6,2.6-1.2,3.6-1.7c0-1.5-0.7-3-0.3-4.2c0.7-2.3,2.2-3.3,3.8-3.5c0.1,0,0.2,0.2,0.1,0.3
	c-0.9,0.8-1.2,1.9-1.4,3.2c-0.1,0.5-0.1,2,0.3,3c0.9-0.5,3.1-1.2,3.8-1.4c0.1-1.5,0.3-3,0.8-4.1c0.9-2.2,2.8-3.8,4.7-2.9
	c0.1,0.1,0.2,0.3,0.1,0.3c-1.2,0.4-2,1.7-2.6,3.1c-0.2,0.4-0.9,2.7-0.1,3.2c0,0,0,0,0,0c1.4-0.3,1.6-0.2,3.1-0.3
	c0.3-1.5,0.9-2.7,1.5-3.7c0.9-1.7,3.1-3,5.1-1.8c0.1,0.1,0.2,0.3,0.1,0.3c-1.4,0.3-2.3,1.2-2.8,2c-0.3,0.4-1.5,2.2-0.9,2.9
	c0.1,0,0.1,0,0.2,0c1.2,0,2,0.2,3.3,0.4c0.4-0.9,0.7-1,1.1-1.5c1.4-1.7,3.7-2.3,4.5-0.7c0.1,0.1,0.1,0.3,0,0.3
	c-0.7,0.1-1.9,0.5-2.5,1.2c-0.2,0.2-0.5,0.6-0.9,1.4c1.6,1.2,2.5,2.2,3,3.9c0.1,0.3,0.3,2-0.4,1.1c-2.6-3.3-6.1-4-11.5-3.5
	c-5.7,0.5-8.3,1.4-14,4.4c3.1,2.8-1.6,5.6-2.3,1.4c-2.8,4.2-5.7-1.1-1.9-1.9C66.6,102.6,71.8,100.9,72.8,104.8L72.8,104.8z"/>
<path d="M82.5,86.7c2-0.7,4.3-1.4,5.4-1.6c0.2-3.3,3.3-7.5,7.1-6c0.1,0.1,0.2,0.3,0.1,0.3c-1,0.3-4,3.2-3,5c0.8,0,2.8,0,3.5,0
	c0.8-3.7,4-6.3,7.6-4.6c0.1,0.1,0.2,0.3,0.1,0.3c-1.4,0.2-4.7,2.5-4.3,4.5c0.7,0,2.5,0.7,3.6,1.3c0.4-0.9,0.9-1.3,1.4-1.7
	c1.6-1.7,4.8-1.8,5.8-0.2c0.1,0.1,0.1,0.3,0,0.3c-1.4-0.1-2.6,0.1-3.8,1.2c-0.2,0.2-0.6,0.7-1,1.5c1.1,0.6,2.4,1.8,2.7,3
	c0.2,0.6,0.3,1.1,0.2,1.6c0,0.2-0.3,0-0.4-0.1c-3-3.3-9.6-5.3-16-4.5c-4.3,0.5-8.5,1.7-12,3.2C80.5,89.2,81.6,88,82.5,86.7
	L82.5,86.7z M73,94.2c-0.3,0.3-0.6,0.5-0.8,0.8c1.5,2.1-0.9,3.8-1.6,1.7c-1.8,2-3.3-0.3-2.1-1.3C70.1,95.1,71.6,94.7,73,94.2
	L73,94.2z"/>
<path d="M72,122.3c0.4-0.5,1.5-1.4,2-1.8c-1.6-2.6-0.7-5.8,0.8-6c0.1,0,0.2,0.2,0.1,0.3c-0.4,0.6-0.6,3.9,0.6,4.7
	c0.6-0.4,1.8-1.3,2.4-1.5c-0.9-3,0.7-7.1,3.7-6.5c0.1,0,0.2,0.2,0.1,0.3c-2.5,1.3-2.5,5.1-1.8,5.5c1-0.3,2.1-0.7,3.2-0.8
	c0.5-4.1,4.1-5.9,5.9-4.8c0.1,0.1,0.2,0.3,0.1,0.3c-1-0.6-4.7,3.3-3.5,4.4c0.9,0,1.9,0.3,2.9,0.6c0.4-2.2,3.6-4.1,4.9-2.7
	c0.1,0.1,0.1,0.3,0,0.3c-1.2,0.2-2.8,1.4-3,3.4c2.5,1.2,2.3,3.7,1.8,3c-2.4-3.2-7.5-2.6-11.3-1.8c-2.2,0.5-5.4,2.6-6.7,4.1
	c4.1,1.9,0.4,5.5-1.3,1.4c-2.8,4.9-5.6,0.4-2.3-0.9C66.5,120.8,70.6,118.7,72,122.3L72,122.3z"/>
<path d="M31.2,118.5c-4-4.6-7.4-9.6-10.1-14.7H65v14.7L31.2,118.5L31.2,118.5z"/>
<polygon points="86.1,46.8 118.3,46.8 118.3,59.4 86.1,59.4 "/>
<polygon points="118.3,27.6 108.8,24.2 97.7,21.9 85.2,19.2 73.6,18.3 64.7,18.3 64.7,31.6 118.3,31.6 "/>
<path d="M19,12.6c1.3-0.4,2.6-0.8,3.9-1.2c0.5-0.1,1-0.3,1.5-0.4c0.5-0.1,1.1-0.2,1.6,0l0.2,0.1c0.2,0.1,0.3,0.2,0.4,0.4
	c0.1,0.3,0.2,0.7,0.2,1c0.1,0.8,0.1,1.5,0,2.3c-0.1,0.6-0.1,1.2-0.4,1.8c-0.1,0.2-0.2,0.4-0.4,0.6c-0.1,0.1-0.3,0.3-0.4,0.4
	c-0.3,0.2-0.6,0.4-1,0.6c-0.8,0.4-1.7,0.7-2.6,0.9c-1.5,0.5-3.1,1.1-4.6,1.6l0,2.8c-0.8,0.3-1.5,0.6-2.3,0.9V13.9
	C16.4,13.5,17.7,13.1,19,12.6L19,12.6z M17.4,18.9c1.5-0.5,3.1-1.1,4.6-1.6c0.5-0.2,0.9-0.3,1.4-0.5l0.4-0.2l0.2-0.1l0.1-0.1
	l0.1-0.1l0.1-0.2l0.1-0.3c0-0.2,0.1-0.4,0.1-0.5c0-0.5,0-0.9-0.1-1.4l-0.1-0.2l-0.1-0.1L24,13.4l-0.2-0.1l-0.2-0.1l-0.2,0l-0.2,0
	c-0.5,0.1-0.9,0.2-1.4,0.3c-1.5,0.5-3,1-4.6,1.5L17.4,18.9L17.4,18.9z M36.7,7.8c1-0.2,2.1-0.4,3.1-0.5c0.3,0,0.7,0,1,0
	c0.2,0,0.3,0,0.5,0.1c0.1,0,0.2,0.1,0.4,0.2c0.1,0.1,0.2,0.1,0.3,0.2c0.1,0.1,0.1,0.2,0.2,0.3c0.1,0.2,0.1,0.4,0.2,0.5
	c0.1,0.6,0.1,1.3,0.2,1.9c0,0.7,0,1.5,0,2.2c0,0.3,0,0.6,0,0.9c0,0.6-0.1,1.1-0.2,1.7c0,0.1-0.1,0.3-0.1,0.4
	c-0.1,0.2-0.2,0.4-0.3,0.6l-0.3,0.4l-0.4,0.3c-0.2,0.1-0.4,0.2-0.5,0.2c-0.7,0.2-1.5,0.4-2.3,0.6c-1.6,0.3-3.1,0.6-4.7,0.9
	c-0.8,0.1-1.5,0.3-2.3,0.4c-0.2,0-0.4,0-0.6,0l-0.5-0.1c-0.1,0-0.2-0.1-0.4-0.1l-0.3-0.2l-0.2-0.3L29,17.1l0-4.2
	c0-0.5,0.1-1,0.2-1.5l0.1-0.4c0.1-0.2,0.2-0.4,0.3-0.6L30,9.9l0.3-0.2c0.3-0.2,0.6-0.4,1-0.5L33,8.6C34.3,8.3,35.5,8.1,36.7,7.8
	L36.7,7.8z M35.6,10l-2.5,0.6c-0.2,0.1-0.4,0.1-0.6,0.2l-0.2,0.1L32.2,11L32,11.2l-0.1,0.2l-0.1,0.2l-0.1,0.2
	c-0.1,0.2-0.1,0.3-0.2,0.5c-0.1,0.6-0.1,1.2-0.2,1.8c0,0.6,0,1.3,0.1,2l0.1,0.2l0.1,0.2l0.2,0.2l0.2,0.2l0.2,0.1l0.3,0.1l0.3,0
	c0.2,0,0.3,0,0.5,0c1-0.1,1.9-0.3,2.8-0.5c0.8-0.2,1.6-0.3,2.3-0.5c0.2,0,0.3-0.1,0.5-0.2l0.3-0.1l0.2-0.2l0.2-0.2l0.2-0.2l0.1-0.2
	l0.1-0.2l0.1-0.3c0.1-0.7,0.1-1.4,0.1-2.1c0-0.4,0-0.7-0.1-1.1l0-0.3c0-0.2-0.1-0.4-0.2-0.6l-0.1-0.2l-0.1-0.2l-0.1-0.1l-0.2-0.1
	l-0.2-0.1l-0.2,0l-0.4,0c-0.4,0-0.8,0-1.2,0.1C36.9,9.7,36.2,9.9,35.6,10L35.6,10z M51.3,6.1c1.2-0.1,2.4-0.2,3.6-0.2
	c0.3,0,0.5,0,0.8,0c0.3,0,0.5,0.1,0.8,0.2c0.1,0,0.2,0.1,0.3,0.2c0.2,0.2,0.3,0.3,0.4,0.5c0.1,0.2,0.1,0.3,0.2,0.5
	c0.1,0.4,0.1,0.8,0.1,1.2c0,0.5,0,1,0,1.5c0,0.2,0,0.4-0.1,0.6l-0.1,0.2c-0.1,0.1-0.1,0.3-0.2,0.4l-0.2,0.2
	c-0.1,0.1-0.2,0.1-0.3,0.2c-0.2,0.1-0.3,0.1-0.5,0.1l-1.3,0.3l1.3,0.7c0.2,0.1,0.3,0.2,0.5,0.4l0.2,0.2c0.2,0.3,0.3,0.6,0.5,0.9
	c0.2,0.6,0.3,1.1,0.3,1.7c-0.8,0-1.5,0.1-2.3,0.1c0-0.4-0.1-0.8-0.2-1.2l-0.2-0.5l-0.1-0.2l-0.1-0.2l-0.2-0.2L54,13.5l-0.2-0.1
	c-0.1,0-0.3-0.1-0.4-0.1c-0.3,0-0.6,0-0.9,0c-1.5,0.1-2.9,0.2-4.4,0.4l-0.6,0.1v2.8c-0.8,0.1-1.5,0.2-2.3,0.3V6.6
	C47.2,6.4,49.2,6.2,51.3,6.1L51.3,6.1z M47.5,11.9c1.5-0.1,3.1-0.3,4.6-0.4c0.5,0,1.1-0.1,1.6-0.1c0.2,0,0.3,0,0.4-0.1l0.2-0.1
	l0.2-0.1l0.2-0.1l0.1-0.1l0.1-0.1l0.1-0.2c0-0.1,0.1-0.2,0.1-0.4c0.1-0.4,0.1-0.9,0-1.3c0-0.2-0.1-0.3-0.1-0.5l-0.1-0.2l-0.1-0.1
	L54.6,8l-0.2-0.1l-0.2-0.1l-0.2,0c-0.1,0-0.3,0-0.4,0c-0.8,0-1.5,0.1-2.3,0.1c-1.3,0.1-2.6,0.2-3.9,0.3L47.5,11.9L47.5,11.9z
	 M63.7,14.2c0.9,0,1.7,0,2.6,0c0.6,0,1.2,0,1.8,0c0.1,0,0.3,0,0.4-0.1c0.1,0,0.2-0.1,0.3-0.1l0.1-0.1l0.1-0.1l0.1-0.1l0.1-0.1
	l0.1-0.3l0-0.5l-0.1-0.5l0-0.1l-0.1-0.1L69,11.8l-0.1-0.1l-0.2-0.1l-0.3-0.1l-0.6-0.1l-0.7,0l-4.8,0c-0.5,0-0.9,0-1.4-0.1
	c-0.1,0-0.2-0.1-0.4-0.1l-0.1-0.1L60.2,11l-0.1-0.1L60,10.7l-0.1-0.1c-0.1-0.2-0.2-0.4-0.2-0.6c-0.1-0.5-0.1-1.1-0.1-1.6
	c0-0.7,0-1.4,0.3-2c0.1-0.1,0.1-0.2,0.2-0.3c0.3-0.3,0.8-0.4,1.2-0.5c0.4-0.1,0.9-0.1,1.4-0.1c1,0,2.1,0,3.1,0c1.7,0,3.5,0,5.2,0.1
	v1.5c-2.3,0-4.6-0.1-6.9-0.1c-0.5,0-1,0-1.6,0.1c-0.1,0-0.2,0-0.3,0.1L62,7.3l-0.2,0.1l-0.1,0.2l-0.1,0.2l0,0.3c0,0.3,0,0.5,0,0.8
	l0,0.2l0.1,0.2l0.1,0.2l0.2,0.2l0.2,0c2.4,0,4.8,0.1,7.2,0.2l0.3,0c0.4,0.1,0.7,0.3,1,0.5c0.1,0.1,0.2,0.3,0.3,0.4
	c0.2,0.5,0.3,1.1,0.3,1.7c0,0.7,0,1.3-0.2,2c0,0.1-0.1,0.2-0.1,0.3L71,15c-0.1,0.1-0.2,0.2-0.3,0.3c-0.2,0.2-0.5,0.3-0.7,0.3
	c-0.4,0.1-0.8,0.1-1.2,0.1c-1.2,0.1-2.4,0.1-3.5,0.1c-1.9,0-3.7,0-5.5,0.1c0-0.5,0-1.1,0-1.6c1.2,0,2.5-0.1,3.7-0.1L63.7,14.2
	L63.7,14.2L63.7,14.2L63.7,14.2z M79.5,16.3c-1-0.1-1.9-0.2-2.9-0.3c-0.4-0.1-0.8-0.1-1.2-0.3c-0.2-0.1-0.4-0.2-0.6-0.3
	c-0.1-0.1-0.2-0.2-0.4-0.3c-0.1-0.1-0.2-0.2-0.3-0.3c-0.1-0.1-0.1-0.3-0.2-0.4c-0.1-0.5-0.2-1.1-0.2-1.6c0-1.4-0.1-2.7,0-4.1l0-0.3
	c0-0.6,0.1-1.2,0.5-1.8c0.1-0.2,0.3-0.3,0.4-0.4c0.5-0.2,1-0.3,1.6-0.4c0.6,0,1.1,0,1.7,0c1.1,0,2.2,0.1,3.4,0.2
	c1.6,0.1,3.2,0.3,4.8,0.5v1.8c-2.1-0.2-4.3-0.4-6.4-0.5c-0.7,0-1.4-0.1-2.1-0.1l-0.3,0L77,7.8l-0.2,0.1l-0.2,0.1l-0.2,0.2l-0.1,0.2
	l-0.1,0.2c0,0.1-0.1,0.3-0.1,0.4C76,9.8,76,10.5,76,11.2c0,0.6,0,1.2,0.1,1.7c0,0.1,0.1,0.3,0.1,0.4l0.1,0.2l0.1,0.2l0.2,0.2
	l0.2,0.1l0.2,0.1l0.2,0.1c0.2,0,0.4,0.1,0.6,0.1c0.6,0.1,1.3,0.1,1.9,0.2c2.2,0.2,4.3,0.4,6.5,0.6c0,0.6,0,1.1,0,1.6V17
	c-1.4-0.1-2.7-0.3-4.1-0.4C81.3,16.5,80.4,16.4,79.5,16.3L79.5,16.3z M94,11.8c1.8,0.3,3.5,0.7,5.3,1v-4c0.8,0.2,1.6,0.4,2.5,0.5
	v10.4c-0.8-0.2-1.6-0.4-2.5-0.6V15c-1.4-0.3-2.8-0.6-4.2-0.8c-1.3-0.2-2.6-0.5-3.9-0.7v4.1c-0.8-0.1-1.6-0.3-2.5-0.4V7
	c0.8,0.1,1.6,0.2,2.5,0.3v4C92.1,11.5,93.1,11.6,94,11.8L94,11.8z M112.8,12.5c0.9,0.3,1.7,0.6,2.6,0.9V15c-2.5-0.9-5.1-1.7-7.7-2.5
	l-0.9-0.3v2.6c1.9,0.6,3.7,1.1,5.6,1.7c0.8,0.3,1.6,0.5,2.5,0.8V19c-2.4-0.8-4.8-1.6-7.2-2.3l-0.8-0.3v2.8c1.8,0.5,3.6,1.1,5.4,1.7
	c1.1,0.3,2.1,0.7,3.2,1v1.8c-3.5-1.1-6.9-2.2-10.4-3.2l-0.4-0.1V10C107.4,10.8,110.1,11.6,112.8,12.5L112.8,12.5z"/>
<path d="M14.9,89.2c-1.5-5.1-2.3-9.9-2.4-14h32c0.1,5.4,2.3,10.3,5.9,14H14.9L14.9,89.2z"/>
<path d="M11.1,12.2l0.6-0.2c17.8-6.6,35.6-10,53.5-10.3c17.8-0.3,35.6,2.5,53.5,8.5l0.7,0.2l0,0.7c-0.1,21.4-0.3,42.8-0.4,64.3
	c-0.1,11.1-5.9,26.6-16.8,40.2c-8.8,11-21,20.7-36.3,25.8l-0.5,0c-15.4-4-27.6-13.3-36.4-24.2C17.4,103,11.6,86.3,11.6,74.8v0v0v0
	c-0.1-10.3-0.2-20.7-0.2-31L11.1,12.2L11.1,12.2z M31.9,118h32.5v-13H22.7c-0.1-0.2-0.3-0.5-0.4-0.7c2.2,4,4.9,7.9,7.9,11.7
	C30.8,116.6,31.3,117.3,31.9,118L31.9,118z M64.4,119.6h-31c8,8.8,18.3,16.1,31,19.6V119.6L64.4,119.6z M33.3,119.5
	c-0.1-0.1-0.2-0.2-0.3-0.3C33.1,119.3,33.2,119.4,33.3,119.5L33.3,119.5z M32.7,118.9C32.7,118.9,32.7,118.8,32.7,118.9
	C32.7,118.8,32.7,118.9,32.7,118.9L32.7,118.9z M21.8,103.3h42.5v-7.7c0.3,0,0.7,0,1,0c0.2,0,0.4,0,0.6,0v43.6c0,0-0.1,0-0.1,0
	c14.5-5.1,26.2-14.4,34.6-25c10.5-13.1,16.2-27.9,16.4-38.6c0,0,0,0.1,0,0.1H86.3c0-0.3,0-0.7,0-1v-0.6H117c0-4.6,0.1-9.1,0.1-13.7
	H86.3v-1.6h30.8c0-3.7,0-7.4,0.1-11.1H86.3v-1.6h-0.2v0h31.1c0-4.5,0.1-8.9,0.1-13.4H65.6v13.4h-1.7v-27c-17,0.3-34,3.7-51.1,10.3
	l0-1.7c17.6-6.8,35.1-10.1,52.6-10.2c17.3-0.1,34.7,2.9,51.9,8.8c0,0.6,0,1.2,0,1.7c0-5.4,0.1-10.9,0.1-16.3
	C100,5.9,82.6,3.2,65.2,3.5C47.6,3.8,30,7.2,12.4,13.7l0.8,30.1c0.1,10.1,0.1,20.2,0.2,30.4c0,0,0,0,0,0h31v0.6c0,0.3,0,0.7,0,1h-31
	c0,0,0,0,0,0c0.1,3.8,0.9,8.3,2.3,12.9c0,0,0-0.1,0-0.1h34.1c0.3,0.3,0.6,0.6,0.9,1l1,0.7H16.2C17.6,94.5,19.5,98.9,21.8,103.3
	L21.8,103.3z M22.3,104.2C22.3,104.2,22.3,104.1,22.3,104.2C22.3,104.1,22.3,104.2,22.3,104.2L22.3,104.2z M22.3,104.1
	c0-0.1-0.1-0.1-0.1-0.1C22.2,104,22.2,104,22.3,104.1L22.3,104.1z M22,103.6C22,103.6,22,103.6,22,103.6C22,103.6,22,103.6,22,103.6
	L22,103.6z M16.1,90c0-0.1-0.1-0.2-0.1-0.3C16.1,89.8,16.1,89.9,16.1,90L16.1,90z M15.9,89.4c0-0.1-0.1-0.2-0.1-0.3
	C15.9,89.1,15.9,89.2,15.9,89.4L15.9,89.4z M13.5,75.4C13.5,75.4,13.5,75.4,13.5,75.4C13.5,75.4,13.5,75.4,13.5,75.4L13.5,75.4z
	 M13.4,74.3C13.4,74.3,13.4,74.3,13.4,74.3C13.4,74.3,13.4,74.3,13.4,74.3L13.4,74.3z M117,74.5C117,74.5,117,74.5,117,74.5
	C117,74.5,117,74.5,117,74.5L117,74.5z M117,74.8C117,74.8,117,74.8,117,74.8C117,74.8,117,74.8,117,74.8L117,74.8z M117,74.9
	C117,74.9,117,74.9,117,74.9C117,74.9,117,74.9,117,74.9L117,74.9z M117,75.1C117,75.2,117,75.2,117,75.1
	C117,75.2,117,75.2,117,75.1L117,75.1z M117,75.2C117,75.2,117,75.3,117,75.2C117,75.3,117,75.2,117,75.2L117,75.2z M117,75.3
	C117,75.3,117,75.3,117,75.3C117,75.3,117,75.3,117,75.3L117,75.3z M117,75.1C117,75.1,117,75.1,117,75.1
	C117,75.1,117,75.1,117,75.1C117,75.1,117,75.1,117,75.1C117,75.1,117,75.1,117,75.1C117,75.1,117,75.1,117,75.1
	C117,75.1,117,75.1,117,75.1C117,75.1,117,75.1,117,75.1c0-0.1,0-0.1,0-0.1c0,0,0,0,0,0c0,0,0,0,0,0V75.1L117,75.1z M117,75
	C117,75,117,75,117,75C117,75,117,75,117,75C117,74.9,117,74.9,117,75C117,74.9,117,74.9,117,75L117,75L117,75z M117,74.3
	C117,74.3,117,74.3,117,74.3C117,74.3,117,74.2,117,74.3C117,74.2,117,74.2,117,74.3C117,74.2,117,74.2,117,74.3
	C117,74.2,117,74.2,117,74.3L117,74.3L117,74.3z M117.2,46.3C117.2,46.3,117.2,46.3,117.2,46.3C117.2,46.3,117.2,46.3,117.2,46.3
	L117.2,46.3z M65.6,31.1h51.7c0,0.3,0,0.5,0,0.8c0-1.3,0-2.6,0-3.9c-17.2-6-34.4-9-51.7-8.9L65.6,31.1L65.6,31.1z M117.3,31.9
	c0,0.1,0,0.3,0,0.4C117.3,32.1,117.3,32,117.3,31.9L117.3,31.9z M117.2,32.3C117.2,32.4,117.2,32.4,117.2,32.3
	C117.2,32.4,117.2,32.4,117.2,32.3L117.2,32.3z M117.2,32.4c0,0.1,0,0.2,0,0.3C117.2,32.6,117.2,32.5,117.2,32.4L117.2,32.4z
	 M65.8,139.3C65.8,139.3,65.8,139.3,65.8,139.3C65.8,139.3,65.8,139.3,65.8,139.3L65.8,139.3z M65.5,139.4
	C65.5,139.4,65.5,139.4,65.5,139.4C65.5,139.4,65.5,139.4,65.5,139.4L65.5,139.4z M65.5,139.4C65.4,139.4,65.4,139.5,65.5,139.4
	C65.4,139.5,65.4,139.4,65.5,139.4L65.5,139.4z M64.8,139.3c-0.1,0-0.2-0.1-0.4-0.1C64.6,139.2,64.7,139.3,64.8,139.3L64.8,139.3z
	 M65.9,139.3C65.9,139.3,65.9,139.3,65.9,139.3C65.9,139.3,65.9,139.3,65.9,139.3L65.9,139.3L65.9,139.3z"/>
<path d="M20.2,38.6c0.9-0.6,1.9-1.1,2.8-1.6c-0.1-1.5-0.3-3.8,0.1-5c0.7-2.3,2.8-4.2,5.3-3.7c0.1,0,0.3,0.2,0.1,0.3
	c-1.4,0.7-2.5,1.8-3.1,3.3c-0.2,0.4-0.9,3.5,0.1,3.7c0.1,0,0.2,0,0.3,0.1c1.8-0.8,3.7-1.4,5.6-2c0-1.5,0.1-3.5,0.6-4.6
	c1-2.2,3.3-3.7,5.9-3c0.1,0,0.3,0.2,0.1,0.3c-1.5,0.5-2.8,1.4-3.6,2.9c-0.2,0.4-1.2,3.3-0.2,3.7c0,0,0,0,0.1,0
	c1.8-0.4,3.6-0.7,5.5-1c0.2-1.5,0.6-3.4,1.3-4.4c1.4-2.1,4.3-3.5,7-2.5c0.1,0.1,0.2,0.3,0.1,0.3c-1.8,0.4-3.3,1.2-4.4,2.6
	c-0.3,0.4-1.8,3.1-0.9,3.7c0.1,0,0.2,0,0.3,0c1.5-0.1,3.3-0.2,5-0.1c0.4-0.9,0.9-1.7,1.4-2.2c1.6-1.7,5.3-2.3,6.5-0.9
	c0.1,0.1,0.1,0.3,0,0.3c-1.6,0.1-3.2,0.3-4.4,1.4c-0.2,0.2-0.9,0.8-1.3,1.6c2.5,0.4,4.7,1.3,5.3,2.9c0.2,0.5,0.4,1,0.3,1.6
	c0,0.2-0.3,0-0.4-0.1c-3.2-3-8.3-3.3-15.1-2.1c-6.9,1.2-12.7,3.3-18.9,6.2c2.5,2.8-1.4,5-2.7,2c-3,3.6-5.8-1.6-1.6-2.2
	C14.9,36.2,19.6,36.1,20.2,38.6L20.2,38.6z"/>
<path d="M21.1,67.1c0.8-0.6,1.9-1.1,2.7-1.7c-0.9-1.4-1.4-3.4-1.1-4.7c0.6-2.3,2-3.4,3.8-3.3c0.1,0,0.2,0.2,0.1,0.3
	c-1.2,0.8-1.4,1.9-1.8,3.5c-0.2,0.9,0.3,2.3,0.9,2.8c1.6-0.9,1.5-0.7,3.2-1.3c-0.5-1.5-0.4-3.5,0.2-4.7c0.9-2,2.5-2.7,4.1-2.4
	c0.1,0,0.2,0.2,0.1,0.3c-1.2,0.5-3.8,2.5-2.1,6.3c1.5-0.5,1.6-0.6,3.6-1c0.2-1.5,0.2-3.3,0.8-4.3c1.2-2.2,4-3.1,5.3-2.6
	c0.1,0,0.2,0.2,0.1,0.3c-0.7,0.5-1.7,0.9-2.6,2.3c-0.5,0.8-1.4,2.5-1.2,3.7c1.4-0.2,3.2-0.3,4.8-0.2c0.3-0.9,1-2,1.4-2.5
	c0.3-0.4,0.6-0.6,1.1-0.8v5.3c-2.6-0.1-5.5,0.2-8.3,0.8c-6.3,1.5-7.9,2.6-13.5,5.6c3.3,2.1,0.1,5.3-2,2.1c-3.6,4.2-6-1.2-2.2-2
	C15.7,65.2,20.4,63.4,21.1,67.1L21.1,67.1z"/>
<path d="M19.4,52.9c0.9-0.6,2.2-1,3.2-1.5c-0.1-1.5-0.3-2.8,0.1-4.1c0.8-2.3,2-3.4,3.9-3.2c0.1,0,0.3,0.2,0.1,0.3
	c-1.4,0.7-1,1.7-1.7,3.2c-0.2,0.4-0.7,2.2,0.3,2.5c0.1,0,0.2,0,0.3,0.1c1.8-0.7,1.2-0.7,3-1.1c0-1.4,0.1-3.4,0.6-4.4
	c1-2,2.9-3.1,4.6-2.6c0.1,0,0.4,0.4,0.3,0.4c-1.4,0.4-3.7,3.2-2.8,5.4c1.2-0.2,2-0.6,4.1-0.9c0.3-1.5,0.8-2.9,1.5-3.9
	c1.5-2.1,3.8-2.5,5.1-1.9c0.1,0.1,0.3,0.4,0.2,0.5c-1.8,0.4-1.8,0.2-3,1.6c-0.6,0.7-1.9,2.7-1,3.6c1.5-0.1,2.6-0.3,4.3-0.1
	c0.4-0.9,0.8-2.1,1.2-2.5c1.7-1.7,4.6-1.9,5.5-0.7c0.1,0.1,0.1,0.3,0,0.3c-1.6,0-2.1,0.5-3.4,1.6c-0.1,0.1-0.4,0.5-0.7,0.9h-0.9v2.9
	c-2.6-0.2-5.4-0.2-8,0.2c-6.9,1-9.5,2.6-15.2,5.4c2.4,2.9-1.5,4.8-2.7,1.9c-3.1,3.5-5.7-1.7-1.6-2.3C14.7,50.5,18.8,49.6,19.4,52.9
	L19.4,52.9z"/>
<g>
	<path d="M85.3,47.1v27.7c0,10.9-8.9,19.8-19.9,19.8c-11,0-19.9-8.9-19.9-19.8V47.1H85.3 M86.3,46.1H44.5v28.7
		c0,11.4,9.4,20.8,20.9,20.8c11.5,0,20.9-9.4,20.9-20.8L86.3,46.1L86.3,46.1z"/>
</g>
<path d="M64.5,66.4c0.2,0.2,0.6,0,0.8-0.3c0.3-0.5,0.3-1.2,0.3-1.8c0-0.7,0.1-1.3-0.2-2c-0.4-1.1-0.9-2.1-2.2-2.3
	c-0.2,0-0.4,0.2-0.3,0.3c0.9,0.9,1.2,0.9,1.4,2.3C64.5,64,64.4,66.4,64.5,66.4L64.5,66.4z M55.5,83.1c0.2,0,0.6-0.5,0.8-0.8
	c0.1-0.3,0.1-0.8,0.1-0.9c0-0.1-0.5,0.1-0.8,0.1c-0.3,0-0.4,0-0.8-0.1c-0.3,0-0.3-0.8-0.3-1.3c-0.1-1.1-0.1-2.2-0.1-3.3
	c0-0.3,0.1-0.7,0.3-0.8c0.3-0.2,0.8-0.2,1.2-0.1c0.8,0.1,1.5,0.5,2.3,0.7c0.4,0.1,0.9,0,1.3-0.1c0.4-0.1,0.7-0.4,1-0.5
	c0.2-0.1,0.4-0.1,0.6,0c0.6,0.3,1,1,1.7,1.2c0.8,0.3,1.7,0.1,2.5,0.2c0.7,0,1.4-0.1,2,0c0.3,0,0.8,0.1,0.8,0.4
	c0.1,0.4-0.6,0.8-0.5,1.3c0.2,0.7,0.9,1,1.3,1.6c0.1,0.2,0.1,0.5,0,0.8c-0.1,0.2-0.4,0.2-0.6,0.4c-0.2,0.3-0.2,0.6-0.4,0.9
	c-0.2,0.3-0.5,0.5-0.8,0.8c-0.6,0.5-1.2,1-1.9,1.3c-0.2,0.1-0.7-0.1-0.8,0.1c-0.2,0.4-0.4,1-0.6,1.3c-0.2,0.3-0.5,0.3-0.6,0.5
	c-0.1,0.2-0.4,0.5-0.3,0.6c0.1,0.1,1,0,1.3,0c0.3,0,0.5-0.1,0.6-0.2c0.1-0.1-0.1-0.4-0.1-0.9c-0.1-0.6,1.5-0.8,2.3-1.3
	c0.8-0.5,1.6-1.1,2.4-1.6c0.3-0.2,0.8-0.2,1.1-0.5c0.1-0.1,0.1-0.4,0.1-0.6c0-0.5-0.1-0.9-0.1-1.4c0-0.2,0-0.5,0.2-0.7
	c0.1-0.1,0.4-0.2,0.6-0.1c0.3,0.2,0.3,0.6,0.6,0.8c0.4,0.3,0.9,0.4,1.3,0.6c0.4,0.2,1,0.2,1.1,0.6c0.1,0.7-0.4,1.4-0.7,2
	c-0.2,0.3-0.5,0.5-0.7,0.8c-0.1,0.2-0.1,0.4-0.3,0.6c-0.4,0.4-0.9,0.6-1.3,1c-0.3,0.3-0.5,0.6-0.7,0.9c-0.1,0.2-0.1,0.4-0.3,0.6
	c-0.1,0.2-0.4,0.2-0.5,0.5c-0.1,0.3-0.5,1.1-0.2,1c0.3-0.1,1.9-0.3,2-0.5c0.1-0.2-0.1-0.6-0.2-1.1c-0.1-0.5,1.1-0.9,1.7-1.3
	c0.3-0.2,0.8-0.1,1.1-0.3c0.2-0.1,0.1-0.5,0.2-0.7c0.1-0.3,0.3-0.7,0.5-1c0.3-0.4,0.9-0.5,1.2-0.9c0.3-0.5,0.6-1,0.5-1.6
	c-0.1-0.4-0.6-0.6-0.9-0.9c-0.2-0.3-0.5-0.5-0.6-0.8c-0.1-0.5-0.2-1-0.1-1.4c0.2-0.6,0.7-0.9,1.1-1.4c0.3-0.4,0.7-0.8,0.8-1.3
	c0.1-0.6-0.1-1.2-0.2-1.8c0-0.1-0.1-0.3,0-0.3c0.4-0.3,0.8-0.8,1.3-0.8c0.5-0.1,0.9,0.4,1.4,0.5c0.5,0.1,1,0.1,1.5-0.1
	c0.2-0.1,0.2-0.4,0.1-0.5c-0.3-0.3-1-0.2-1.2-0.6c-0.1-0.3,0.6-0.4,0.8-0.8c0.2-0.4,0.5-0.9,0.4-1.4c0-0.2-0.4-0.2-0.5-0.1
	c-0.2,0.1-0.2,0.5-0.4,0.7c-0.2,0.1-0.4,0.2-0.6,0.2c-0.2,0-0.5-0.1-0.6-0.3c-0.1-0.2-0.2-0.5-0.1-0.6c0.4-0.3,0.9-0.1,1.3-0.3
	c0.2,0,0.4-0.1,0.5-0.3c0.1-0.3,0.1-0.6,0-0.9c-0.1-0.1-0.3-0.1-0.4-0.1c-0.2,0.1-0.3,0.3-0.5,0.3c-0.3,0-0.6-0.1-0.8-0.3
	c-0.1-0.2-0.2-0.5-0.1-0.7c0.2-0.3,0.6-0.4,0.8-0.8c0.2-0.4,0.4-1,0.3-1.4c0-0.2-0.4-0.3-0.6-0.2c-0.2,0.1-0.2,0.5-0.3,0.7
	c-0.2,0.3-0.3,0.7-0.6,0.8c-0.2,0.1-0.5-0.1-0.6-0.3c-0.1-0.4,0.1-0.7,0.3-1.1c0.1-0.4,0.3-0.8,0.6-1.1c0.3-0.3,0.7-0.5,0.9-0.8
	c0.2-0.3,0.3-0.7,0.1-0.9c-0.1-0.2-0.5,0-0.7,0.1c-0.2,0.1-0.1,0.4-0.2,0.5c-0.4,0.2-0.9,0-1.3,0.3c-0.3,0.2-0.5,0.5-0.7,0.8
	c-0.4,0.6-0.4,1.6-0.5,1.7c-0.1,0.1-0.5,0.1-0.6-0.1c-0.2-0.2,0.1-0.6-0.1-0.8c-0.2-0.2-0.5-0.1-0.7,0C75,65.6,75,65.9,75,66.2
	c0,0.4,0.1,0.9,0.3,1.3c0.3,0.6,0.9,1.1,1.3,1.7c0.4,0.6,0.9,1.1,1.2,1.8c0.2,0.4,0.2,0.9,0,1.3c-0.2,0.4-0.5,0.8-0.9,0.8
	c-0.5,0-0.9-0.6-1.4-0.9c-0.4-0.3-0.8-0.7-1.3-0.8c-1.1-0.2-2.2,0-3.4,0c-1,0-2,0.1-3,0c-0.5-0.1-1-0.2-1.4-0.6
	c-0.3-0.3-0.6-0.8-0.6-1.3c0-0.6,0.2-1.2,0.4-1.8c0.2-0.4,0.5-0.8,0.8-1c0.3-0.2,0.8-0.3,1.1-0.2c0.3,0.1,1.2,1.4,1.4,1.3
	c0.2-0.1,0.1-1.2-0.1-1.5c-0.2-0.5-0.7-0.8-0.9-1.3c-0.1-0.1,0.2-0.3,0.3-0.3c0.3,0,0.6,0.2,0.8,0.4c0.1,0.1,0.8,1,0.9,0.9
	c0.2,0-0.1-1.3-0.3-1.7c-0.2-0.5-1-0.9-1.1-1c-0.1-0.1,0-0.2,0.1-0.2c0.3,0,0.6,0.2,0.8,0.3c0.3,0.1,0.6,0.4,0.8,0.3
	c0.1-0.1,0-0.5-0.2-0.7c-0.5-0.6-1.2-1-1.8-1.6c-0.3-0.3-0.6-0.7-0.6-1.1c0-0.3,0.3-0.5,0.5-0.6c0.4-0.2,1-0.3,1.4-0.5
	c0.2-0.1,0-0.2-0.1-0.2c-0.6-0.3-1.3-0.3-1.9-0.3c-0.4,0-0.7,0.2-1.1,0.3c-0.3,0.1-0.5,0.2-0.8,0.2c-0.5,0-1,0.1-1.3-0.2
	c-0.2-0.2,0-0.6,0.2-0.8c0.1-0.2,0.4-0.4,0.6-0.6c0.1-0.1,0.6-0.3,0.4-0.3c-0.2-0.1-0.9,0-1.3,0.1c-0.4,0.1-0.7,0.2-1,0.5
	c-0.3,0.2-0.2,0.7-0.5,0.9c-0.6,0.3-0.9,0.2-1.5,0.5c-0.2,0.1-0.5,0.5-0.6,0.5c-0.8,0.1-2.3-0.3-2.4-0.2c-0.1,0.1,1.2,0.9,1.4,1.5
	c0.1,0.3-0.6-0.1-0.9-0.1c-0.5,0.1-0.9,0.1-1.4,0.3c-0.4,0.2-0.7,0.5-1,0.8c-0.3,0.3-0.4,0.7-0.8,0.9c-0.2,0.1-0.5-0.1-0.6,0.1
	c-0.1,0.2-0.2,0.6,0.1,0.6l1.3,0.1c0.3,0-0.2,0.5-0.1,0.8c0.1,0.2,0.4,0.1,0.6,0c0.2-0.1,0.3-0.4,0.5-0.5c0.2-0.2,0.5-0.3,0.8-0.3
	c0.3,0,0.8,0.1,0.9,0.4c0.1,0.3-0.2,0.6-0.3,0.9c-0.1,0.3,0.2,0.8-0.1,1c-0.7,0.7-1,0.1-2,1.4c-0.8,1.1-0.5,0.5-0.8,1.8
	c-0.1,0.3-0.1,0.6-0.3,0.8c-0.2,0.2-0.6,0.2-0.8,0.1c-0.5-0.3-0.8-0.7-1.1-1.2c-0.2-0.2-0.1-0.7-0.3-0.8c-0.3-0.2-0.8-0.2-1.2-0.1
	c-0.3,0.1-0.4,0.4-0.6,0.7c-0.4,0.5-0.7,1.1-1,1.7c-0.3,0.4-0.7,0.8-0.9,1.3c-0.1,0.2-0.1,0.5-0.2,0.8c-0.3,0.6-0.5,1.3-0.8,1.9
	c-0.1,0.2-0.4,0.4-0.5,0.7c-0.1,0.3,0,0.9,0.2,0.9c0.1,0,0.6-0.4,0.9-0.5c0.3-0.2,1-0.3,1-0.4c0-0.1-0.3-0.4-0.5-0.7
	c-0.3-0.4,0.4-1,0.7-1.5c0.1-0.2,0.3-0.2,0.4-0.4c0.2-0.4,0.2-0.9,0.4-1.3c0.3-0.5,0.5-1,0.9-1.4c0.2-0.2,0.5-0.3,0.8-0.2
	c0.4,0.3,0.5,0.8,0.7,1.2c0.2,0.3,0.4,0.6,0.5,0.9c0.1,0.3-0.2,0.7,0,0.9c0.2,0.3,0.7,0.4,1.1,0.4l0.8,0.1l0.1,1.2
	c0,0.4-0.9,0.1-1.4,0.2c-0.4,0.1-0.8,0.2-1.2,0.3c-0.4,0.1-1.1-0.2-1.2,0.2c-0.3,1.6,0.1,3.3,0.2,5c0,0.5-0.2,1.2,0.2,1.3l0.8,0.3
	c0.1,0.3,0.3,0.8,0.4,1C55,83,55.3,83.1,55.5,83.1L55.5,83.1z"/>
<path d="M81.8,51.3c0-0.3-0.2-0.5-0.7-0.5h-1.6c-0.4,0-0.7,0.2-0.7,0.5c0,0.3,0.2,0.5,0.7,0.5h0.3v3c0,0.5,0.2,0.8,0.5,0.8
	c0.3,0,0.5-0.3,0.5-0.8v-3h0.4C81.5,51.8,81.8,51.6,81.8,51.3L81.8,51.3z M77.1,52.3c0,0.4-0.2,0.6-0.6,0.6h-0.4v-1.1h0.4
	C76.9,51.8,77.1,52,77.1,52.3L77.1,52.3z M78.2,55c0-0.2-0.1-0.4-0.3-0.6l-0.7-0.9c0.6-0.1,1-0.6,1-1.3c0-0.9-0.6-1.5-1.6-1.5h-0.7
	c-0.5,0-0.7,0.2-0.7,0.7v3.2c0,0.5,0.2,0.8,0.5,0.8c0.3,0,0.5-0.3,0.5-0.8v-1.1l1.1,1.6c0.2,0.2,0.3,0.4,0.5,0.4
	C78,55.5,78.2,55.3,78.2,55L78.2,55z M73.1,53.6h-1l0.5-1.7L73.1,53.6L73.1,53.6z M74.4,55c0-0.1,0-0.2-0.1-0.3l-1-3.4
	c-0.1-0.4-0.4-0.6-0.7-0.6c-0.3,0-0.6,0.2-0.7,0.7l-1.1,3.3c0,0.1,0,0.2,0,0.3c0,0.3,0.2,0.5,0.4,0.5c0.2,0,0.4-0.2,0.5-0.5l0.1-0.5
	h1.5l0.1,0.4c0.1,0.4,0.3,0.5,0.5,0.5C74.2,55.5,74.4,55.3,74.4,55L74.4,55z M70.1,53.3c0-0.5-0.2-0.7-0.6-0.7h-0.6
	c-0.4,0-0.6,0.2-0.6,0.5c0,0.3,0.2,0.5,0.6,0.5h0.3c0,0.6-0.3,0.9-0.7,0.9c-0.5,0-0.9-0.6-0.9-1.5c0-0.9,0.4-1.4,0.9-1.4
	c0.5,0,0.8,0.5,1,0.5c0.2,0,0.4-0.2,0.4-0.5c0-0.5-0.5-1-1.4-1c-1.1,0-1.9,1-1.9,2.5c0,1.5,0.7,2.5,1.8,2.5
	C69.4,55.6,70.1,54.6,70.1,53.3L70.1,53.3z M66.4,51.3c0-0.3-0.2-0.5-0.7-0.5h-1.6c-0.4,0-0.7,0.2-0.7,0.5c0,0.3,0.2,0.5,0.7,0.5
	h0.3v3c0,0.5,0.2,0.8,0.5,0.8c0.3,0,0.5-0.3,0.5-0.8v-3h0.3C66.2,51.8,66.4,51.6,66.4,51.3L66.4,51.3z M63.2,51.3
	c0-0.3-0.2-0.5-0.7-0.5h-1.6c-0.5,0-0.7,0.2-0.7,0.5c0,0.3,0.2,0.5,0.7,0.5h0.3v3c0,0.5,0.2,0.8,0.5,0.8c0.3,0,0.5-0.3,0.5-0.8v-3
	h0.4C63,51.8,63.2,51.6,63.2,51.3L63.2,51.3z M59.7,53.4v-2c0-0.5-0.2-0.8-0.5-0.8c-0.3,0-0.5,0.3-0.5,0.8v1.9
	c0,0.8-0.3,1.2-0.8,1.2c-0.5,0-0.8-0.4-0.8-1.2v-1.9c0-0.5-0.2-0.8-0.5-0.8c-0.3,0-0.5,0.3-0.5,0.8v2c0,1.4,0.7,2.1,1.8,2.1
	C59,55.6,59.7,54.8,59.7,53.4L59.7,53.4z M55.8,51.3c0-0.3-0.2-0.5-0.7-0.5h-1.6c-0.4,0-0.7,0.2-0.7,0.5c0,0.3,0.2,0.5,0.7,0.5h0.4
	v3c0,0.5,0.2,0.8,0.5,0.8c0.3,0,0.5-0.3,0.5-0.8v-3h0.3C55.6,51.8,55.8,51.6,55.8,51.3L55.8,51.3z M52.5,54c0-0.7-0.4-1.1-1.1-1.4
	c-0.5-0.2-0.8-0.2-0.8-0.6c0-0.2,0.2-0.4,0.5-0.4c0.2,0,0.5,0.2,0.7,0.2c0.3,0,0.4-0.2,0.4-0.5c0-0.4-0.4-0.7-1.1-0.7
	c-0.9,0-1.5,0.6-1.5,1.5c0,0.7,0.4,1.1,1.2,1.3c0.4,0.2,0.7,0.3,0.7,0.6c0,0.3-0.2,0.5-0.5,0.5c-0.4,0-0.8-0.2-1-0.2
	c-0.3,0-0.5,0.2-0.5,0.5c0,0.4,0.6,0.8,1.3,0.8C51.9,55.6,52.5,54.9,52.5,54L52.5,54z"/>
<path id="Registered_Trademark" d="M138.8,10.5c0,2-1.5,3.5-3.6,3.5c-2.7-0.1-3.4-2.2-3.4-3.6c0-2.2,1.6-3.6,3.5-3.6
	C137.7,6.9,138.8,8.8,138.8,10.5L138.8,10.5z M130.6,10.3c0,1.8,1.3,4.6,4.5,4.8c2.4,0,4.9-1.6,5-4.8c0-1.6-1.4-4.5-4.5-4.6
	C132.4,5.8,130.6,8.3,130.6,10.3L130.6,10.3z M133.4,7.9V13h1.1v-2.1h0.8l1.1,2.1h1.3l-1.3-2.2c0.9-0.1,1.5-0.5,1.5-1.5
	c0-0.9-0.6-1.5-1.7-1.5L133.4,7.9L133.4,7.9z M134.5,8.7h1.6c0.5,0,0.8,0.3,0.8,0.7c0,0.3-0.3,0.7-0.8,0.7h-1.6V8.7L134.5,8.7z"/>
</svg>
