<?xml version="1.0" encoding="utf-8"?>
<!-- Generator: Adobe Illustrator 16.0.4, SVG Export Plug-In . SVG Version: 6.00 Build 0)  -->
<!DOCTYPE svg PUBLIC "-//W3C//DTD SVG 1.1//EN" "http://www.w3.org/Graphics/SVG/1.1/DTD/svg11.dtd">
<svg version="1.1" id="Ebene_1" xmlns="http://www.w3.org/2000/svg" xmlns:xlink="http://www.w3.org/1999/xlink" x="0px" y="0px"
	 width="1170px" height="445px" viewBox="0 0 1170 445" enable-background="new 0 0 1170 445" xml:space="preserve">
<g>
	<path d="M610.376,226.916c1.696-1.326,5.47-2.586,7.622-3.486c-0.06-3.214-1.38-6.222-0.603-8.867
		c1.439-4.807,4.681-6.922,7.902-7.288c0.204,0.073,0.382,0.461,0.187,0.582c-1.804,1.692-2.477,4.056-2.849,6.723
		c-0.146,1.036-0.285,4.09,0.635,6.276c1.893-0.953,6.468-2.55,8.024-2.944c0.161-3.192,0.663-6.324,1.583-8.621
		c1.813-4.51,5.797-8.056,9.819-6.02c0.218,0.112,0.378,0.534,0.162,0.608c-2.505,0.917-4.115,3.535-5.544,6.488
		c-0.421,0.87-1.834,5.686-0.206,6.678c0.028,0.021,0.056,0.04,0.085,0.058c2.88-0.582,3.361-0.326,6.463-0.582
		c0.537-3.143,1.867-5.755,3.08-7.843c1.841-3.502,6.451-6.289,10.665-3.778c0.229,0.139,0.362,0.583,0.107,0.639
		c-2.88,0.63-4.756,2.521-5.831,4.179c-0.54,0.798-3.171,4.548-1.844,6.02c0.146-0.004,0.31-0.01,0.454-0.017
		c2.48-0.072,4.262,0.419,6.949,0.91c0.772-1.855,1.463-2.125,2.262-3.125c2.854-3.507,7.821-4.748,9.455-1.395
		c0.161,0.187,0.205,0.646-0.017,0.631c-1.511,0.229-3.983,0.985-5.229,2.538c-0.322,0.331-1.123,1.204-1.874,2.856
		c3.362,2.597,5.322,4.661,6.216,8.237c0.159,0.647,0.525,4.183-0.743,2.376c-5.485-6.876-12.865-8.37-24.03-7.326
		c-11.9,1.127-17.365,2.85-29.322,9.281c6.595,5.9-3.317,11.668-4.926,3.039c-5.797,8.789-11.918-2.279-4.073-3.889
		C597.383,222.136,608.221,218.573,610.376,226.916L610.376,226.916z"/>
	<path d="M630.681,188.879c4.28-1.434,8.969-2.927,11.36-3.446c0.447-7.018,7.014-15.684,14.809-12.653
		c0.284,0.108,0.496,0.533,0.212,0.608c-1.996,0.558-8.371,6.704-6.191,10.571c1.599,0.084,5.972,0.006,7.347,0.079
		c1.729-7.739,8.357-13.134,16.029-9.629c0.294,0.137,0.474,0.583,0.154,0.638c-3.014,0.507-9.826,5.317-9.049,9.351
		c1.409,0.091,5.171,1.413,7.643,2.729c0.893-1.858,1.89-2.625,2.844-3.625c3.338-3.51,10.139-3.753,12.057-0.399
		c0.185,0.185,0.237,0.646-0.017,0.638c-2.941-0.105-5.519,0.314-7.955,2.525c-0.373,0.336-1.212,1.543-2.08,3.195
		c2.377,1.276,5.065,3.834,5.583,6.249c0.384,1.185,0.639,2.203,0.396,3.431c-0.072,0.323-0.719,0.008-0.937-0.226
		c-6.289-6.875-20.182-11.151-33.652-9.469c-9.002,1.128-17.761,3.551-25.106,6.811
		C626.573,194.054,628.781,191.578,630.681,188.879L630.681,188.879z M610.837,204.518c-0.616,0.561-1.205,1.135-1.744,1.718
		c3.243,4.354-1.853,7.941-3.356,3.492c-3.814,4.104-6.827-0.666-4.33-2.663C604.679,206.562,607.837,205.697,610.837,204.518
		L610.837,204.518z"/>
	<path d="M608.639,263.538c0.896-0.983,3.067-2.893,4.166-3.766c-3.353-5.348-1.478-12.095,1.759-12.572
		c0.166,0.073,0.35,0.441,0.215,0.565c-0.877,1.271-1.334,8.263,1.261,9.826c1.295-0.922,3.825-2.667,4.933-3.043
		c-1.895-6.383,1.443-14.951,7.778-13.563c0.168,0.094,0.346,0.51,0.201,0.592c-5.244,2.655-5.257,10.657-3.865,11.61
		c2.08-0.565,4.439-1.494,6.719-1.743c1.005-8.499,8.532-12.341,12.273-10.149c0.188,0.121,0.342,0.557,0.16,0.603
		c-2.1-1.24-9.951,6.869-7.374,9.253c1.841-0.074,3.927,0.703,5.996,1.179c0.888-4.69,7.504-8.641,10.253-5.648
		c0.152,0.179,0.241,0.614,0.08,0.605c-2.514,0.502-5.794,2.844-6.303,7.178c5.3,2.483,4.729,7.67,3.838,6.333
		c-4.961-6.639-15.623-5.534-23.698-3.838c-4.705,0.985-11.336,5.498-14.141,8.678c8.516,4.045,0.761,11.485-2.81,3.039
		c-5.896,10.369-11.652,0.938-4.811-1.903C597.05,260.393,605.784,256.056,608.639,263.538L608.639,263.538z"/>
	<path d="M523.083,255.668c-8.395-9.74-15.46-20.217-21.182-30.768h92.015v30.769L523.083,255.668L523.083,255.668z"/>
	<polygon points="638.175,105.162 705.743,105.162 705.743,131.672 638.175,131.672 	"/>
	<polygon points="705.743,64.939 685.762,57.837 662.435,53.104 636.264,47.424 611.999,45.533 593.439,45.533 593.439,73.454 
		705.662,73.454 	"/>
	<path d="M497.579,33.587c2.713-0.875,5.431-1.747,8.179-2.529c1.012-0.285,2.036-0.557,3.069-0.777
		c1.088-0.215,2.25-0.328,3.321,0.025l0.367,0.175c0.369,0.244,0.589,0.491,0.778,0.888c0.278,0.691,0.387,1.414,0.467,2.154
		c0.15,1.597,0.153,3.21,0.033,4.812c-0.11,1.264-0.26,2.555-0.777,3.727c-0.241,0.48-0.517,0.883-0.864,1.293
		c-0.277,0.299-0.563,0.562-0.88,0.821c-0.656,0.495-1.347,0.877-2.092,1.224c-1.77,0.811-3.627,1.37-5.472,1.964
		c-3.229,1.056-6.426,2.203-9.624,3.335l-0.008,5.858c-1.604,0.638-3.208,1.287-4.819,1.934V36.319
		C492.03,35.398,494.802,34.484,497.579,33.587L497.579,33.587z M494.079,46.755c3.217-1.1,6.433-2.209,9.668-3.261
		c0.986-0.322,1.985-0.624,2.944-1.021l0.746-0.418l0.331-0.248l0.298-0.278l0.26-0.311l0.221-0.339l0.261-0.608
		c0.094-0.384,0.158-0.748,0.193-1.141c0.067-0.963,0.084-1.94-0.177-2.875l-0.221-0.504l-0.241-0.311l-0.318-0.26l-0.364-0.178
		l-0.376-0.107l-0.381-0.043l-0.383,0.003c-0.975,0.116-1.934,0.41-2.869,0.683c-3.214,0.975-6.394,2.06-9.584,3.111L494.079,46.755
		L494.079,46.755z M534.733,23.508c2.155-0.404,4.318-0.765,6.501-0.956c0.711-0.063,1.409-0.094,2.133-0.051
		c0.347,0.048,0.662,0.104,1.001,0.2c0.275,0.104,0.51,0.212,0.765,0.365c0.221,0.159,0.399,0.313,0.586,0.517
		c0.169,0.233,0.306,0.454,0.432,0.715c0.153,0.378,0.254,0.742,0.339,1.134c0.246,1.349,0.312,2.718,0.375,4.083
		c0.073,1.551,0.08,3.094,0.032,4.647c-0.018,0.649-0.049,1.293-0.085,1.948c-0.078,1.192-0.146,2.396-0.416,3.561
		c-0.068,0.286-0.162,0.564-0.259,0.84c-0.189,0.439-0.404,0.807-0.679,1.196l-0.715,0.735l-0.917,0.618
		c-0.371,0.189-0.742,0.348-1.131,0.495c-1.563,0.502-3.189,0.832-4.786,1.168c-3.281,0.687-6.575,1.328-9.864,1.971
		c-1.592,0.304-3.183,0.619-4.781,0.837c-0.442,0.055-0.884,0.092-1.326,0.101l-0.996-0.109c-0.268-0.073-0.494-0.152-0.745-0.273
		l-0.541-0.426l-0.418-0.624l-0.646-3.306l-0.019-8.902c0.067-1.048,0.187-2.081,0.424-3.107l0.263-0.881
		c0.201-0.472,0.41-0.868,0.693-1.293l0.735-0.829l0.6-0.492c0.648-0.445,1.312-0.79,2.062-1.073l3.595-1.086
		C529.517,24.568,532.117,24.01,534.733,23.508L534.733,23.508z M532.231,28.076l-5.168,1.239c-0.418,0.133-0.816,0.269-1.208,0.447
		l-0.389,0.213l-0.36,0.253l-0.333,0.28l-0.298,0.315l-0.269,0.347l-0.223,0.373c-0.159,0.347-0.283,0.667-0.372,1.034
		c-0.271,1.263-0.297,2.579-0.316,3.869c-0.017,1.361-0.036,2.755,0.237,4.095l0.169,0.521l0.26,0.492l0.364,0.426l0.447,0.335
		l0.509,0.231l0.544,0.135l0.572,0.047c0.351-0.018,0.69-0.042,1.042-0.083c1.997-0.272,3.992-0.689,5.969-1.092
		c1.639-0.332,3.285-0.658,4.912-1.085c0.349-0.096,0.681-0.21,1.029-0.333l0.535-0.26l0.483-0.315l0.43-0.376l0.369-0.431
		l0.298-0.48l0.23-0.522l0.154-0.536c0.267-1.46,0.243-2.946,0.226-4.418c-0.015-0.78-0.031-1.552-0.105-2.328l-0.09-0.62
		c-0.095-0.43-0.209-0.806-0.378-1.215l-0.194-0.352l-0.234-0.319l-0.287-0.281l-0.332-0.229l-0.357-0.163l-0.378-0.097
		l-0.827-0.093c-0.856-0.004-1.693,0.069-2.54,0.205C534.974,27.524,533.604,27.803,532.231,28.076L532.231,28.076z M565.228,19.795
		c2.492-0.191,4.994-0.359,7.503-0.431c0.533-0.012,1.074-0.028,1.615-0.012c0.599,0.02,1.104,0.148,1.641,0.404
		c0.193,0.104,0.371,0.218,0.548,0.345c0.405,0.323,0.655,0.647,0.905,1.092c0.162,0.347,0.284,0.679,0.379,1.05
		c0.154,0.832,0.164,1.705,0.182,2.543c0.016,1.06,0.013,2.115-0.077,3.166c-0.04,0.418-0.085,0.825-0.193,1.226l-0.161,0.424
		c-0.155,0.296-0.298,0.527-0.502,0.785l-0.451,0.4c-0.218,0.141-0.429,0.26-0.659,0.359c-0.345,0.128-0.691,0.216-1.046,0.295
		l-2.729,0.565l2.695,1.528c0.364,0.256,0.67,0.517,0.97,0.844l0.323,0.396c0.428,0.6,0.72,1.203,0.96,1.899
		c0.376,1.18,0.57,2.404,0.614,3.639c-1.592,0.071-3.184,0.138-4.763,0.221c-0.078-0.872-0.248-1.712-0.48-2.552l-0.363-0.951
		l-0.243-0.453l-0.278-0.43l-0.336-0.375l-0.411-0.344l-0.48-0.266c-0.299-0.085-0.577-0.16-0.884-0.211
		c-0.634-0.077-1.278-0.021-1.916,0.021c-3.079,0.227-6.149,0.48-9.22,0.778l-1.156,0.112v5.904
		c-1.615,0.174-3.224,0.352-4.823,0.541V21.042C556.658,20.55,560.939,20.12,565.228,19.795L565.228,19.795z M557.216,31.981
		c3.196-0.304,6.409-0.578,9.607-0.826c1.106-0.084,2.206-0.169,3.304-0.285c0.319-0.036,0.624-0.099,0.939-0.173l0.371-0.124
		l0.353-0.17l0.317-0.212l0.291-0.26l0.247-0.305l0.181-0.332c0.098-0.26,0.17-0.504,0.226-0.777
		c0.138-0.903,0.146-1.816,0.057-2.723c-0.049-0.347-0.109-0.648-0.23-0.984l-0.174-0.327l-0.232-0.309l-0.288-0.263l-0.318-0.201
		l-0.347-0.155l-0.367-0.098c-0.312-0.055-0.61-0.087-0.93-0.087c-1.579,0.013-3.164,0.153-4.731,0.269
		c-2.764,0.208-5.518,0.465-8.273,0.714L557.216,31.981L557.216,31.981z M591.168,36.903c1.812,0.012,3.636,0.012,5.455,0.012
		c1.246,0,2.513,0.045,3.757-0.083c0.267-0.037,0.533-0.083,0.8-0.14c0.256-0.075,0.469-0.158,0.701-0.278l0.281-0.216l0.238-0.272
		l0.176-0.299l0.119-0.314l0.145-0.65l0.027-0.967l-0.151-1.084l-0.086-0.269l-0.146-0.285l-0.216-0.273l-0.29-0.243l-0.315-0.178
		l-0.681-0.237l-1.23-0.165l-1.475-0.024l-10.064-0.037c-0.98-0.002-1.976-0.013-2.948-0.172c-0.265-0.06-0.506-0.119-0.748-0.229
		l-0.312-0.177l-0.271-0.2l-0.25-0.226l-0.226-0.262l-0.194-0.294c-0.213-0.405-0.371-0.79-0.477-1.239
		c-0.225-1.109-0.25-2.275-0.232-3.409c0.031-1.377,0.104-2.834,0.693-4.1c0.13-0.227,0.258-0.42,0.432-0.615
		c0.675-0.625,1.629-0.86,2.509-1.053c0.933-0.187,1.892-0.207,2.845-0.233c2.181-0.05,4.367-0.038,6.553-0.047
		c3.624,0.042,7.251,0.093,10.875,0.175v3.215c-4.796-0.094-9.6-0.188-14.398-0.154c-1.092,0.012-2.182,0.021-3.263,0.127
		c-0.248,0.029-0.466,0.074-0.695,0.133l-0.4,0.187l-0.347,0.307L587.122,23l-0.134,0.369l-0.09,0.674
		c-0.017,0.554-0.017,1.105,0.025,1.654l0.073,0.371l0.137,0.406l0.276,0.418l0.469,0.335l0.492,0.094
		c5.042,0.087,10.077,0.222,15.111,0.406l0.621,0.074c0.776,0.194,1.567,0.549,2.156,1.091c0.269,0.287,0.479,0.575,0.647,0.931
		c0.462,1.122,0.558,2.396,0.597,3.596c0.016,1.387-0.049,2.792-0.435,4.134c-0.074,0.193-0.136,0.384-0.222,0.572l-0.256,0.44
		c-0.21,0.275-0.404,0.48-0.669,0.704c-0.47,0.324-0.953,0.552-1.515,0.683c-0.812,0.165-1.668,0.213-2.5,0.262
		c-2.465,0.127-4.935,0.124-7.402,0.11c-3.883,0.021-7.756,0.074-11.633,0.144c-0.012-1.137-0.012-2.278-0.012-3.416
		c2.618-0.067,5.229-0.12,7.837-0.145h0.466v-0.004H591.168z M624.306,41.372c-2.029-0.174-4.07-0.344-6.082-0.639
		c-0.89-0.143-1.772-0.304-2.618-0.581c-0.441-0.153-0.848-0.343-1.24-0.58c-0.281-0.179-0.509-0.364-0.753-0.583
		c-0.217-0.234-0.399-0.455-0.564-0.724c-0.161-0.292-0.283-0.571-0.388-0.881c-0.309-1.122-0.37-2.302-0.421-3.45
		c-0.092-2.851-0.111-5.712,0.01-8.566l0.041-0.71c0.089-1.312,0.204-2.614,0.992-3.723c0.258-0.323,0.535-0.569,0.901-0.782
		c0.99-0.522,2.18-0.687,3.286-0.775c1.169-0.078,2.341-0.07,3.521-0.05c2.347,0.06,4.695,0.182,7.033,0.391
		c3.367,0.3,6.735,0.619,10.097,0.978v3.765c-4.452-0.435-8.921-0.819-13.379-1.109c-1.447-0.091-2.91-0.194-4.357-0.11
		l-0.709,0.093l-0.482,0.146l-0.447,0.219l-0.411,0.287l-0.353,0.363l-0.277,0.416l-0.211,0.461c-0.089,0.3-0.17,0.584-0.234,0.893
		c-0.233,1.444-0.251,2.921-0.233,4.373c0.01,1.204,0.031,2.425,0.243,3.613c0.055,0.297,0.136,0.569,0.231,0.86l0.227,0.45
		l0.298,0.41l0.354,0.351l0.413,0.293l0.443,0.236l0.476,0.177c0.392,0.097,0.777,0.175,1.171,0.232
		c1.325,0.187,2.672,0.297,4.012,0.412c4.537,0.362,9.069,0.825,13.609,1.327c0.005,1.154,0.021,2.309,0.036,3.458v0.364
		c-2.84-0.296-5.68-0.596-8.529-0.843C628.119,41.667,626.204,41.532,624.306,41.372L624.306,41.372z M654.879,31.799
		c3.71,0.658,7.41,1.386,11.111,2.13v-8.474c1.722,0.363,3.44,0.754,5.163,1.147v21.858c-1.723-0.415-3.441-0.822-5.163-1.225
		v-8.612c-2.954-0.608-5.91-1.203-8.87-1.754c-2.748-0.513-5.501-0.994-8.247-1.46v8.504c-1.725-0.273-3.442-0.537-5.167-0.787
		v-21.42c1.725,0.224,3.45,0.449,5.167,0.703v8.365C650.873,31.111,652.875,31.448,654.879,31.799L654.879,31.799z M694.165,33.221
		c1.817,0.6,3.647,1.207,5.47,1.833v3.59c-5.326-1.828-10.69-3.545-16.082-5.161l-1.785-0.536v5.448
		c3.93,1.171,7.856,2.379,11.775,3.658c1.727,0.563,3.455,1.145,5.173,1.737v3.239c-5.037-1.706-10.094-3.311-15.19-4.828
		l-1.757-0.527v5.822c3.788,1.134,7.566,2.302,11.324,3.512c2.222,0.719,4.445,1.452,6.659,2.201v3.737
		c-7.241-2.399-14.528-4.639-21.858-6.719l-0.849-0.237V28.074C682.801,29.657,688.499,31.381,694.165,33.221L694.165,33.221z"/>
	<path d="M488.949,194.139c-3.231-10.688-4.92-20.732-5.043-29.348h67.021c0.222,11.333,4.86,21.67,12.273,29.348H488.949
		L488.949,194.139z"/>
	<path d="M480.968,32.605l1.303-0.483c37.372-13.806,74.73-21.024,112.088-21.651c37.354-0.628,74.725,5.333,112.082,17.887
		l1.369,0.454l-0.017,1.416c-0.307,44.909-0.614,89.827-0.929,134.743c-0.138,23.239-12.326,55.816-35.269,84.306
		c-18.545,23.017-44.133,43.433-76.114,54.166l-1.115,0.046c-32.32-8.296-57.842-27.871-76.353-50.81
		c-23.831-29.537-36.033-64.733-36.104-88.647v-0.004v0.004v-0.004c-0.158-21.674-0.315-43.353-0.469-65.023L480.968,32.605
		L480.968,32.605z M524.605,254.416h68.05v-27.312h-87.284c-0.276-0.483-0.552-0.969-0.818-1.453
		c4.655,8.358,10.173,16.661,16.543,24.563C522.239,251.63,523.41,253.034,524.605,254.416L524.605,254.416z M592.656,257.865
		h-64.988c16.758,18.362,38.474,33.655,64.988,41.086V257.865L592.656,257.865z M527.423,257.6
		c-0.177-0.198-0.355-0.395-0.533-0.589C527.068,257.205,527.245,257.401,527.423,257.6L527.423,257.6z M526.314,256.364
		c-0.054-0.056-0.094-0.105-0.145-0.158C526.219,256.258,526.26,256.314,526.314,256.364L526.314,256.364z M503.461,223.651h89.198
		v-16.138c0.697,0.031,1.401,0.048,2.109,0.048c0.455,0,0.909-0.01,1.359-0.026v91.522c-0.089,0.025-0.163,0.062-0.25,0.091
		c30.412-10.607,54.838-30.23,72.636-52.327c22.083-27.416,33.94-58.572,34.385-80.978c-0.011,0.068-0.011,0.136-0.011,0.205
		h-64.321c0.03-0.693,0.055-1.392,0.055-2.095v-1.355h64.3c0.077-9.578,0.138-19.152,0.198-28.732h-64.498v-3.445h64.532
		c0.062-7.752,0.1-15.498,0.157-23.243h-64.687v-3.354h-0.46v-0.1h65.172c0.072-9.355,0.134-18.713,0.197-28.069H595.186v28.171
		h-3.467V47.109c-35.638,0.645-71.349,7.723-107.133,21.649l-0.099-3.662c36.827-14.177,73.586-21.19,110.271-21.474
		c36.362-0.285,72.654,6.035,108.869,18.525c-0.008,1.207-0.016,2.42-0.03,3.63c0.088-11.38,0.159-22.758,0.25-34.138
		c-36.46-12.088-72.939-17.832-109.404-17.219c-36.934,0.622-73.863,7.753-110.771,21.388l1.759,63.182
		c0.153,21.226,0.309,42.448,0.455,63.679c0-0.021,0.005-0.041,0-0.063h65.056v1.357c0,0.699,0.015,1.402,0.053,2.092h-65.076
		c0-0.007,0-0.016-0.004-0.03c0.248,8.047,1.855,17.307,4.796,27.143c-0.029-0.092-0.055-0.179-0.082-0.269h71.416
		c0.608,0.688,1.243,1.35,1.898,1.995l2.178,1.455h-74.423C494.567,205.193,498.492,214.443,503.461,223.651L503.461,223.651z
		 M504.495,225.542c-0.019-0.03-0.037-0.069-0.059-0.1C504.457,225.473,504.477,225.51,504.495,225.542L504.495,225.542z
		 M504.373,225.328c-0.059-0.105-0.113-0.21-0.169-0.308C504.26,225.125,504.319,225.223,504.373,225.328L504.373,225.328z
		 M503.814,224.303c-0.017-0.033-0.036-0.066-0.053-0.096C503.776,224.237,503.798,224.271,503.814,224.303L503.814,224.303z
		 M491.506,195.738c-0.058-0.178-0.116-0.358-0.174-0.536C491.39,195.378,491.449,195.561,491.506,195.738L491.506,195.738z
		 M491.095,194.447c-0.067-0.222-0.131-0.433-0.198-0.643C490.964,194.014,491.03,194.228,491.095,194.447L491.095,194.447z
		 M485.887,165.176c0-0.028,0-0.053-0.004-0.089C485.887,165.123,485.887,165.148,485.887,165.176L485.887,165.176z
		 M485.873,162.974c0-0.007,0-0.019,0-0.031C485.873,162.954,485.873,162.966,485.873,162.974L485.873,162.974z M702.915,163.334
		c0,0.037,0,0.076,0,0.109C702.915,163.41,702.915,163.371,702.915,163.334L702.915,163.334z M702.908,163.858
		c0,0.061,0,0.117,0,0.175C702.908,163.975,702.908,163.919,702.908,163.858L702.908,163.858z M702.908,164.074
		c0,0.039,0,0.077,0,0.109C702.908,164.146,702.908,164.105,702.908,164.074L702.908,164.074z M702.908,164.667
		c0,0.032-0.01,0.068-0.01,0.101C702.908,164.735,702.908,164.704,702.908,164.667L702.908,164.667z M702.908,164.808
		c0,0.049,0,0.097,0,0.146C702.908,164.905,702.908,164.857,702.908,164.808L702.908,164.808z M702.908,164.954
		c0,0.015,0,0.031,0,0.053C702.908,164.985,702.908,164.969,702.908,164.954L702.908,164.954z M702.908,164.667
		c0-0.003,0-0.003,0-0.007c0-0.012,0-0.028,0-0.036c0-0.009,0-0.025,0-0.042c0-0.019,0-0.041,0-0.061c0-0.003,0-0.007,0-0.012
		c0-0.008,0-0.026,0-0.033c0-0.007,0-0.007,0-0.007c0-0.007,0-0.024,0-0.031c0-0.01,0-0.026,0-0.038c0-0.004,0-0.007,0-0.007
		V164.667L702.908,164.667z M702.908,164.328c0-0.012,0-0.03,0-0.038c0-0.023,0-0.038,0-0.063c0-0.004,0-0.008,0-0.012
		c0-0.013,0-0.024,0-0.035V164.328L702.908,164.328z M702.915,162.853c0-0.007,0-0.02,0-0.035c0-0.02,0-0.041,0-0.061
		c0-0.008,0-0.008,0-0.015s0-0.018,0-0.032c0,0,0,0,0-0.007V162.853L702.915,162.853z M703.324,104.199c0,0.008,0,0.013,0,0.021
		C703.324,104.208,703.324,104.204,703.324,104.199L703.324,104.199z M595.168,72.206h108.375c0,0.572-0.008,1.146-0.008,1.718
		c0.02-2.713,0.034-5.429,0.05-8.145c-36.061-12.566-72.2-18.948-108.408-18.712L595.168,72.206L595.168,72.206z M703.532,73.933
		c-0.005,0.271-0.005,0.534-0.005,0.803C703.529,74.466,703.529,74.204,703.532,73.933L703.532,73.933z M703.521,74.918
		c0,0.023,0,0.057,0,0.08C703.521,74.975,703.521,74.941,703.521,74.918L703.521,74.918z M703.521,75.014c0,0.195,0,0.384,0,0.578
		C703.521,75.399,703.521,75.209,703.521,75.014L703.521,75.014z M595.733,299.193c-0.007,0.003-0.007,0.003-0.017,0.007
		C595.727,299.196,595.727,299.196,595.733,299.193L595.733,299.193z M594.991,299.456c-0.009,0-0.017,0.005-0.026,0.007
		C594.975,299.461,594.982,299.456,594.991,299.456L594.991,299.456z M594.949,299.468c-0.052,0.021-0.104,0.036-0.161,0.057
		C594.836,299.504,594.897,299.488,594.949,299.468L594.949,299.468z M593.593,299.196c-0.264-0.063-0.517-0.138-0.771-0.211
		C593.076,299.059,593.329,299.133,593.593,299.196L593.593,299.196z M595.812,299.168c0.011-0.004,0.011-0.004,0.029-0.007
		c0.007,0,0.026-0.01,0.032-0.013L595.812,299.168L595.812,299.168z"/>
	<path d="M500.119,87.971c1.933-1.224,3.883-2.359,5.866-3.409c-0.285-3.094-0.628-7.916,0.212-10.524
		c1.53-4.774,5.92-8.733,11.062-7.848c0.277,0.05,0.54,0.41,0.289,0.541c-2.899,1.532-5.19,3.79-6.482,6.98
		c-0.384,0.941-1.811,7.299,0.303,7.826c0.22,0.053,0.442,0.09,0.672,0.109c3.773-1.637,7.666-3.019,11.708-4.161
		c-0.016-3.091,0.114-7.418,1.156-9.718c2.039-4.513,7.024-7.824,12.39-6.229c0.284,0.085,0.532,0.479,0.259,0.579
		c-3.203,1.107-5.824,3.025-7.474,6.01c-0.489,0.879-2.558,6.972-0.375,7.788c0.043,0.013,0.083,0.029,0.121,0.041
		c3.702-0.825,7.542-1.486,11.554-2.02c0.479-3.081,1.295-7.11,2.723-9.231c2.965-4.408,8.978-7.375,14.641-5.337
		c0.307,0.107,0.514,0.529,0.202,0.602c-3.708,0.873-6.9,2.607-9.191,5.497c-0.649,0.821-3.688,6.43-1.858,7.729
		c0.199-0.022,0.393-0.041,0.586-0.058c3.225-0.298,6.86-0.399,10.384-0.169c0.866-1.863,1.85-3.639,2.845-4.676
		c3.457-3.641,11.171-4.907,13.53-1.821c0.225,0.163,0.303,0.605,0.024,0.613c-3.281,0.128-6.679,0.616-9.231,2.943
		c-0.392,0.352-1.785,1.782-2.639,3.44c5.32,0.862,9.76,2.705,11.162,6.073c0.46,1.115,0.79,2.081,0.623,3.276
		c-0.042,0.315-0.704,0.058-0.938-0.157c-6.747-6.187-17.356-6.876-31.723-4.372c-14.455,2.518-26.639,6.816-39.569,12.961
		c5.229,5.878-2.987,10.415-5.656,4.218c-6.261,7.523-12.132-3.385-3.454-4.687C488.905,82.998,498.807,82.731,500.119,87.971
		L500.119,87.971z"/>
	<path d="M501.863,147.694c1.725-1.308,3.927-2.408,5.703-3.542c-1.846-2.905-2.878-7.139-2.209-9.792
		c1.219-4.842,4.204-7.053,7.915-6.854c0.255,0.041,0.504,0.388,0.28,0.529c-2.597,1.657-3.015,3.886-3.753,7.244
		c-0.391,1.813,0.585,4.848,1.922,5.874c3.34-1.791,3.234-1.543,6.744-2.809c-1.04-3.146-0.763-7.277,0.465-9.918
		c1.975-4.237,5.263-5.756,8.649-5.072c0.259,0.072,0.483,0.437,0.249,0.54c-2.582,1.116-7.871,5.29-4.44,13.24
		c3.214-1.136,3.391-1.313,7.459-2.199c0.316-3.103,0.4-6.823,1.626-9.012c2.54-4.542,8.355-6.602,11.058-5.527
		c0.283,0.098,0.484,0.51,0.201,0.6c-1.534,1.034-3.494,1.789-5.477,4.779c-1.068,1.613-3.039,5.304-2.474,7.777
		c2.936-0.437,6.725-0.594,9.961-0.514c0.72-1.899,2.093-4.246,2.958-5.32c0.59-0.743,1.358-1.26,2.226-1.603v11.19
		c-5.539-0.271-11.628,0.343-17.443,1.725c-13.139,3.132-16.548,5.502-28.242,11.774c7.024,4.397,0.218,11.106-4.108,4.458
		c-7.637,8.702-12.519-2.522-4.622-4.185C490.584,143.844,500.375,139.962,501.863,147.694L501.863,147.694z"/>
	<path d="M498.448,117.943c1.965-1.177,4.67-2.083,6.675-3.094c-0.219-3.1-0.632-5.924,0.269-8.525
		c1.642-4.735,4.106-7.142,8.139-6.682c0.272,0.059,0.529,0.424,0.277,0.55c-2.937,1.462-2.176,3.482-3.541,6.649
		c-0.406,0.93-1.432,4.71,0.667,5.28c0.221,0.061,0.445,0.103,0.673,0.126c3.753-1.542,2.438-1.382,6.333-2.391
		c0.055-2.958,0.269-7.103,1.319-9.28c2.052-4.279,5.988-6.428,9.627-5.514c0.272,0.088,0.865,0.836,0.6,0.921
		c-2.883,0.929-7.853,6.771-5.8,11.4c2.543-0.425,4.191-1.221,8.67-1.81c0.556-3.071,1.637-6.174,3.116-8.262
		c3.065-4.339,7.873-5.167,10.745-3.907c0.308,0.114,0.688,0.898,0.364,0.965c-3.722,0.788-3.846,0.449-6.204,3.289
		c-1.268,1.531-3.888,5.588-1.992,7.461c3.223-0.23,5.4-0.606,8.916-0.299c0.909-1.838,1.576-4.323,2.585-5.34
		c3.539-3.56,9.641-3.918,11.559-1.509c0.227,0.169,0.296,0.611,0.013,0.611c-3.285,0.056-4.501,1.019-7.11,3.281
		c-0.264,0.226-0.888,0.991-1.552,1.952h-1.875v6.162c-5.437-0.476-11.252-0.315-16.8,0.516c-14.51,2.19-19.85,5.487-31.827,11.333
		c5.092,5.996-3.218,10.161-5.749,3.907c-6.439,7.377-12.052-3.668-3.346-4.768C488.445,113.079,497.079,111.036,498.448,117.943
		L498.448,117.943z"/>
	<g>
		<path d="M636.547,105.894v58.058c0,22.907-18.742,41.54-41.787,41.54c-23.04,0-41.777-18.633-41.777-41.54v-58.058H636.547
			 M638.613,103.823h-87.694v60.129c0,23.899,19.662,43.608,43.848,43.608c24.191,0,43.849-19.709,43.849-43.608v-60.129H638.613z"
			/>
	</g>
	<path d="M592.849,146.39c0.42,0.369,1.293-0.053,1.589-0.529c0.69-1.14,0.621-2.529,0.707-3.863
		c0.093-1.462,0.125-2.82-0.355-4.214c-0.815-2.388-1.882-4.314-4.589-4.738c-0.319-0.052-0.934,0.462-0.703,0.705
		c1.79,1.865,2.489,1.812,3.004,4.739C592.999,141.307,592.712,146.27,592.849,146.39L592.849,146.39z M573.958,181.333
		c0.396,0.077,1.285-1.11,1.591-1.757c0.307-0.642,0.25-1.77,0.178-1.927c-0.073-0.164-1.059,0.175-1.592,0.175
		c-0.532,0-0.872-0.095-1.59-0.175c-0.72-0.08-0.623-1.729-0.707-2.632c-0.211-2.28-0.312-4.574-0.178-6.852
		c0.043-0.63,0.169-1.424,0.707-1.754c0.712-0.429,1.661-0.315,2.473-0.174c1.641,0.278,3.135,1.137,4.767,1.401
		c0.93,0.156,1.915,0.058,2.829-0.173c0.771-0.187,1.364-0.817,2.123-1.05c0.394-0.126,0.869-0.19,1.236,0
		c1.276,0.659,2.157,2.022,3.531,2.456c1.688,0.534,3.535,0.286,5.299,0.351c1.407,0.047,2.845-0.203,4.234,0
		c0.646,0.096,1.641,0.234,1.764,0.881c0.188,0.92-1.303,1.716-1.061,2.634c0.369,1.366,1.972,2.083,2.65,3.333
		c0.255,0.465,0.234,1.11,0,1.579c-0.23,0.446-0.937,0.477-1.24,0.877c-0.424,0.569-0.473,1.349-0.877,1.933
		c-0.429,0.606-1,1.12-1.592,1.575c-1.293,1.011-2.609,2.046-4.056,2.812c-0.477,0.251-1.366-0.307-1.594,0.174
		c-0.419,0.875-0.813,2.007-1.234,2.633c-0.427,0.625-0.946,0.662-1.243,1.049c-0.295,0.392-0.743,1.104-0.526,1.231
		c0.22,0.125,2.141,0.085,2.827,0c0.691-0.089,1.123-0.161,1.327-0.332c0.224-0.177-0.147-0.763-0.267-1.955
		c-0.113-1.191,3.216-1.697,4.767-2.634c1.745-1.05,3.362-2.295,5.114-3.335c0.725-0.428,1.671-0.485,2.302-1.051
		c0.299-0.284,0.178-0.815,0.178-1.23c0-0.998-0.225-1.98-0.178-2.981c0.022-0.484,0.011-1.063,0.355-1.402
		c0.284-0.296,0.869-0.38,1.232-0.18c0.595,0.332,0.691,1.188,1.233,1.581c0.787,0.565,1.784,0.796,2.657,1.229
		c0.775,0.384,2.152,0.373,2.298,1.229c0.238,1.466-0.78,2.874-1.42,4.213c-0.315,0.68-0.996,1.128-1.404,1.759
		c-0.25,0.371-0.231,0.903-0.533,1.229c-0.782,0.811-1.853,1.312-2.654,2.106c-0.573,0.565-1.104,1.2-1.412,1.93
		c-0.178,0.409-0.258,0.839-0.532,1.228c-0.273,0.388-0.812,0.499-1.059,1.051c-0.255,0.553-1.002,2.22-0.354,2.109
		c0.645-0.109,4.086-0.728,4.232-1.051c0.142-0.331-0.187-1.183-0.355-2.286c-0.169-1.101,2.259-1.899,3.531-2.632
		c0.695-0.398,1.664-0.205,2.303-0.702c0.375-0.302,0.17-0.957,0.346-1.401c0.284-0.727,0.542-1.515,1.063-2.106
		c0.683-0.789,1.889-1.061,2.477-1.934c0.647-0.964,1.26-2.181,1.061-3.337c-0.156-0.897-1.347-1.24-1.939-1.931
		c-0.471-0.541-1.035-1.07-1.24-1.753c-0.286-0.959-0.514-2.046-0.179-2.99c0.415-1.178,1.56-1.964,2.301-2.983
		c0.613-0.854,1.534-1.603,1.768-2.634c0.269-1.208-0.258-2.457-0.354-3.685c-0.022-0.238-0.177-0.548,0-0.703
		c0.833-0.728,1.722-1.62,2.824-1.758c0.998-0.126,1.831,0.908,2.831,1.055c1.043,0.15,2.18,0.187,3.187-0.178
		c0.336-0.122,0.428-0.8,0.177-1.055c-0.656-0.65-2.201-0.352-2.481-1.229c-0.226-0.705,1.241-0.925,1.598-1.579
		c0.486-0.915,0.947-1.947,0.885-2.991c-0.022-0.355-0.768-0.362-1.062-0.168c-0.47,0.299-0.458,1.049-0.894,1.406
		c-0.318,0.274-0.804,0.378-1.229,0.353c-0.444-0.038-0.957-0.179-1.243-0.527c-0.254-0.323-0.519-1.002-0.179-1.231
		c0.799-0.525,1.907-0.274,2.828-0.525c0.388-0.101,0.914-0.168,1.062-0.525c0.255-0.589,0.255-1.334,0-1.93
		c-0.111-0.275-0.594-0.251-0.879-0.178c-0.416,0.114-0.633,0.704-1.063,0.704c-0.577,0-1.219-0.259-1.592-0.704
		c-0.307-0.36-0.375-0.979-0.177-1.402c0.322-0.674,1.28-0.906,1.592-1.579c0.432-0.922,0.747-1.996,0.525-2.991
		c-0.085-0.414-0.856-0.55-1.229-0.346c-0.467,0.251-0.433,0.958-0.712,1.405c-0.375,0.606-0.578,1.471-1.238,1.754
		c-0.436,0.187-1.121-0.242-1.233-0.702c-0.178-0.76,0.251-1.556,0.53-2.288c0.312-0.804,0.703-1.6,1.24-2.279
		c0.533-0.688,1.502-1.002,1.938-1.758c0.331-0.561,0.553-1.402,0.176-1.93c-0.261-0.383-1.008-0.077-1.414,0.175
		c-0.332,0.21-0.168,0.885-0.524,1.054c-0.866,0.41-1.984,0.078-2.829,0.526c-0.662,0.354-1.015,1.118-1.415,1.759
		c-0.742,1.175-0.785,3.28-1.064,3.513c-0.307,0.267-0.986,0.155-1.229-0.174c-0.348-0.476,0.218-1.322-0.178-1.757
		c-0.316-0.348-1.055-0.294-1.42,0c-0.434,0.354-0.528,1.025-0.528,1.584c0,0.893,0.112,1.833,0.528,2.632
		c0.67,1.3,1.799,2.319,2.654,3.514c0.856,1.204,1.954,2.304,2.469,3.688c0.337,0.877,0.389,1.951,0,2.809
		c-0.332,0.768-1.103,1.641-1.935,1.579c-1.143-0.084-1.866-1.33-2.831-1.932c-0.917-0.568-1.758-1.408-2.83-1.578
		c-2.32-0.374-4.711,0-7.062,0c-2.119,0-4.251,0.285-6.357,0c-1.017-0.137-2.079-0.521-2.831-1.229
		c-0.702-0.672-1.181-1.669-1.237-2.635c-0.067-1.264,0.355-2.536,0.891-3.688c0.371-0.832,0.97-1.645,1.759-2.11
		c0.61-0.356,1.59-0.61,2.247-0.356c0.654,0.255,2.553,2.936,3.001,2.792c0.439-0.146,0.146-2.424-0.124-3.136
		c-0.401-1.067-1.56-1.736-1.944-2.81c-0.107-0.308,0.376-0.721,0.716-0.694c0.649,0.039,1.277,0.43,1.761,0.874
		c0.26,0.237,1.597,2.06,1.948,1.971c0.346-0.09-0.158-2.74-0.534-3.547c-0.502-1.097-2.103-1.917-2.234-2.179
		c-0.112-0.23,0.035-0.436,0.284-0.456c0.611-0.048,1.188,0.315,1.771,0.525c0.544,0.201,1.309,0.845,1.596,0.699
		c0.272-0.141-0.043-1.034-0.35-1.401c-1.092-1.261-2.619-2.088-3.709-3.338c-0.572-0.649-1.186-1.42-1.238-2.287
		c-0.025-0.533,0.567-1.002,1.071-1.228c0.869-0.393,2.058-0.586,2.871-1.08c0.316-0.177,0.094-0.362-0.238-0.5
		c-1.27-0.527-2.683-0.704-4.056-0.704c-0.802,0-1.527,0.462-2.292,0.704c-0.536,0.169-1.031,0.524-1.598,0.524
		c-0.953,0-2.124,0.125-2.826-0.524c-0.437-0.405,0.08-1.229,0.355-1.753c0.271-0.512,0.809-0.842,1.234-1.23
		c0.276-0.255,1.212-0.594,0.881-0.703c-0.321-0.114-1.906-0.054-2.823,0.174c-0.771,0.189-1.544,0.512-2.116,1.056
		c-0.544,0.5-0.433,1.559-1.07,1.929c-1.204,0.699-1.809,0.452-3.07,1.051c-0.335,0.161-0.965,1.006-1.333,1.055
		c-1.641,0.218-4.775-0.61-4.946-0.348c-0.161,0.257,2.517,1.793,3.01,3.159c0.219,0.606-1.297-0.252-1.944-0.179
		c-0.96,0.105-1.963,0.272-2.831,0.703c-0.821,0.413-1.467,1.111-2.117,1.758c-0.594,0.584-0.924,1.434-1.595,1.931
		c-0.331,0.247-0.95-0.11-1.168,0.239c-0.263,0.391-0.364,1.312,0.108,1.341l2.83,0.175c0.532,0.036-0.47,1.143-0.176,1.58
		c0.226,0.339,0.862,0.168,1.237,0c0.448-0.211,0.638-0.777,1.058-1.051c0.48-0.323,1.009-0.731,1.588-0.704
		c0.711,0.04,1.633,0.251,1.947,0.882c0.299,0.593-0.42,1.271-0.535,1.93c-0.111,0.695,0.341,1.62-0.178,2.106
		c-1.506,1.418-2.002,0.218-4.229,2.985c-1.782,2.208-0.99,1.01-1.588,3.863c-0.117,0.564-0.243,1.249-0.71,1.583
		c-0.479,0.34-1.255,0.461-1.771,0.169c-0.971-0.549-1.641-1.543-2.295-2.456c-0.368-0.509-0.164-1.426-0.708-1.754
		c-0.703-0.424-1.683-0.43-2.476-0.175c-0.594,0.2-0.889,0.894-1.236,1.412c-0.771,1.128-1.365,2.367-2.121,3.51
		c-0.603,0.91-1.422,1.677-1.938,2.634c-0.264,0.477-0.143,1.086-0.356,1.579c-0.595,1.351-1.096,2.734-1.772,4.041
		c-0.263,0.516-0.941,0.831-1.059,1.405c-0.137,0.638,0.101,1.883,0.354,1.931c0.256,0.048,1.281-0.735,1.947-1.055
		c0.688-0.328,2.028-0.662,2.118-0.877c0.09-0.217-0.704-0.935-1.06-1.406c-0.694-0.922,0.84-2.156,1.41-3.159
		c0.206-0.364,0.699-0.509,0.885-0.882c0.421-0.823,0.468-1.805,0.881-2.633c0.533-1.058,1.082-2.165,1.947-2.989
		c0.401-0.364,1.146-0.659,1.592-0.347c0.775,0.545,0.945,1.636,1.413,2.46c0.36,0.633,0.864,1.225,1.066,1.931
		c0.163,0.618-0.412,1.434,0,1.931c0.51,0.635,1.476,0.8,2.295,0.875l1.771,0.178l0.177,2.456c0.066,0.942-1.899,0.17-2.836,0.357
		c-0.84,0.161-1.637,0.517-2.473,0.699c-0.808,0.174-2.318-0.461-2.469,0.35c-0.674,3.452,0.161,7.022,0.352,10.537
		c0.048,0.946-0.521,2.444,0.353,2.81l1.739,0.722c0.3,0.695,0.533,1.603,0.905,2.084
		C573.092,181.114,573.562,181.255,573.958,181.333L573.958,181.333z"/>
	<path d="M629.095,114.606c0-0.706-0.462-1.049-1.396-1.049h-3.437c-0.94,0-1.404,0.344-1.404,1.049
		c0,0.705,0.465,1.037,1.404,1.037h0.729v6.261c0,1.062,0.323,1.588,0.993,1.588c0.666,0,0.979-0.525,0.979-1.588v-6.261h0.735
		C628.628,115.643,629.095,115.312,629.095,114.606L629.095,114.606z M619.415,116.785c0,0.764-0.443,1.212-1.249,1.212h-0.915
		v-2.384h0.94C618.979,115.612,619.415,116.054,619.415,116.785L619.415,116.785z M621.55,122.504c0-0.353-0.195-0.787-0.594-1.279
		l-1.551-1.957c1.287-0.254,2.062-1.261,2.062-2.653c0-1.806-1.162-3.062-3.296-3.062h-1.537c-1.097,0-1.364,0.48-1.364,1.572v6.771
		c0,1.066,0.319,1.59,0.989,1.59c0.667,0,0.974-0.525,0.974-1.59v-2.408l2.311,3.263c0.362,0.517,0.671,0.805,1.062,0.805
		C621.169,123.555,621.55,123.083,621.55,122.504L621.55,122.504z M610.924,119.455h-2.072l1.074-3.634L610.924,119.455
		L610.924,119.455z M613.744,122.466c0-0.194-0.047-0.433-0.128-0.704l-2.187-7.045c-0.262-0.841-0.779-1.296-1.457-1.296
		c-0.729,0-1.188,0.468-1.503,1.45l-2.265,6.92c-0.067,0.206-0.083,0.429-0.083,0.647c0,0.621,0.393,1.067,0.941,1.067
		c0.426,0,0.754-0.335,0.95-0.998l0.283-0.99h3.197l0.245,0.904c0.203,0.736,0.525,1.094,1.034,1.094
		C613.32,123.511,613.744,123.099,613.744,122.466L613.744,122.466z M604.671,118.946c0-1.075-0.372-1.486-1.222-1.486h-1.293
		c-0.816,0-1.23,0.318-1.23,1.045c0,0.728,0.414,1.036,1.23,1.036h0.605c-0.025,1.211-0.625,1.975-1.551,1.975
		c-1.144,0-1.925-1.181-1.925-3.104c0-1.891,0.761-3.006,1.933-3.006c1.065,0,1.627,0.945,2.148,0.945
		c0.421,0,0.752-0.493,0.752-1.041c0-0.967-1.124-2.045-2.845-2.045c-2.354,0-3.879,2-3.879,5.187c0,3.117,1.544,5.2,3.68,5.2
		C603.271,123.653,604.671,121.677,604.671,118.946L604.671,118.946z M596.873,114.606c0-0.706-0.469-1.049-1.406-1.049h-3.434
		c-0.938,0-1.403,0.344-1.403,1.049c0,0.705,0.466,1.037,1.403,1.037h0.733v6.261c0,1.062,0.315,1.588,0.985,1.588
		c0.667,0,0.985-0.525,0.985-1.588v-6.261h0.731C596.404,115.643,596.873,115.312,596.873,114.606L596.873,114.606z
		 M590.231,114.606c0-0.706-0.462-1.049-1.406-1.049h-3.426c-0.946,0-1.417,0.344-1.417,1.049c0,0.705,0.471,1.037,1.417,1.037
		h0.725v6.261c0,1.062,0.32,1.588,0.985,1.588c0.663,0,0.979-0.525,0.979-1.588v-6.261h0.735
		C589.767,115.643,590.231,115.312,590.231,114.606L590.231,114.606z M582.854,119.155v-4.136c0-1.059-0.315-1.583-0.985-1.583
		c-0.669,0-0.984,0.525-0.984,1.583v3.886c0,1.738-0.599,2.611-1.736,2.611c-1.139,0-1.745-0.873-1.745-2.611v-3.886
		c0-1.059-0.316-1.583-0.987-1.583c-0.661,0-0.978,0.525-0.978,1.583v4.136c0,2.926,1.448,4.498,3.71,4.498
		C581.399,123.653,582.854,122.074,582.854,119.155L582.854,119.155z M574.645,114.606c0-0.706-0.46-1.049-1.397-1.049h-3.433
		c-0.942,0-1.398,0.344-1.398,1.049c0,0.705,0.458,1.037,1.398,1.037h0.734v6.261c0,1.062,0.315,1.588,0.986,1.588
		c0.662,0,0.982-0.525,0.982-1.588v-6.261h0.73C574.176,115.643,574.645,115.312,574.645,114.606L574.645,114.606z M567.794,120.328
		c0-1.474-0.776-2.372-2.378-2.981c-0.989-0.372-1.575-0.452-1.575-1.157c0-0.479,0.357-0.839,0.961-0.839
		c0.516,0,1.065,0.341,1.544,0.341c0.573,0,0.89-0.372,0.89-0.945c0-0.784-0.93-1.448-2.36-1.448c-1.916,0-3.142,1.341-3.142,3.102
		c0,1.528,0.774,2.221,2.448,2.784c0.941,0.319,1.511,0.567,1.511,1.353c0,0.578-0.432,1.002-0.97,1.002
		c-0.881,0-1.591-0.493-2.116-0.493c-0.602,0-0.966,0.414-0.966,1.01c0,0.796,1.184,1.577,2.801,1.577
		C566.509,123.625,567.794,122.226,567.794,120.328L567.794,120.328z"/>
	<path id="O" d="M313.533,434.477h91.363c4.135,0,7.487-3.341,7.487-7.432v-40.479c0-4.088-3.352-7.435-7.487-7.435h-91.363
		c-4.137,0-7.488,3.347-7.488,7.435v40.479C306.048,431.136,309.396,434.477,313.533,434.477L313.533,434.477z M319.341,389.868
		h80.162c1.373,0,2.494,1.124,2.494,2.475v28.918c0,1.362-1.123,2.485-2.494,2.485h-80.162c-1.374,0-2.494-1.123-2.494-2.485
		v-28.918C316.848,390.978,317.968,389.868,319.341,389.868L319.341,389.868z"/>
	<path id="P" d="M185.179,434.477h10.797v-13.216h87.641c4.34,0,7.895-3.529,7.895-7.84v-26.442c0-4.314-3.555-7.846-7.895-7.846
		h-87.641h-2.907h-7.89v7.846v26.442V434.477L185.179,434.477z M195.976,410.519v-20.65h2.905h70.609h7.894
		c1.824,0,3.32,1.484,3.32,3.31v14.048c0,1.813-1.494,3.305-3.32,3.305h-7.894h-70.606L195.976,410.519L195.976,410.519z"/>
	<path id="R" d="M426.501,434.477h10.802v-13.216h77.851l6.821,13.216h11.674l-6.928-13.417c3.49-0.808,6.11-3.936,6.11-7.647
		v-26.441c0-4.314-3.551-7.846-7.89-7.846h-87.64h-2.907H426.5v7.846v26.441L426.501,434.477L426.501,434.477z M437.303,410.519
		v-20.65h2.905h70.61h7.891c1.827,0,3.324,1.484,3.324,3.31v14.048c0,1.813-1.493,3.305-3.324,3.305h-7.891h-70.61L437.303,410.519
		L437.303,410.519z"/>
	<polygon id="H" points="787.87,434.477 798.669,434.477 798.669,412.172 878.002,412.172 878.002,434.477 888.801,434.477 
		888.801,379.125 878.002,379.125 878.002,401.435 798.669,401.435 798.669,379.125 787.87,379.125 	"/>
	<path id="C" d="M679.051,434.477h92.618v-10.881c-0.255,0.09-0.542,0.143-0.833,0.143h-85.972c-1.364,0-2.497-1.122-2.497-2.478
		v-28.918c0-1.365,1.123-2.483,2.497-2.483h85.971c0.29,0,0.579,0.061,0.833,0.145v-10.883h-92.617c-4.135,0-7.486,3.35-7.486,7.432
		v40.481C671.564,431.136,674.918,434.477,679.051,434.477L679.051,434.477z"/>
	<polygon id="E" points="905.417,434.477 911.646,434.477 916.216,434.477 1012.574,434.477 1012.574,423.738 916.216,423.738 
		916.216,412.172 1012.574,412.172 1012.574,401.435 916.216,401.435 916.216,389.868 1012.574,389.868 1012.574,379.125 
		916.216,379.125 911.646,379.125 905.417,379.125 	"/>
	<path id="S" d="M562.742,394.823v-2.48c0-1.365,1.123-2.483,2.492-2.483h85.983c0.29,0,0.571,0.061,0.825,0.145v-10.883h-92.617
		c-4.137,0-7.486,3.35-7.486,7.432v3.307v4.956v9.913c0,4.085,3.35,7.435,7.486,7.435h7.886v0.146
		c0.263-0.09,0.537-0.146,0.827-0.146h70.612c1.373,0,2.496,1.12,2.496,2.483v4.131v2.483c0,1.359-1.123,2.481-2.496,2.481h-85.979
		c-0.29,0-0.572-0.056-0.832-0.142v10.88h92.616c4.138,0,7.487-3.354,7.487-7.432v-3.307v-4.955v-9.911
		c0-4.087-3.35-7.433-7.487-7.433h-7.872v-0.145c-0.264,0.089-0.546,0.145-0.842,0.145H565.23c-1.37,0-2.488-1.123-2.488-2.489
		V394.823L562.742,394.823z"/>
	<path id="Registered_Trademark" d="M748.754,29.205c0,4.265-3.053,7.307-7.513,7.307c-5.588-0.222-7.061-4.684-7.061-7.532
		c0-4.627,3.389-7.557,7.405-7.557C746.455,21.642,748.754,25.577,748.754,29.205L748.754,29.205z M731.518,28.754
		c0,3.823,2.739,9.735,9.479,10.159c5.092,0,10.344-3.437,10.403-10.159c0-3.264-2.865-9.395-9.539-9.565
		C735.325,19.189,731.518,24.406,731.518,28.754L731.518,28.754z M737.429,23.765v10.627h2.242v-4.493h1.74l2.356,4.489h2.629
		l-2.629-4.516c1.874-0.114,3.076-1.143,3.076-3.07c-0.064-1.84-1.178-3.094-3.612-3.094L737.429,23.765L737.429,23.765z
		 M739.671,25.383h3.28c1.148,0,1.68,0.668,1.68,1.421c0,0.722-0.594,1.477-1.68,1.477h-3.28V25.383L739.671,25.383z"/>
</g>
</svg>
