<?xml version="1.0" encoding="utf-8"?>
<!-- Generator: Adobe Illustrator 21.0.2, SVG Export Plug-In . SVG Version: 6.00 Build 0)  -->
<svg version="1.1" id="Ebene_1" xmlns="http://www.w3.org/2000/svg" xmlns:xlink="http://www.w3.org/1999/xlink" x="0px" y="0px"
	 viewBox="0 0 144 144" style="enable-background:new 0 0 144 144;" xml:space="preserve">
<style type="text/css">
	.st0{fill:#161314;}
</style>
<path class="st0" d="M79.4,104.8c0.8-0.6,2.6-1.2,3.6-1.7c0-1.5-0.7-3-0.3-4.2c0.7-2.3,2.2-3.3,3.8-3.5c0.1,0,0.2,0.2,0.1,0.3
	c-0.9,0.8-1.2,1.9-1.4,3.2c-0.1,0.5-0.1,2,0.3,3c0.9-0.5,3.1-1.2,3.8-1.4c0.1-1.5,0.3-3,0.8-4.1c0.9-2.2,2.8-3.8,4.7-2.9
	c0.1,0.1,0.2,0.3,0.1,0.3c-1.2,0.4-2,1.7-2.6,3.1c-0.2,0.4-0.9,2.7-0.1,3.2l0,0c1.4-0.3,1.6-0.2,3.1-0.3c0.3-1.5,0.9-2.7,1.5-3.7
	c0.9-1.7,3.1-3,5.1-1.8c0.1,0.1,0.2,0.3,0.1,0.3c-1.4,0.3-2.3,1.2-2.8,2c-0.3,0.4-1.5,2.2-0.9,2.9c0.1,0,0.1,0,0.2,0
	c1.2,0,2,0.2,3.3,0.4c0.4-0.9,0.7-1,1.1-1.5c1.4-1.7,3.7-2.3,4.5-0.7c0.1,0.1,0.1,0.3,0,0.3c-0.7,0.1-1.9,0.5-2.5,1.2
	c-0.2,0.2-0.5,0.6-0.9,1.4c1.6,1.2,2.5,2.2,3,3.9c0.1,0.3,0.3,2-0.4,1.1c-2.6-3.3-6.1-4-11.5-3.5c-5.7,0.5-8.3,1.4-14,4.4
	c3.1,2.8-1.6,5.6-2.3,1.4c-2.8,4.2-5.7-1.1-1.9-1.9C73.2,102.6,78.4,100.9,79.4,104.8L79.4,104.8z"/>
<path class="st0" d="M89.1,86.7c2-0.7,4.3-1.4,5.4-1.6c0.2-3.3,3.3-7.5,7.1-6c0.1,0.1,0.2,0.3,0.1,0.3c-1,0.3-4,3.2-3,5
	c0.8,0,2.8,0,3.5,0c0.8-3.7,4-6.3,7.6-4.6c0.1,0.1,0.2,0.3,0.1,0.3c-1.4,0.2-4.7,2.5-4.3,4.5c0.7,0,2.5,0.7,3.6,1.3
	c0.4-0.9,0.9-1.3,1.4-1.7c1.6-1.7,4.8-1.8,5.8-0.2c0.1,0.1,0.1,0.3,0,0.3c-1.4-0.1-2.6,0.1-3.8,1.2c-0.2,0.2-0.6,0.7-1,1.5
	c1.1,0.6,2.4,1.8,2.7,3c0.2,0.6,0.3,1.1,0.2,1.6c0,0.2-0.3,0-0.4-0.1c-3-3.3-9.6-5.3-16-4.5c-4.3,0.5-8.5,1.7-12,3.2
	C87.1,89.2,88.2,88,89.1,86.7L89.1,86.7z M79.6,94.2c-0.3,0.3-0.6,0.5-0.8,0.8c1.5,2.1-0.9,3.8-1.6,1.7c-1.8,2-3.3-0.3-2.1-1.3
	C76.7,95.1,78.2,94.7,79.6,94.2L79.6,94.2z"/>
<path class="st0" d="M78.6,122.3c0.4-0.5,1.5-1.4,2-1.8c-1.6-2.6-0.7-5.8,0.8-6c0.1,0,0.2,0.2,0.1,0.3c-0.4,0.6-0.6,3.9,0.6,4.7
	c0.6-0.4,1.8-1.3,2.4-1.5c-0.9-3,0.7-7.1,3.7-6.5c0.1,0,0.2,0.2,0.1,0.3c-2.5,1.3-2.5,5.1-1.8,5.5c1-0.3,2.1-0.7,3.2-0.8
	c0.5-4.1,4.1-5.9,5.9-4.8c0.1,0.1,0.2,0.3,0.1,0.3c-1-0.6-4.7,3.3-3.5,4.4c0.9,0,1.9,0.3,2.9,0.6c0.4-2.2,3.6-4.1,4.9-2.7
	c0.1,0.1,0.1,0.3,0,0.3c-1.2,0.2-2.8,1.4-3,3.4c2.5,1.2,2.3,3.7,1.8,3c-2.4-3.2-7.5-2.6-11.3-1.8c-2.2,0.5-5.4,2.6-6.7,4.1
	c4.1,1.9,0.4,5.5-1.3,1.4c-2.8,4.9-5.6,0.4-2.3-0.9C73.1,120.8,77.2,118.7,78.6,122.3L78.6,122.3z"/>
<path class="st0" d="M37.8,118.5c-4-4.6-7.4-9.6-10.1-14.7h43.9v14.7H37.8L37.8,118.5z"/>
<polygon class="st0" points="92.7,46.8 124.9,46.8 124.9,59.4 92.7,59.4 "/>
<polygon class="st0" points="124.9,27.6 115.4,24.2 104.3,21.9 91.8,19.2 80.2,18.3 71.3,18.3 71.3,31.6 124.9,31.6 "/>
<path class="st0" d="M25.6,12.6c1.3-0.4,2.6-0.8,3.9-1.2c0.5-0.1,1-0.3,1.5-0.4c0.5-0.1,1.1-0.2,1.6,0l0.2,0.1
	c0.2,0.1,0.3,0.2,0.4,0.4c0.1,0.3,0.2,0.7,0.2,1c0.1,0.8,0.1,1.5,0,2.3c-0.1,0.6-0.1,1.2-0.4,1.8c-0.1,0.2-0.2,0.4-0.4,0.6
	c-0.1,0.1-0.3,0.3-0.4,0.4c-0.3,0.2-0.6,0.4-1,0.6c-0.8,0.4-1.7,0.7-2.6,0.9c-1.5,0.5-3.1,1.1-4.6,1.6v2.8c-0.8,0.3-1.5,0.6-2.3,0.9
	V13.9C23,13.5,24.3,13.1,25.6,12.6L25.6,12.6z M24,18.9c1.5-0.5,3.1-1.1,4.6-1.6c0.5-0.2,0.9-0.3,1.4-0.5l0.4-0.2l0.2-0.1l0.1-0.1
	l0.1-0.1l0.1-0.2l0.1-0.3c0-0.2,0.1-0.4,0.1-0.5c0-0.5,0-0.9-0.1-1.4l-0.1-0.2l-0.1-0.1l-0.2-0.2l-0.2-0.1l-0.2-0.1H30h-0.2
	c-0.5,0.1-0.9,0.2-1.4,0.3c-1.5,0.5-3,1-4.6,1.5L24,18.9L24,18.9z M43.3,7.8c1-0.2,2.1-0.4,3.1-0.5c0.3,0,0.7,0,1,0
	c0.2,0,0.3,0,0.5,0.1c0.1,0,0.2,0.1,0.4,0.2c0.1,0.1,0.2,0.1,0.3,0.2s0.1,0.2,0.2,0.3c0.1,0.2,0.1,0.4,0.2,0.5
	c0.1,0.6,0.1,1.3,0.2,1.9c0,0.7,0,1.5,0,2.2c0,0.3,0,0.6,0,0.9c0,0.6-0.1,1.1-0.2,1.7c0,0.1-0.1,0.3-0.1,0.4
	c-0.1,0.2-0.2,0.4-0.3,0.6l-0.3,0.4L47.9,17c-0.2,0.1-0.4,0.2-0.5,0.2c-0.7,0.2-1.5,0.4-2.3,0.6c-1.6,0.3-3.1,0.6-4.7,0.9
	c-0.8,0.1-1.5,0.3-2.3,0.4c-0.2,0-0.4,0-0.6,0L37,19c-0.1,0-0.2-0.1-0.4-0.1l-0.3-0.2l-0.2-0.3l-0.5-1.3v-4.2c0-0.5,0.1-1,0.2-1.5
	l0.1-0.4c0.1-0.2,0.2-0.4,0.3-0.6l0.4-0.5l0.3-0.2c0.3-0.2,0.6-0.4,1-0.5l1.7-0.6C40.9,8.3,42.1,8.1,43.3,7.8L43.3,7.8z M42.2,10
	l-2.5,0.6c-0.2,0.1-0.4,0.1-0.6,0.2l-0.2,0.1L38.8,11l-0.2,0.2l-0.1,0.2l-0.1,0.2l-0.1,0.2c-0.1,0.2-0.1,0.3-0.2,0.5
	c-0.1,0.6-0.1,1.2-0.2,1.8c0,0.6,0,1.3,0.1,2l0.1,0.2l0.1,0.2l0.2,0.2l0.2,0.2l0.2,0.1l0.3,0.1h0.3c0.2,0,0.3,0,0.5,0
	c1-0.1,1.9-0.3,2.8-0.5c0.8-0.2,1.6-0.3,2.3-0.5c0.2,0,0.3-0.1,0.5-0.2l0.3-0.1l0.2-0.2l0.2-0.2l0.2-0.2l0.1-0.2l0.1-0.2l0.1-0.3
	c0.1-0.7,0.1-1.4,0.1-2.1c0-0.4,0-0.7-0.1-1.1V11c0-0.2-0.1-0.4-0.2-0.6l-0.1-0.2L46.3,10l-0.1-0.1L46,9.8l-0.2-0.1h-0.2h-0.4
	c-0.4,0-0.8,0-1.2,0.1C43.5,9.7,42.8,9.9,42.2,10L42.2,10z M57.9,6.1c1.2-0.1,2.4-0.2,3.6-0.2c0.3,0,0.5,0,0.8,0s0.5,0.1,0.8,0.2
	c0.1,0,0.2,0.1,0.3,0.2c0.2,0.2,0.3,0.3,0.4,0.5C63.9,7,63.9,7.1,64,7.3c0.1,0.4,0.1,0.8,0.1,1.2c0,0.5,0,1,0,1.5
	c0,0.2,0,0.4-0.1,0.6l-0.1,0.2c-0.1,0.1-0.1,0.3-0.2,0.4l-0.2,0.2c-0.1,0.1-0.2,0.1-0.3,0.2c-0.2,0.1-0.3,0.1-0.5,0.1L61.4,12
	l1.3,0.7c0.2,0.1,0.3,0.2,0.5,0.4l0.2,0.2c0.2,0.3,0.3,0.6,0.5,0.9c0.2,0.6,0.3,1.1,0.3,1.7c-0.8,0-1.5,0.1-2.3,0.1
	c0-0.4-0.1-0.8-0.2-1.2l-0.2-0.5l-0.1-0.2l-0.1-0.2l-0.2-0.2l-0.5-0.2l-0.2-0.1c-0.1,0-0.3-0.1-0.4-0.1c-0.3,0-0.6,0-0.9,0
	c-1.5,0.1-2.9,0.2-4.4,0.4l-0.6,0.1v2.8c-0.8,0.1-1.5,0.2-2.3,0.3V6.6C53.8,6.4,55.8,6.2,57.9,6.1L57.9,6.1z M54.1,11.9
	c1.5-0.1,3.1-0.3,4.6-0.4c0.5,0,1.1-0.1,1.6-0.1c0.2,0,0.3,0,0.4-0.1l0.2-0.1l0.2-0.1l0.2-0.1l0.1-0.1l0.1-0.1l0.1-0.2
	c0-0.1,0.1-0.2,0.1-0.4c0.1-0.4,0.1-0.9,0-1.3c0-0.2-0.1-0.3-0.1-0.5l-0.1-0.2l-0.1-0.1L61.2,8L61,7.9l-0.2-0.1h-0.2
	c-0.1,0-0.3,0-0.4,0c-0.8,0-1.5,0.1-2.3,0.1C56.6,8,55.3,8.1,54,8.2L54.1,11.9L54.1,11.9z M70.3,14.2c0.9,0,1.7,0,2.6,0
	c0.6,0,1.2,0,1.8,0c0.1,0,0.3,0,0.4-0.1c0.1,0,0.2-0.1,0.3-0.1l0.1-0.1l0.1-0.1l0.1-0.1l0.1-0.1l0.1-0.3v-0.5l-0.1-0.5v-0.1
	l-0.1-0.1l-0.1-0.3l-0.1-0.1l-0.2-0.1L75,11.5l-0.6-0.1h-0.7h-4.8c-0.5,0-0.9,0-1.4-0.1c-0.1,0-0.2-0.1-0.4-0.1L67,11.1L66.8,11
	l-0.1-0.1l-0.1-0.2l-0.1-0.1c-0.1-0.2-0.2-0.4-0.2-0.6c-0.1-0.5-0.1-1.1-0.1-1.6c0-0.7,0-1.4,0.3-2c0.1-0.1,0.1-0.2,0.2-0.3
	c0.3-0.3,0.8-0.4,1.2-0.5s0.9-0.1,1.4-0.1c1,0,2.1,0,3.1,0c1.7,0,3.5,0,5.2,0.1v1.5C75.3,7.1,73,7,70.7,7c-0.5,0-1,0-1.6,0.1
	c-0.1,0-0.2,0-0.3,0.1l-0.2,0.1l-0.2,0.1l-0.1,0.2l-0.1,0.2v0.3c0,0.3,0,0.5,0,0.8v0.2l0.1,0.2l0.1,0.2l0.2,0.2h0.2
	c2.4,0,4.8,0.1,7.2,0.2h0.3c0.4,0.1,0.7,0.3,1,0.5c0.1,0.1,0.2,0.3,0.3,0.4c0.2,0.5,0.3,1.1,0.3,1.7c0,0.7,0,1.3-0.2,2
	c0,0.1-0.1,0.2-0.1,0.3l0,0.2c-0.1,0.1-0.2,0.2-0.3,0.3c-0.2,0.2-0.5,0.3-0.7,0.3c-0.4,0.1-0.8,0.1-1.2,0.1
	c-1.2,0.1-2.4,0.1-3.5,0.1c-1.9,0-3.7,0-5.5,0.1c0-0.5,0-1.1,0-1.6c1.2,0,2.5-0.1,3.7-0.1L70.3,14.2L70.3,14.2L70.3,14.2L70.3,14.2z
	 M86.1,16.3c-1-0.1-1.9-0.2-2.9-0.3c-0.4-0.1-0.8-0.1-1.2-0.3c-0.2-0.1-0.4-0.2-0.6-0.3c-0.1-0.1-0.2-0.2-0.4-0.3
	c-0.1-0.1-0.2-0.2-0.3-0.3c-0.1-0.1-0.1-0.3-0.2-0.4c-0.1-0.5-0.2-1.1-0.2-1.6c0-1.4-0.1-2.7,0-4.1V8.4c0-0.6,0.1-1.2,0.5-1.8
	c0.1-0.2,0.3-0.3,0.4-0.4c0.5-0.2,1-0.3,1.6-0.4c0.6,0,1.1,0,1.7,0c1.1,0,2.2,0.1,3.4,0.2c1.6,0.1,3.2,0.3,4.8,0.5v1.8
	c-2.1-0.2-4.3-0.4-6.4-0.5c-0.7,0-1.4-0.1-2.1-0.1h-0.3l-0.3,0.1l-0.2,0.1L83.2,8L83,8.2l-0.1,0.2l-0.1,0.2c0,0.1-0.1,0.3-0.1,0.4
	c-0.1,0.8-0.1,1.5-0.1,2.2c0,0.6,0,1.2,0.1,1.7c0,0.1,0.1,0.3,0.1,0.4l0.1,0.2l0.1,0.2l0.2,0.2l0.2,0.1l0.2,0.1l0.2,0.1
	c0.2,0,0.4,0.1,0.6,0.1c0.6,0.1,1.3,0.1,1.9,0.2c2.2,0.2,4.3,0.4,6.5,0.6c0,0.6,0,1.1,0,1.6V17c-1.4-0.1-2.7-0.3-4.1-0.4
	C87.9,16.5,87,16.4,86.1,16.3L86.1,16.3z M100.6,11.8c1.8,0.3,3.5,0.7,5.3,1v-4c0.8,0.2,1.6,0.4,2.5,0.5v10.4
	c-0.8-0.2-1.6-0.4-2.5-0.6V15c-1.4-0.3-2.8-0.6-4.2-0.8c-1.3-0.2-2.6-0.5-3.9-0.7v4.1c-0.8-0.1-1.6-0.3-2.5-0.4V7
	c0.8,0.1,1.6,0.2,2.5,0.3v4C98.7,11.5,99.7,11.6,100.6,11.8L100.6,11.8z M119.4,12.5c0.9,0.3,1.7,0.6,2.6,0.9V15
	c-2.5-0.9-5.1-1.7-7.7-2.5l-0.9-0.3v2.6c1.9,0.6,3.7,1.1,5.6,1.7c0.8,0.3,1.6,0.5,2.5,0.8V19c-2.4-0.8-4.8-1.6-7.2-2.3l-0.8-0.3v2.8
	c1.8,0.5,3.6,1.1,5.4,1.7c1.1,0.3,2.1,0.7,3.2,1v1.8c-3.5-1.1-6.9-2.2-10.4-3.2l-0.4-0.1V10C114,10.8,116.7,11.6,119.4,12.5
	L119.4,12.5z"/>
<path class="st0" d="M21.5,89.2c-1.5-5.1-2.3-9.9-2.4-14h32c0.1,5.4,2.3,10.3,5.9,14H21.5L21.5,89.2z"/>
<path class="st0" d="M17.7,12.2l0.6-0.2C36.1,5.4,53.9,2,71.8,1.7c17.8-0.3,35.6,2.5,53.5,8.5l0.7,0.2v0.7
	c-0.1,21.4-0.3,42.8-0.4,64.3c-0.1,11.1-5.9,26.6-16.8,40.2c-8.8,11-21,20.7-36.3,25.8H72c-15.4-4-27.6-13.3-36.4-24.2
	C24,103,18.2,86.3,18.2,74.8l0,0l0,0l0,0c-0.1-10.3-0.2-20.7-0.2-31L17.7,12.2L17.7,12.2z M38.5,118H71v-13H29.3
	c-0.1-0.2-0.3-0.5-0.4-0.7c2.2,4,4.9,7.9,7.9,11.7C37.4,116.6,37.9,117.3,38.5,118L38.5,118z M71,119.6H40c8,8.8,18.3,16.1,31,19.6
	V119.6L71,119.6z M39.9,119.5c-0.1-0.1-0.2-0.2-0.3-0.3C39.7,119.3,39.8,119.4,39.9,119.5L39.9,119.5z M39.3,118.9
	C39.3,118.9,39.3,118.8,39.3,118.9C39.3,118.8,39.3,118.9,39.3,118.9L39.3,118.9z M28.4,103.3h42.5v-7.7c0.3,0,0.7,0,1,0
	c0.2,0,0.4,0,0.6,0v43.6h-0.1c14.5-5.1,26.2-14.4,34.6-25c10.5-13.1,16.2-27.9,16.4-38.6v0.1H92.9c0-0.3,0-0.7,0-1v-0.6h30.7
	c0-4.6,0.1-9.1,0.1-13.7H92.9v-1.6h30.8c0-3.7,0-7.4,0.1-11.1H92.9v-1.6h-0.2l0,0h31.1c0-4.5,0.1-8.9,0.1-13.4H72.2v13.4h-1.7v-27
	c-17,0.3-34,3.7-51.1,10.3v-1.7C37,20.9,54.5,17.6,72,17.5c17.3-0.1,34.7,2.9,51.9,8.8c0,0.6,0,1.2,0,1.7c0-5.4,0.1-10.9,0.1-16.3
	c-17.4-5.8-34.8-8.5-52.2-8.2C54.2,3.8,36.6,7.2,19,13.7l0.8,30.1C19.9,53.9,19.9,64,20,74.2l0,0h31v0.6c0,0.3,0,0.7,0,1H20l0,0
	c0.1,3.8,0.9,8.3,2.3,12.9v-0.1h34.1c0.3,0.3,0.6,0.6,0.9,1l1,0.7H22.8C24.2,94.5,26.1,98.9,28.4,103.3L28.4,103.3z M28.9,104.2
	C28.9,104.2,28.9,104.1,28.9,104.2C28.9,104.1,28.9,104.2,28.9,104.2L28.9,104.2z M28.9,104.1c0-0.1-0.1-0.1-0.1-0.1
	C28.8,104,28.8,104,28.9,104.1L28.9,104.1z M28.6,103.6L28.6,103.6L28.6,103.6L28.6,103.6z M22.7,90c0-0.1-0.1-0.2-0.1-0.3
	C22.7,89.8,22.7,89.9,22.7,90L22.7,90z M22.5,89.4c0-0.1-0.1-0.2-0.1-0.3C22.5,89.1,22.5,89.2,22.5,89.4L22.5,89.4z M20.1,75.4
	L20.1,75.4L20.1,75.4L20.1,75.4z M20,74.3L20,74.3L20,74.3L20,74.3z M123.6,74.5L123.6,74.5L123.6,74.5L123.6,74.5z M123.6,74.8
	L123.6,74.8L123.6,74.8L123.6,74.8z M123.6,74.9L123.6,74.9L123.6,74.9L123.6,74.9z M123.6,75.1C123.6,75.2,123.6,75.2,123.6,75.1
	C123.6,75.2,123.6,75.2,123.6,75.1L123.6,75.1z M123.6,75.2C123.6,75.2,123.6,75.3,123.6,75.2C123.6,75.3,123.6,75.2,123.6,75.2
	L123.6,75.2z M123.6,75.3L123.6,75.3L123.6,75.3L123.6,75.3z M123.6,75.1L123.6,75.1L123.6,75.1L123.6,75.1L123.6,75.1L123.6,75.1
	L123.6,75.1L123.6,75.1C123.6,75,123.6,75,123.6,75.1L123.6,75.1L123.6,75.1L123.6,75.1L123.6,75.1z M123.6,75L123.6,75L123.6,75
	C123.6,74.9,123.6,74.9,123.6,75C123.6,74.9,123.6,74.9,123.6,75L123.6,75L123.6,75z M123.6,74.3L123.6,74.3
	C123.6,74.3,123.6,74.2,123.6,74.3C123.6,74.2,123.6,74.2,123.6,74.3C123.6,74.2,123.6,74.2,123.6,74.3
	C123.6,74.2,123.6,74.2,123.6,74.3L123.6,74.3L123.6,74.3z M123.8,46.3L123.8,46.3L123.8,46.3L123.8,46.3z M72.2,31.1h51.7
	c0,0.3,0,0.5,0,0.8c0-1.3,0-2.6,0-3.9c-17.2-6-34.4-9-51.7-8.9L72.2,31.1L72.2,31.1z M123.9,31.9c0,0.1,0,0.3,0,0.4
	C123.9,32.1,123.9,32,123.9,31.9L123.9,31.9z M123.8,32.3C123.8,32.4,123.8,32.4,123.8,32.3C123.8,32.4,123.8,32.4,123.8,32.3
	L123.8,32.3z M123.8,32.4c0,0.1,0,0.2,0,0.3C123.8,32.6,123.8,32.5,123.8,32.4L123.8,32.4z M72.4,139.3L72.4,139.3L72.4,139.3
	L72.4,139.3z M72.1,139.4L72.1,139.4L72.1,139.4L72.1,139.4z M72.1,139.4C72,139.4,72,139.5,72.1,139.4
	C72,139.5,72,139.4,72.1,139.4L72.1,139.4z M71.4,139.3c-0.1,0-0.2-0.1-0.4-0.1C71.2,139.2,71.3,139.3,71.4,139.3L71.4,139.3z
	 M72.5,139.3L72.5,139.3L72.5,139.3L72.5,139.3L72.5,139.3z"/>
<path class="st0" d="M26.8,38.6c0.9-0.6,1.9-1.1,2.8-1.6c-0.1-1.5-0.3-3.8,0.1-5c0.7-2.3,2.8-4.2,5.3-3.7c0.1,0,0.3,0.2,0.1,0.3
	c-1.4,0.7-2.5,1.8-3.1,3.3c-0.2,0.4-0.9,3.5,0.1,3.7c0.1,0,0.2,0,0.3,0.1c1.8-0.8,3.7-1.4,5.6-2c0-1.5,0.1-3.5,0.6-4.6
	c1-2.2,3.3-3.7,5.9-3c0.1,0,0.3,0.2,0.1,0.3c-1.5,0.5-2.8,1.4-3.6,2.9c-0.2,0.4-1.2,3.3-0.2,3.7c0,0,0,0,0.1,0
	c1.8-0.4,3.6-0.7,5.5-1c0.2-1.5,0.6-3.4,1.3-4.4c1.4-2.1,4.3-3.5,7-2.5c0.1,0.1,0.2,0.3,0.1,0.3c-1.8,0.4-3.3,1.2-4.4,2.6
	c-0.3,0.4-1.8,3.1-0.9,3.7c0.1,0,0.2,0,0.3,0c1.5-0.1,3.3-0.2,5-0.1c0.4-0.9,0.9-1.7,1.4-2.2c1.6-1.7,5.3-2.3,6.5-0.9
	c0.1,0.1,0.1,0.3,0,0.3c-1.6,0.1-3.2,0.3-4.4,1.4c-0.2,0.2-0.9,0.8-1.3,1.6c2.5,0.4,4.7,1.3,5.3,2.9c0.2,0.5,0.4,1,0.3,1.6
	c0,0.2-0.3,0-0.4-0.1c-3.2-3-8.3-3.3-15.1-2.1c-6.9,1.2-12.7,3.3-18.9,6.2c2.5,2.8-1.4,5-2.7,2c-3,3.6-5.8-1.6-1.6-2.2
	C21.5,36.2,26.2,36.1,26.8,38.6L26.8,38.6z"/>
<path class="st0" d="M27.7,67.1c0.8-0.6,1.9-1.1,2.7-1.7C29.5,64,29,62,29.3,60.7c0.6-2.3,2-3.4,3.8-3.3c0.1,0,0.2,0.2,0.1,0.3
	c-1.2,0.8-1.4,1.9-1.8,3.5c-0.2,0.9,0.3,2.3,0.9,2.8c1.6-0.9,1.5-0.7,3.2-1.3c-0.5-1.5-0.4-3.5,0.2-4.7c0.9-2,2.5-2.7,4.1-2.4
	c0.1,0,0.2,0.2,0.1,0.3c-1.2,0.5-3.8,2.5-2.1,6.3c1.5-0.5,1.6-0.6,3.6-1c0.2-1.5,0.2-3.3,0.8-4.3c1.2-2.2,4-3.1,5.3-2.6
	c0.1,0,0.2,0.2,0.1,0.3c-0.7,0.5-1.7,0.9-2.6,2.3c-0.5,0.8-1.4,2.5-1.2,3.7c1.4-0.2,3.2-0.3,4.8-0.2c0.3-0.9,1-2,1.4-2.5
	c0.3-0.4,0.6-0.6,1.1-0.8v5.3c-2.6-0.1-5.5,0.2-8.3,0.8c-6.3,1.5-7.9,2.6-13.5,5.6c3.3,2.1,0.1,5.3-2,2.1c-3.6,4.2-6-1.2-2.2-2
	C22.3,65.2,27,63.4,27.7,67.1L27.7,67.1z"/>
<path class="st0" d="M26,52.9c0.9-0.6,2.2-1,3.2-1.5c-0.1-1.5-0.3-2.8,0.1-4.1c0.8-2.3,2-3.4,3.9-3.2c0.1,0,0.3,0.2,0.1,0.3
	c-1.4,0.7-1,1.7-1.7,3.2c-0.2,0.4-0.7,2.2,0.3,2.5c0.1,0,0.2,0,0.3,0.1c1.8-0.7,1.2-0.7,3-1.1c0-1.4,0.1-3.4,0.6-4.4
	c1-2,2.9-3.1,4.6-2.6c0.1,0,0.4,0.4,0.3,0.4c-1.4,0.4-3.7,3.2-2.8,5.4c1.2-0.2,2-0.6,4.1-0.9c0.3-1.5,0.8-2.9,1.5-3.9
	c1.5-2.1,3.8-2.5,5.1-1.9c0.1,0.1,0.3,0.4,0.2,0.5c-1.8,0.4-1.8,0.2-3,1.6c-0.6,0.7-1.9,2.7-1,3.6c1.5-0.1,2.6-0.3,4.3-0.1
	c0.4-0.9,0.8-2.1,1.2-2.5c1.7-1.7,4.6-1.9,5.5-0.7c0.1,0.1,0.1,0.3,0,0.3c-1.6,0-2.1,0.5-3.4,1.6c-0.1,0.1-0.4,0.5-0.7,0.9h-0.9v2.9
	c-2.6-0.2-5.4-0.2-8,0.2c-6.9,1-9.5,2.6-15.2,5.4c2.4,2.9-1.5,4.8-2.7,1.9c-3.1,3.5-5.7-1.7-1.6-2.3C21.3,50.5,25.4,49.6,26,52.9
	L26,52.9z"/>
<g>
	<path class="st0" d="M91.9,47.1v27.7c0,10.9-8.9,19.8-19.9,19.8s-19.9-8.9-19.9-19.8V47.1H91.9 M92.9,46.1H51.1v28.7
		c0,11.4,9.4,20.8,20.9,20.8s20.9-9.4,20.9-20.8V46.1L92.9,46.1z"/>
</g>
<path class="st0" d="M71.1,66.4c0.2,0.2,0.6,0,0.8-0.3c0.3-0.5,0.3-1.2,0.3-1.8c0-0.7,0.1-1.3-0.2-2c-0.4-1.1-0.9-2.1-2.2-2.3
	c-0.2,0-0.4,0.2-0.3,0.3c0.9,0.9,1.2,0.9,1.4,2.3C71.1,64,71,66.4,71.1,66.4L71.1,66.4z M62.1,83.1c0.2,0,0.6-0.5,0.8-0.8
	C63,82,63,81.5,63,81.4s-0.5,0.1-0.8,0.1s-0.4,0-0.8-0.1c-0.3,0-0.3-0.8-0.3-1.3C61,79,61,77.9,61,76.8c0-0.3,0.1-0.7,0.3-0.8
	c0.3-0.2,0.8-0.2,1.2-0.1c0.8,0.1,1.5,0.5,2.3,0.7c0.4,0.1,0.9,0,1.3-0.1s0.7-0.4,1-0.5c0.2-0.1,0.4-0.1,0.6,0c0.6,0.3,1,1,1.7,1.2
	c0.8,0.3,1.7,0.1,2.5,0.2c0.7,0,1.4-0.1,2,0c0.3,0,0.8,0.1,0.8,0.4c0.1,0.4-0.6,0.8-0.5,1.3c0.2,0.7,0.9,1,1.3,1.6
	c0.1,0.2,0.1,0.5,0,0.8c-0.1,0.2-0.4,0.2-0.6,0.4c-0.2,0.3-0.2,0.6-0.4,0.9c-0.2,0.3-0.5,0.5-0.8,0.8c-0.6,0.5-1.2,1-1.9,1.3
	C71.6,85,71.1,84.8,71,85c-0.2,0.4-0.4,1-0.6,1.3c-0.2,0.3-0.5,0.3-0.6,0.5s-0.4,0.5-0.3,0.6s1,0,1.3,0s0.5-0.1,0.6-0.2
	s-0.1-0.4-0.1-0.9c-0.1-0.6,1.5-0.8,2.3-1.3s1.6-1.1,2.4-1.6c0.3-0.2,0.8-0.2,1.1-0.5c0.1-0.1,0.1-0.4,0.1-0.6
	c0-0.5-0.1-0.9-0.1-1.4c0-0.2,0-0.5,0.2-0.7c0.1-0.1,0.4-0.2,0.6-0.1c0.3,0.2,0.3,0.6,0.6,0.8c0.4,0.3,0.9,0.4,1.3,0.6
	s1,0.2,1.1,0.6c0.1,0.7-0.4,1.4-0.7,2c-0.2,0.3-0.5,0.5-0.7,0.8c-0.1,0.2-0.1,0.4-0.3,0.6c-0.4,0.4-0.9,0.6-1.3,1
	c-0.3,0.3-0.5,0.6-0.7,0.9c-0.1,0.2-0.1,0.4-0.3,0.6c-0.1,0.2-0.4,0.2-0.5,0.5s-0.5,1.1-0.2,1s1.9-0.3,2-0.5s-0.1-0.6-0.2-1.1
	s1.1-0.9,1.7-1.3c0.3-0.2,0.8-0.1,1.1-0.3c0.2-0.1,0.1-0.5,0.2-0.7c0.1-0.3,0.3-0.7,0.5-1c0.3-0.4,0.9-0.5,1.2-0.9
	c0.3-0.5,0.6-1,0.5-1.6c-0.1-0.4-0.6-0.6-0.9-0.9c-0.2-0.3-0.5-0.5-0.6-0.8c-0.1-0.5-0.2-1-0.1-1.4c0.2-0.6,0.7-0.9,1.1-1.4
	c0.3-0.4,0.7-0.8,0.8-1.3c0.1-0.6-0.1-1.2-0.2-1.8c0-0.1-0.1-0.3,0-0.3c0.4-0.3,0.8-0.8,1.3-0.8c0.5-0.1,0.9,0.4,1.4,0.5
	s1,0.1,1.5-0.1c0.2-0.1,0.2-0.4,0.1-0.5c-0.3-0.3-1-0.2-1.2-0.6c-0.1-0.3,0.6-0.4,0.8-0.8c0.2-0.4,0.5-0.9,0.4-1.4
	c0-0.2-0.4-0.2-0.5-0.1c-0.2,0.1-0.2,0.5-0.4,0.7c-0.2,0.1-0.4,0.2-0.6,0.2s-0.5-0.1-0.6-0.3c-0.1-0.2-0.2-0.5-0.1-0.6
	c0.4-0.3,0.9-0.1,1.3-0.3c0.2,0,0.4-0.1,0.5-0.3c0.1-0.3,0.1-0.6,0-0.9c-0.1-0.1-0.3-0.1-0.4-0.1c-0.2,0.1-0.3,0.3-0.5,0.3
	c-0.3,0-0.6-0.1-0.8-0.3c-0.1-0.2-0.2-0.5-0.1-0.7c0.2-0.3,0.6-0.4,0.8-0.8c0.2-0.4,0.4-1,0.3-1.4c0-0.2-0.4-0.3-0.6-0.2
	c-0.2,0.1-0.2,0.5-0.3,0.7c-0.2,0.3-0.3,0.7-0.6,0.8c-0.2,0.1-0.5-0.1-0.6-0.3c-0.1-0.4,0.1-0.7,0.3-1.1c0.1-0.4,0.3-0.8,0.6-1.1
	c0.3-0.3,0.7-0.5,0.9-0.8c0.2-0.3,0.3-0.7,0.1-0.9c-0.1-0.2-0.5,0-0.7,0.1s-0.1,0.4-0.2,0.5c-0.4,0.2-0.9,0-1.3,0.3
	c-0.3,0.2-0.5,0.5-0.7,0.8c-0.4,0.6-0.4,1.6-0.5,1.7s-0.5,0.1-0.6-0.1c-0.2-0.2,0.1-0.6-0.1-0.8c-0.2-0.2-0.5-0.1-0.7,0
	c0.1,0.1,0.1,0.4,0.1,0.7c0,0.4,0.1,0.9,0.3,1.3c0.3,0.6,0.9,1.1,1.3,1.7s0.9,1.1,1.2,1.8c0.2,0.4,0.2,0.9,0,1.3s-0.5,0.8-0.9,0.8
	c-0.5,0-0.9-0.6-1.4-0.9c-0.4-0.3-0.8-0.7-1.3-0.8c-1.1-0.2-2.2,0-3.4,0c-1,0-2,0.1-3,0c-0.5-0.1-1-0.2-1.4-0.6
	c-0.3-0.3-0.6-0.8-0.6-1.3c0-0.6,0.2-1.2,0.4-1.8c0.2-0.4,0.5-0.8,0.8-1s0.8-0.3,1.1-0.2c0.3,0.1,1.2,1.4,1.4,1.3
	c0.2-0.1,0.1-1.2-0.1-1.5c-0.2-0.5-0.7-0.8-0.9-1.3c-0.1-0.1,0.2-0.3,0.3-0.3c0.3,0,0.6,0.2,0.8,0.4c0.1,0.1,0.8,1,0.9,0.9
	c0.2,0-0.1-1.3-0.3-1.7c-0.2-0.5-1-0.9-1.1-1s0-0.2,0.1-0.2c0.3,0,0.6,0.2,0.8,0.3c0.3,0.1,0.6,0.4,0.8,0.3c0.1-0.1,0-0.5-0.2-0.7
	c-0.5-0.6-1.2-1-1.8-1.6c-0.3-0.3-0.6-0.7-0.6-1.1c0-0.3,0.3-0.5,0.5-0.6c0.4-0.2,1-0.3,1.4-0.5c0.2-0.1,0-0.2-0.1-0.2
	c-0.6-0.3-1.3-0.3-1.9-0.3c-0.4,0-0.7,0.2-1.1,0.3c-0.3,0.1-0.5,0.2-0.8,0.2c-0.5,0-1,0.1-1.3-0.2c-0.2-0.2,0-0.6,0.2-0.8
	c0.1-0.2,0.4-0.4,0.6-0.6c0.1-0.1,0.6-0.3,0.4-0.3c-0.2-0.1-0.9,0-1.3,0.1s-0.7,0.2-1,0.5c-0.3,0.2-0.2,0.7-0.5,0.9
	c-0.6,0.3-0.9,0.2-1.5,0.5c-0.2,0.1-0.5,0.5-0.6,0.5c-0.8,0.1-2.3-0.3-2.4-0.2s1.2,0.9,1.4,1.5c0.1,0.3-0.6-0.1-0.9-0.1
	c-0.5,0.1-0.9,0.1-1.4,0.3c-0.4,0.2-0.7,0.5-1,0.8s-0.4,0.7-0.8,0.9c-0.2,0.1-0.5-0.1-0.6,0.1c-0.1,0.2-0.2,0.6,0.1,0.6l1.3,0.1
	c0.3,0-0.2,0.5-0.1,0.8c0.1,0.2,0.4,0.1,0.6,0c0.2-0.1,0.3-0.4,0.5-0.5c0.2-0.2,0.5-0.3,0.8-0.3c0.3,0,0.8,0.1,0.9,0.4
	c0.1,0.3-0.2,0.6-0.3,0.9s0.2,0.8-0.1,1c-0.7,0.7-1,0.1-2,1.4C63,68.6,63.3,68,63,69.3c-0.1,0.3-0.1,0.6-0.3,0.8
	c-0.2,0.2-0.6,0.2-0.8,0.1c-0.5-0.3-0.8-0.7-1.1-1.2c-0.2-0.2-0.1-0.7-0.3-0.8c-0.3-0.2-0.8-0.2-1.2-0.1c-0.3,0.1-0.4,0.4-0.6,0.7
	c-0.4,0.5-0.7,1.1-1,1.7c-0.3,0.4-0.7,0.8-0.9,1.3c-0.1,0.2-0.1,0.5-0.2,0.8c-0.3,0.6-0.5,1.3-0.8,1.9c-0.1,0.2-0.4,0.4-0.5,0.7
	c-0.1,0.3,0,0.9,0.2,0.9c0.1,0,0.6-0.4,0.9-0.5c0.3-0.2,1-0.3,1-0.4s-0.3-0.4-0.5-0.7c-0.3-0.4,0.4-1,0.7-1.5
	c0.1-0.2,0.3-0.2,0.4-0.4c0.2-0.4,0.2-0.9,0.4-1.3c0.3-0.5,0.5-1,0.9-1.4c0.2-0.2,0.5-0.3,0.8-0.2c0.4,0.3,0.5,0.8,0.7,1.2
	c0.2,0.3,0.4,0.6,0.5,0.9s-0.2,0.7,0,0.9c0.2,0.3,0.7,0.4,1.1,0.4l0.8,0.1l0.1,1.2c0,0.4-0.9,0.1-1.4,0.2c-0.4,0.1-0.8,0.2-1.2,0.3
	c-0.4,0.1-1.1-0.2-1.2,0.2c-0.3,1.6,0.1,3.3,0.2,5c0,0.5-0.2,1.2,0.2,1.3l0.8,0.3c0.1,0.3,0.3,0.8,0.4,1
	C61.6,83,61.9,83.1,62.1,83.1L62.1,83.1z"/>
<path class="st0" d="M88.4,51.3c0-0.3-0.2-0.5-0.7-0.5h-1.6c-0.4,0-0.7,0.2-0.7,0.5s0.2,0.5,0.7,0.5h0.3v3c0,0.5,0.2,0.8,0.5,0.8
	s0.5-0.3,0.5-0.8v-3h0.4C88.1,51.8,88.4,51.6,88.4,51.3L88.4,51.3z M83.7,52.3c0,0.4-0.2,0.6-0.6,0.6h-0.4v-1.1h0.4
	C83.5,51.8,83.7,52,83.7,52.3L83.7,52.3z M84.8,55c0-0.2-0.1-0.4-0.3-0.6l-0.7-0.9c0.6-0.1,1-0.6,1-1.3c0-0.9-0.6-1.5-1.6-1.5h-0.7
	c-0.5,0-0.7,0.2-0.7,0.7v3.2c0,0.5,0.2,0.8,0.5,0.8s0.5-0.3,0.5-0.8v-1.1l1.1,1.6c0.2,0.2,0.3,0.4,0.5,0.4
	C84.6,55.5,84.8,55.3,84.8,55L84.8,55z M79.7,53.6h-1l0.5-1.7L79.7,53.6L79.7,53.6z M81,55c0-0.1,0-0.2-0.1-0.3l-1-3.4
	c-0.1-0.4-0.4-0.6-0.7-0.6c-0.3,0-0.6,0.2-0.7,0.7l-1.1,3.3c0,0.1,0,0.2,0,0.3c0,0.3,0.2,0.5,0.4,0.5c0.2,0,0.4-0.2,0.5-0.5l0.1-0.5
	h1.5l0.1,0.4c0.1,0.4,0.3,0.5,0.5,0.5C80.8,55.5,81,55.3,81,55L81,55z M76.7,53.3c0-0.5-0.2-0.7-0.6-0.7h-0.6
	c-0.4,0-0.6,0.2-0.6,0.5s0.2,0.5,0.6,0.5h0.3c0,0.6-0.3,0.9-0.7,0.9c-0.5,0-0.9-0.6-0.9-1.5s0.4-1.4,0.9-1.4s0.8,0.5,1,0.5
	s0.4-0.2,0.4-0.5c0-0.5-0.5-1-1.4-1c-1.1,0-1.9,1-1.9,2.5s0.7,2.5,1.8,2.5C76,55.6,76.7,54.6,76.7,53.3L76.7,53.3z M73,51.3
	c0-0.3-0.2-0.5-0.7-0.5h-1.6c-0.4,0-0.7,0.2-0.7,0.5s0.2,0.5,0.7,0.5H71v3c0,0.5,0.2,0.8,0.5,0.8s0.5-0.3,0.5-0.8v-3h0.3
	C72.8,51.8,73,51.6,73,51.3L73,51.3z M69.8,51.3c0-0.3-0.2-0.5-0.7-0.5h-1.6c-0.5,0-0.7,0.2-0.7,0.5s0.2,0.5,0.7,0.5h0.3v3
	c0,0.5,0.2,0.8,0.5,0.8c0.3,0,0.5-0.3,0.5-0.8v-3h0.4C69.6,51.8,69.8,51.6,69.8,51.3L69.8,51.3z M66.3,53.4v-2
	c0-0.5-0.2-0.8-0.5-0.8c-0.3,0-0.5,0.3-0.5,0.8v1.9c0,0.8-0.3,1.2-0.8,1.2c-0.5,0-0.8-0.4-0.8-1.2v-1.9c0-0.5-0.2-0.8-0.5-0.8
	s-0.5,0.3-0.5,0.8v2c0,1.4,0.7,2.1,1.8,2.1C65.6,55.6,66.3,54.8,66.3,53.4L66.3,53.4z M62.4,51.3c0-0.3-0.2-0.5-0.7-0.5h-1.6
	c-0.4,0-0.7,0.2-0.7,0.5s0.2,0.5,0.7,0.5h0.4v3c0,0.5,0.2,0.8,0.5,0.8s0.5-0.3,0.5-0.8v-3h0.3C62.2,51.8,62.4,51.6,62.4,51.3
	L62.4,51.3z M59.1,54c0-0.7-0.4-1.1-1.1-1.4c-0.5-0.2-0.8-0.2-0.8-0.6c0-0.2,0.2-0.4,0.5-0.4c0.2,0,0.5,0.2,0.7,0.2
	c0.3,0,0.4-0.2,0.4-0.5c0-0.4-0.4-0.7-1.1-0.7c-0.9,0-1.5,0.6-1.5,1.5c0,0.7,0.4,1.1,1.2,1.3c0.4,0.2,0.7,0.3,0.7,0.6
	s-0.2,0.5-0.5,0.5c-0.4,0-0.8-0.2-1-0.2c-0.3,0-0.5,0.2-0.5,0.5c0,0.4,0.6,0.8,1.3,0.8C58.5,55.6,59.1,54.9,59.1,54L59.1,54z"/>
</svg>
