<?xml version="1.0" encoding="utf-8"?>
<!-- Generator: Adobe Illustrator 21.0.2, SVG Export Plug-In . SVG Version: 6.00 Build 0)  -->
<svg version="1.1" id="Layer_1" xmlns="http://www.w3.org/2000/svg" xmlns:xlink="http://www.w3.org/1999/xlink" x="0px" y="0px"
	 viewBox="0 0 250 250" style="enable-background:new 0 0 250 250;" xml:space="preserve">
<style type="text/css">
	.st0{fill:#161314;}
</style>
<path class="st0" d="M204.6,244.8h-97c-2.2,0-4-1.8-4-4v-134c0-1.3,0.6-2.4,1.6-3.2l48.5-36.7c1.4-1.1,3.4-1.1,4.8,0l48.5,36.7
	c1,0.8,1.6,1.9,1.6,3.2v134C208.5,243,206.8,244.8,204.6,244.8z M111.6,236.8h89v-128l-44.5-33.7l-44.5,33.7
	C111.6,108.8,111.6,236.8,111.6,236.8z"/>
<path class="st0" d="M156.1,125.6c-8.4,0-15.3-6.9-15.3-15.3S147.7,95,156.1,95c8.4,0,15.3,6.9,15.3,15.3S164.5,125.6,156.1,125.6z
	 M156.1,102.9c-4,0-7.3,3.3-7.3,7.3s3.3,7.3,7.3,7.3s7.3-3.3,7.3-7.3S160.1,102.9,156.1,102.9z"/>
<path class="st0" d="M107.6,237.7c-0.3,0-0.7,0-1-0.1L58,224.7c-1.1-0.3-1.9-1-2.5-1.9c-0.5-1-0.6-2.1-0.3-3.1L95.7,90.2
	c0.4-1.2,1.3-2.1,2.4-2.5l56.3-21.1c1.9-0.7,3.9,0.1,4.9,1.8c1,1.7,0.5,3.9-1.1,5.1l-46.6,35.3v124.9c0,1.2-0.6,2.4-1.6,3.2
	C109.3,237.4,108.5,237.7,107.6,237.7z M64,218l39.6,10.5V106.8c0-1.3,0.6-2.4,1.6-3.2l26.3-19.9l-28.8,10.8L64,218z"/>
<path class="st0" d="M62.5,213.9c-0.7,0-1.3-0.2-1.9-0.5l-28-15.5c-1.9-1.1-2.6-3.5-1.6-5.4L93.3,77.3c0.6-1.1,1.7-1.9,2.9-2
	l59.1-8.9c1.8-0.3,3.6,0.7,4.3,2.4c0.7,1.7,0.2,3.6-1.3,4.7c-0.3,0.2-0.7,0.5-1.1,0.6l-54.5,20.4L66.3,211.1
	c-0.4,1.1-1.2,2.1-2.3,2.5C63.5,213.8,63,213.9,62.5,213.9z M40,192.8L60.2,204L95.7,90.2c0.4-1.2,1.3-2.1,2.4-2.6l20.8-7.8l-19.6,3
	L40,192.8z"/>
<rect x="128.9" y="151" class="st0" width="54.5" height="8"/>
<rect x="128.9" y="176.3" class="st0" width="54.5" height="8"/>
<rect x="116.9" y="199.9" class="st0" width="54.5" height="8"/>
<path class="st0" d="M155.8,74.3c-1.2,0-2.4-0.6-3.1-1.5c-0.6-0.8-15.1-19.2-15.1-40.1c0-15.2,2.2-30.6,18.2-30.6S174,17.6,174,32.7
	c0,20.9-14.5,39.3-15.1,40.1C158.2,73.8,157,74.3,155.8,74.3z M155.8,10.1c-4.1,0-10.2,0-10.2,22.6c0,12.4,6.3,24.3,10.2,30.6
	c3.9-6.2,10.2-18.1,10.2-30.6C166,10.1,159.9,10.1,155.8,10.1z"/>
</svg>
