<?xml version="1.0" encoding="utf-8"?>
<!-- Generator: Adobe Illustrator 21.0.2, SVG Export Plug-In . SVG Version: 6.00 Build 0)  -->
<svg version="1.1" id="Layer_1" xmlns="http://www.w3.org/2000/svg" xmlns:xlink="http://www.w3.org/1999/xlink" x="0px" y="0px"
	 viewBox="0 0 144 144" style="enable-background:new 0 0 144 144;" xml:space="preserve">
<style type="text/css">
	.st0{fill:#161314;}
	.st1{fill:none;stroke:#FFFFFF;stroke-width:5.296808e-02;stroke-miterlimit:2.613;}
	.st2{fill:none;stroke:#E29F00;stroke-width:5.296808e-02;stroke-miterlimit:2.613;}
</style>
<g>
	<polygon class="st0" points="80.5,105.2 85.6,105.2 83,99 	"/>
	<path class="st0" d="M105.2,100.3c0-0.7-0.5-1.2-1.1-1.2h-5.3v2.5h5.3C104.7,101.5,105.2,100.9,105.2,100.3z"/>
	<path class="st0" d="M72,4.6C34.7,4.6,4.5,34.8,4.5,72.1c0,37.2,30.2,67.4,67.5,67.4c37.3,0,67.5-30.1,67.5-67.4S109.3,4.6,72,4.6z
		 M56.2,36.9c1.6,0,3.4,0.6,5.4,1.7c0.3-1.4,1.1-2.9,2.1-3.6l-6.9-16.7c2.9,0,5.9,1.2,5.9,3.7c0,0.8-0.3,1.6-0.9,2.5
		c0,0.1,0,0.1,0.1,0.1H62c0.5-0.6,1.3-1,2-1c1.6,0,2.8,1.3,2.8,2.8c0,1.6-1.2,2.8-2.8,2.8c-0.1,0-0.4,0-0.5-0.1
		c0.1,0.7,2.1,1.7,4.3,1.7c1.8,0,3.8-0.6,4.9-2.8c-0.4,0.3-1,0.5-1.6,0.5c-1.6,0-2.8-1.2-2.8-2.8c0-1.4,1.2-2.8,2.8-2.8
		c0.5,0,1.1,0.3,1.5,0.5c-0.5-0.5-0.9-1.2-0.9-2.1c0-1.5,1.2-2.7,2.8-2.7c1.5,0,2.7,1.2,2.7,2.7c0,0.8-0.2,1.5-0.7,2
		c0.4-0.3,0.9-0.4,1.4-0.4c1.5,0,2.7,1.3,2.7,2.8c0,1.6-1.2,2.8-2.7,2.8c-0.7,0-1.3-0.2-1.8-0.6c0.3,1.2,2.4,3.2,5,3.2
		c1.4,0,2.9-0.5,4.4-2c-0.1,0.1-0.4,0.1-0.5,0.1c-1.6,0-2.8-1.2-2.8-2.8c0-1.4,1.2-2.8,2.8-2.8c0.8,0,1.5,0.4,2,1h0.1
		c0.1,0,0.2,0,0.2-0.1c-0.8-0.9-1-1.8-1-2.5c0-2.5,2.9-3.7,5.9-3.7l-6.8,16.3c0.3,0.5,0.8,1,1.2,1.6c1.4-0.6,2.9-0.7,3.9-0.7
		c1.1,0,1.8,0.1,2,0.2c0,0,0.8,0.2,1,0.4c-1,2.3-1.8,3.5-2.5,4.9c3.6,3.6,4.9,8.3,4.2,14.3c-1-0.7-3-1.6-4.2-1.8
		c1.9,3,2.5,5.4,2.5,8.4c0,2.1-0.3,4.3-1.2,6.3l-0.7,1.6c-1-1.6-2-2.7-3.2-3.7c0.2,1,0.6,3.1,0.6,4.6c0,3.9-1.4,7.4-5,9.6
		c-0.6-1.9-2.2-4.6-3.6-6.3c0.1,3.7,0,7.8-1.4,10.6c-2.7,3.5-6.5,5.7-12.3,7.1c1-2.4,1.9-8.8,1.4-16.7c-1.2,1.7-2.5,5-3,9.2
		c-1.3-1.1-5.5-4.5-5.5-10c0-2.2,0.7-4.6,2.2-6.9c-2.1,0.7-3.4,2.2-4.8,4.9c-0.5-3.9,0.1-8.3,2.2-11.4c-5-0.2-6.6-3.1-6.4-7.7
		c1.6,1.2,3.1,2.1,5.3,2.1c2.1,0,4.8-0.8,7.5-4.4c-1.2-0.8-2.5-1.1-3.2-1.5c-1.1-0.3-2.7-0.6-4.2-2.6c-0.6-0.8-1.5-1-2.7-1
		c-1.5,0-3.6,0.5-6.9,2.1C48.9,39.5,52.9,36.9,56.2,36.9z M47.3,49.7c3.1,0,5.4-1.1,7.5-1.1c1.6,0,4.3,0.9,5.5,3.7
		c-0.7-0.7-2.1-1.4-4.6-1.4c-1.6,0-4.7,1.7-7.3,1.7c-3.9,0-6.3-3.3-7.5-6.3C42.2,47.5,44.2,49.7,47.3,49.7z M108.2,111.8h-20
		l-1.1-2.7H79l-1.1,2.7H70l-1.1-2.7h-8.2l-1,2.7h-6.4l0.6-1.5c-1,0.9-2.7,1.8-8.4,1.8c-5.5,0-10.3-1.1-10.5-5.7h7.3
		c0,1.1,0.7,2.2,3.1,2.2c2.8,0,3.1-1,3.1-1.6c0-1.1-0.7-1.8-4.2-1.8c-5,0-8.6-0.9-8.6-4.9c0-4.7,5.3-5.7,9.6-5.7
		c5.3,0.2,10.2,1,10.2,5.6h-7.3c0-2-1.2-2.2-3-2.2c-1.6,0-2.6,0.5-2.6,1.6c0,1.2,0.9,1.6,3.4,1.6c6.5,0,9.3,1.2,9.8,4.2L60.2,95h9.2
		l4.6,11.1L78.5,95h9.2l5,12.3V95h14.8c3.7,0,4.7,2.7,4.7,4.2s-0.6,3.4-3.4,3.8c3.2,0.4,3.9,2.8,3.9,4.3
		C112.7,109,111.5,111.8,108.2,111.8z"/>
	<polygon class="st0" points="62.2,105.2 67.3,105.2 64.8,99 	"/>
	<path class="st0" d="M104.4,105.1h-5.7v2.3h5.7c0.6,0,1.1-0.5,1.1-1.2C105.5,105.6,105,105.1,104.4,105.1z"/>
</g>
<path class="st1" d="M133.4,72.1c0,33.9-27.5,61.4-61.4,61.4S10.6,106,10.6,72.1S38.1,10.7,72,10.7
	C105.9,10.7,133.4,38.2,133.4,72.1L133.4,72.1z"/>
<path class="st2" d="M133.4,72.1c0,33.9-27.5,61.4-61.4,61.4S10.6,106,10.6,72.1S38.1,10.7,72,10.7
	C105.9,10.7,133.4,38.2,133.4,72.1L133.4,72.1z"/>
<path d="M67.8,41.1c0.4,0,0.9,0,1.2,0.1c-0.5,2.2-2.1,2.6-3.2,2.6c-1.4,0-2.8-0.6-2.8-2.7c0.2,0.1,0.6,0.1,0.9,0.1
	c0.2,0.6,0.7,1.4,2,1.4C67.1,42.6,67.7,41.8,67.8,41.1L67.8,41.1z"/>
<path class="st0" d="M61.2,40.6c-0.2,1.7,0.5,4.8,4.6,4.8c1.5,0,3.8-0.7,4.6-3.9c0.2,0,0.5,0.1,0.7,0.2c0.4-0.4,0.6-0.7,0.9-1.4
	c-1.4-0.9-3.6-1-4.9-1c-0.9,0-1.6,0.1-2.3,0.1c-0.6,0-1.4-0.1-1.8-0.2c0.4-1.5,1-2.8,1.7-2.8h19.9c0.1,0.1,0.4,0.4,0.4,0.6
	c-1.8,1.1-3.6,2.7-5,4.7c0.2,0.4,0.9,0.9,1.4,1.1c3.4-4.6,7.3-5.4,9.6-5.3c-3.6,7.3-10.6,9.8-16.4,10.5c4.9,1.8,8.2,4.7,5,10.1
	c-1.1-2.7-2.7-4.3-5.8-5.9c2.1,6.3,0.5,9.7-1.5,11.7c-0.1-1.4-0.6-4.3-1.5-6.4c-0.9,1.2-1.8,2.3-2.8,3.1c-0.1,0.7,0,1.8,0.1,2.3
	c0.7-0.5,1.5-1.1,1.8-1.6c0.4,1.8,0.7,3.8,0.5,6c5.8-2.7,6.4-7.9,6.1-10.6c1.4,1.6,2,3.4,2.3,5.5c4.1-4.9,5.3-10,1-13.4
	c4.9-1.7,7.4-3.4,10-6.4c3,3,3.7,6.8,3.6,10c-1.7-0.6-3.4-1.1-6.5-1.1c2,1.8,4.7,5.4,4.7,10.5c0,1.5-0.2,2.8-0.6,4.2
	c-1.7-1.8-3.7-2.8-5.9-3.7c1,2.3,2,5,2,8.4c0,2.8-0.9,5-2.5,6.6c-1.2-2.6-3.6-5.8-6.4-7.5c0.5,5.2,0.4,11.4-0.9,13.8
	c-2.2,2.8-4.9,4.3-8,5.4c0.6-3.2,1.1-11.3,0-18.7c-1.7,1.6-4.4,4.9-5.5,10.2c-1-1.1-2.5-3-2.5-6.3c0-3.2,1.7-6.4,4.7-9.6
	c-2.5,0.1-4.8,0.5-7.1,2.2c0.5-4.1,2.7-6.6,5.3-8.6c-2.6,0.5-3.8,0.8-5.1,0.8c-1.6,0-3.6-0.5-4.2-2.5c0.7,0.2,1.8,0.5,3,0.5
	c2.6,0,5.8-1.1,9-5.4c0.4-0.4,0.5-0.7,0.5-1c0-1.6-3.3-2.8-5.3-3.3c-0.2-0.1-1.6-0.4-2.6-1.8c-1.1-1.1-2.5-1.6-4.2-1.6
	c-1.4,0-2.8,0.4-4.7,1c0.5-2.3,1.8-6,5.4-6C57.5,38.8,59.3,39.4,61.2,40.6L61.2,40.6z"/>
<path class="st0" d="M84.4,34.7H65.5l-0.8-2h20.4L84.4,34.7L84.4,34.7z"/>
</svg>
