<?xml version="1.0" encoding="utf-8"?>
<!-- Generator: Adobe Illustrator 21.0.2, SVG Export Plug-In . SVG Version: 6.00 Build 0)  -->
<svg version="1.1" id="Layer_1" xmlns="http://www.w3.org/2000/svg" xmlns:xlink="http://www.w3.org/1999/xlink" x="0px" y="0px"
	 viewBox="0 0 144 144" style="enable-background:new 0 0 144 144;" xml:space="preserve">
<style type="text/css">
	.st0{fill:#161314;}
</style>
<path class="st0" d="M57,41.7c0.5-13.4,5-26.4,12.8-37.3h56v2.7C101.3,14.3,76.6,26.8,57,41.7z M115,112.3
	c-30-4.7-53.6-28.8-57.5-59.1c2.6-2.5,5.3-4.8,8.1-7c18-14,34.4-23.3,60.2-32.9v99H115z"/>
<path class="st0" d="M96,112.3c-22.2-9.7-38.7-30-43.2-54.4c-10.1,11-15,21.9-14.7,30.1c0.5,15.5,15.5,24.4,36.7,24.4L96,112.3
	L96,112.3z M51.6,46c0-0.5,0-1,0-1.5c0-14.7,4.3-28.5,11.8-40H14.9v95.9h2.7c0-2.5,0-4.5,0.5-7.5C21.2,77,33.9,60.5,51.6,46z
	 M31.9,123.2v-3.8H20.7c-4.3,0-6.4,2.6-6.4,6.4c0,3.8,2.5,6.2,6.7,6.2h5c2.4,0,2.7,2.1,2.7,2.6c0,0.6-0.1,2.9-3,2.9H14.9v3.9h11.3
	c5.6,0,7-4.1,7-6.9c0-4.7-3.5-6.5-6.6-6.5h-5.4c-1.4,0-2.3-0.8-2.4-2.4c0-1.6,1.1-2.4,2.5-2.4H31.9L31.9,123.2z M46.8,119.4h-5.1
	l-8.5,22h4.6l6.3-16.9l6.1,16.9H55L46.8,119.4L46.8,119.4z M70.1,119.4H51.9v3.8h6.9v18.2h4.4v-18.2h6.9L70.1,119.4z M71.3,131.5
	c0,3.4-0.1,5.6,2.3,8s5.9,2.4,6.5,2.4s4.1,0,6.5-2.4s2.3-4.6,2.3-8v-8.4H95c2.2,0,3.4,1.1,3.4,3.1c0,2.2-1.6,3.2-3.6,3.2H92l6.7,12
	h5.1l-5.6-9.1c2.4-0.5,4.7-3,4.7-6.4c0-4.8-3.7-6.5-6.4-6.5h-12v14.5c0,1.4-1,4-4.3,4l0,0c-3.3,0-4.3-2.6-4.3-4v-14.5h-4.5
	L71.3,131.5L71.3,131.5L71.3,131.5z M105.7,141.4v-22h6.9l8.7,16.9v-16.9h4.4v22h-6.3l-9.2-17.7v17.7H105.7z M130,137.8
	c0-2.2,1.8-3.9,4-3.9l0,0c2.2,0,3.9,1.8,3.9,3.9l0,0c0,2.2-1.7,3.9-3.9,4l0,0C131.8,141.8,130,140,130,137.8L130,137.8z
	 M137.2,137.8c0-1.8-1.5-3.2-3.2-3.2c-1.8,0-3.3,1.5-3.3,3.2c0,1.8,1.4,3.3,3.3,3.3l0,0C135.7,141.1,137.2,139.6,137.2,137.8
	L137.2,137.8z M133.1,138.1v2h-0.7v-4.6h1.5c0.9,0,1.7,0.2,1.7,1.3c0,0.5-0.3,1-0.9,1.1l0,0c0.6,0.1,0.7,0.4,0.8,0.9
	c0.1,0.4,0.1,0.9,0.3,1.4h-0.9c-0.1-0.3-0.1-0.6-0.2-0.8c0-0.4,0-0.8-0.3-1c-0.2-0.2-0.4-0.2-0.7-0.2L133.1,138.1L133.1,138.1
	L133.1,138.1z M133.9,137.3c0.7,0,0.8-0.3,0.8-0.7c0-0.3-0.2-0.5-0.7-0.5h-0.9v1.2H133.9z"/>
</svg>
