<?xml version="1.0" encoding="utf-8"?>
<!-- Generator: Adobe Illustrator 21.0.2, SVG Export Plug-In . SVG Version: 6.00 Build 0)  -->
<svg version="1.1" id="Layer_1" xmlns="http://www.w3.org/2000/svg" xmlns:xlink="http://www.w3.org/1999/xlink" x="0px" y="0px"
	 viewBox="0 0 250 250" enable-background="new 0 0 250 250" xml:space="preserve">
<path fill="#161314" d="M127.4,7.1c35,0,70,0,105,0c7.5,0,11.7,4.2,11.7,11.6c0,45.9,0,91.8,0,137.7c0,2.4-0.8,4.2-2.5,5.9
	c-11.6,11.5-23.1,23-34.6,34.6c-1.7,1.7-3.5,2.4-6,2.4c-59.8,0-119.5,0-179.3,0c-7.3,0-11.6-4.2-11.6-11.5c0-56.4,0-112.7,0-169.1
	c0-7.4,4.2-11.6,11.7-11.6C57.1,7.1,92.3,7.1,127.4,7.1z M233.7,69.6c-71.1,0-141.9,0-212.8,0c0,39.9,0,79.6,0,119.3
	c58.9,0,117.6,0,176.5,0c0-0.9,0-1.7,0-2.4c0-7.7,0-15.4,0-23.2c0-6.1,4.5-10.6,10.7-10.7c6.8,0,13.6,0,20.4,0c1.7,0,3.4,0,5.2,0
	C233.7,124.9,233.7,97.3,233.7,69.6z M233.7,17.7c-71.1,0-142,0-212.9,0c0,13.8,0,27.5,0,41.3c71,0,141.9,0,212.9,0
	C233.7,45.1,233.7,31.5,233.7,17.7z M207.9,180.8c5.9-5.9,11.8-11.8,17.7-17.6c-5.7,0-11.6,0-17.7,0
	C207.9,169.1,207.9,175,207.9,180.8z"/>
<path fill="#161314" d="M80.4,87.8c0,12.1,0,24,0,36.1c-10.3,0-20.6,0-31,0c0-11.9,0-23.9,0-36.1C59.7,87.8,69.9,87.8,80.4,87.8z"/>
<path fill="#161314" d="M121.9,123.9c-10.3,0-20.5,0-30.9,0c0-12,0-24,0-36.1c10.3,0,20.5,0,30.9,0
	C121.9,99.8,121.9,111.7,121.9,123.9z"/>
<path fill="#161314" d="M132.5,87.8c10.3,0,20.5,0,30.9,0c0,12,0,24,0,36.1c-10.3,0-20.5,0-30.9,0C132.5,111.9,132.5,100,132.5,87.8
	z"/>
<path fill="#161314" d="M205,123.9c-10.4,0-20.6,0-30.9,0c0-12,0-24,0-36.1c10.2,0,20.5,0,30.9,0C205,99.8,205,111.8,205,123.9z"/>
<path fill="#161314" d="M49.4,134.5c10.3,0,20.5,0,30.9,0c0,12,0,24,0,36.1c-10.3,0-20.5,0-30.9,0C49.4,158.7,49.4,146.7,49.4,134.5
	z"/>
<path fill="#161314" d="M121.9,170.8c-10.4,0-20.5,0-30.9,0c0-12,0-24,0-36.2c10.2,0,20.5,0,30.9,0
	C121.9,146.6,121.9,158.6,121.9,170.8z"/>
<path fill="#161314" d="M163.4,170.7c-10.4,0-20.6,0-30.9,0c0-12,0-24,0-36.1c10.2,0,20.5,0,30.9,0
	C163.4,146.5,163.4,158.5,163.4,170.7z"/>
<path fill="#161314" d="M197.4,38.3c0,5.8-4.8,10.4-10.6,10.3c-5.7-0.1-10.2-4.8-10.2-10.5c0-5.8,4.8-10.4,10.6-10.3
	C192.8,28,197.4,32.7,197.4,38.3z"/>
<path fill="#161314" d="M77.8,38.3c0,5.7-4.6,10.3-10.3,10.4c-5.8,0-10.5-4.6-10.5-10.4s4.7-10.4,10.5-10.4
	C73.2,28,77.8,32.6,77.8,38.3z"/>
</svg>
