<?xml version="1.0" encoding="utf-8"?>
<!-- Generator: Adobe Illustrator 21.0.2, SVG Export Plug-In . SVG Version: 6.00 Build 0)  -->
<svg version="1.1" id="Layer_1" xmlns="http://www.w3.org/2000/svg" xmlns:xlink="http://www.w3.org/1999/xlink" x="0px" y="0px"
	 viewBox="0 0 250 250" style="enable-background:new 0 0 250 250;" xml:space="preserve">
<style type="text/css">
	.st0{fill:#FFFCED;}
</style>
<path class="st0" d="M127.4,27.8c35,0,70,0,105,0c7.5,0,11.7,4.2,11.7,11.6c0,45.9,0,91.8,0,137.7c0,2.4-0.8,4.2-2.5,5.9
	c-11.6,11.5-23.1,23-34.6,34.6c-1.7,1.7-3.5,2.4-6,2.4c-59.8,0-119.5,0-179.3,0c-7.3,0-11.6-4.2-11.6-11.5c0-56.4,0-112.7,0-169.1
	c0-7.4,4.2-11.6,11.7-11.6C57.1,27.8,92.3,27.8,127.4,27.8z M233.7,90.3c-71.1,0-141.9,0-212.8,0c0,39.9,0,79.6,0,119.3
	c58.9,0,117.6,0,176.5,0c0-0.9,0-1.7,0-2.4c0-7.7,0-15.4,0-23.2c0-6.1,4.5-10.6,10.7-10.7c6.8,0,13.6,0,20.4,0c1.7,0,3.4,0,5.2,0
	C233.7,145.6,233.7,118,233.7,90.3z M233.7,38.4c-71.1,0-142,0-212.9,0c0,13.8,0,27.5,0,41.3c71,0,141.9,0,212.9,0
	C233.7,65.8,233.7,52.2,233.7,38.4z M207.9,201.5c5.9-5.9,11.8-11.8,17.7-17.6c-5.7,0-11.6,0-17.7,0
	C207.9,189.8,207.9,195.7,207.9,201.5z"/>
<path class="st0" d="M80.4,108.5c0,12.1,0,24,0,36.1c-10.3,0-20.6,0-31,0c0-11.9,0-23.9,0-36.1C59.7,108.5,69.9,108.5,80.4,108.5z"
	/>
<path class="st0" d="M121.9,144.6c-10.3,0-20.5,0-30.9,0c0-12,0-24,0-36.1c10.3,0,20.5,0,30.9,0
	C121.9,120.5,121.9,132.4,121.9,144.6z"/>
<path class="st0" d="M132.5,108.5c10.3,0,20.5,0,30.9,0c0,12,0,24,0,36.1c-10.3,0-20.5,0-30.9,0
	C132.5,132.6,132.5,120.7,132.5,108.5z"/>
<path class="st0" d="M205,144.6c-10.4,0-20.6,0-30.9,0c0-12,0-24,0-36.1c10.2,0,20.5,0,30.9,0C205,120.5,205,132.5,205,144.6z"/>
<path class="st0" d="M49.4,155.2c10.3,0,20.5,0,30.9,0c0,12,0,24,0,36.1c-10.3,0-20.5,0-30.9,0C49.4,179.4,49.4,167.4,49.4,155.2z"
	/>
<path class="st0" d="M121.9,191.5c-10.4,0-20.5,0-30.9,0c0-12,0-24,0-36.2c10.2,0,20.5,0,30.9,0
	C121.9,167.3,121.9,179.3,121.9,191.5z"/>
<path class="st0" d="M163.4,191.4c-10.4,0-20.6,0-30.9,0c0-12,0-24,0-36.1c10.2,0,20.5,0,30.9,0
	C163.4,167.2,163.4,179.2,163.4,191.4z"/>
<path class="st0" d="M197.4,59c0,5.8-4.8,10.4-10.6,10.3c-5.7-0.1-10.2-4.8-10.2-10.5c0-5.8,4.8-10.4,10.6-10.3
	C192.8,48.7,197.4,53.4,197.4,59z"/>
<path class="st0" d="M77.8,59c0,5.7-4.6,10.3-10.3,10.4C61.7,69.4,57,64.8,57,59s4.7-10.4,10.5-10.4C73.2,48.7,77.8,53.3,77.8,59z"
	/>
</svg>
