<?xml version="1.0" encoding="utf-8"?>
<!-- Generator: Adobe Illustrator 21.0.2, SVG Export Plug-In . SVG Version: 6.00 Build 0)  -->
<svg version="1.1" id="Layer_1" xmlns="http://www.w3.org/2000/svg" xmlns:xlink="http://www.w3.org/1999/xlink" x="0px" y="0px"
	 viewBox="0 0 250 250" style="enable-background:new 0 0 250 250;" xml:space="preserve">
<style type="text/css">
	.st0{fill:#FFFCED;}
</style>
<g transform="translate(0,-952.36218)">
	<path class="st0" d="M64.2,998.9c-13.9,0-25.3,11.4-25.3,25.3s11.4,25.3,25.3,25.3s25.3-11.4,25.3-25.3
		C89.5,1010.3,78.2,998.9,64.2,998.9z M185.8,998.9c-13.9,0-25.3,11.4-25.3,25.3s11.4,25.3,25.3,25.3c13.9,0,25.3-11.4,25.3-25.3
		C211.1,1010.3,199.7,998.9,185.8,998.9z M125,1003.9c-16.7,0-30.4,13.7-30.4,30.4c0,16.7,13.7,30.4,30.4,30.4s30.4-13.7,30.4-30.4
		S141.7,1003.9,125,1003.9z M64.2,1009c8.5,0,15.2,6.7,15.2,15.2c0,8.5-6.7,15.2-15.2,15.2s-15.2-6.7-15.2-15.2
		C49,1015.7,55.8,1009,64.2,1009z M185.8,1009c8.5,0,15.2,6.7,15.2,15.2c0,8.5-6.7,15.2-15.2,15.2s-15.2-6.7-15.2-15.2
		C170.6,1015.7,177.3,1009,185.8,1009z M125,1014.1c11.2,0,20.3,9,20.3,20.3c0,11.2-9,20.3-20.3,20.3s-20.3-9-20.3-20.3
		S113.8,1014.1,125,1014.1z M66.8,1057.1c-14.1,0-26.9,3.1-36.6,8.7s-16.6,14.1-16.6,24.2v35.5c0,2.7,2.4,5.1,5.1,5.1h48.1v20.3
		c0,2.7,2.4,5.1,5.1,5.1h106.4c2.7,0,5.1-2.4,5.1-5.1v-20.3h48.1c2.7,0,5.1-2.4,5.1-5.1V1090c0-10.1-6.9-18.6-16.6-24.2
		c-9.7-5.6-22.5-8.7-36.6-8.7c-20.7,0-38.9,6.5-47.9,18.3c-3.4-0.3-6.8-0.6-10.4-0.6c-3.5,0-7,0.2-10.4,0.6
		C105.7,1063.6,87.5,1057.1,66.8,1057.1z M66.8,1067.2c15,0,28,4.4,35.5,10.2c-6.4,1.6-12.3,3.8-17.4,6.6
		c-10.6,6-18.1,15.2-18.1,26.2v10.1h-43V1090c0-5.5,3.8-11,11.6-15.4C43,1070.1,54.2,1067.2,66.8,1067.2z M183.2,1067.2
		c12.6,0,23.8,2.9,31.5,7.4s11.6,10,11.6,15.4v30.4h-43v-10.1c0-11-7.5-20.2-18.1-26.2c-5.1-2.9-11-5.1-17.4-6.6
		C155.3,1071.7,168.2,1067.2,183.2,1067.2z M125,1085c14,0,26.5,3.1,35.1,8s13,10.9,13,17.3v35.5H76.9v-35.5c0-6.4,4.4-12.5,13-17.3
		C98.5,1088.1,111,1085,125,1085z"/>
</g>
</svg>
