<?xml version="1.0" encoding="utf-8"?>
<!-- Generator: Adobe Illustrator 21.0.2, SVG Export Plug-In . SVG Version: 6.00 Build 0)  -->
<svg version="1.1" id="Layer_1" xmlns="http://www.w3.org/2000/svg" xmlns:xlink="http://www.w3.org/1999/xlink" x="0px" y="0px"
	 viewBox="0 0 250 250" style="enable-background:new 0 0 250 250;" xml:space="preserve">
<style type="text/css">
	.st0{fill:#FFFFFF;}
</style>
<path class="st0" d="M177.9,97.6c4.7,1.7,9.6,2.7,14.7,2.7c23.5-0.2,42.6-19.4,42.6-42.9c0-6.4-1.2-12.2-3.9-17.9
	c-0.7-1.5-2-2.4-3.4-2.7c-1.5-0.2-3.2,0.2-4.2,1.2l-27.9,28.2L183.6,54l27.9-27.7c1.2-1.2,1.7-2.7,1.2-4.2c-0.2-1.5-1.2-2.9-2.7-3.4
	c-5.4-2.4-11.3-3.7-17.6-3.7C169.1,14.8,150,33.9,150,57.4c0,4.9,0.7,9.6,2.7,14.2l-80.6,80.6c-4.4-1.5-9.3-2.4-14.5-2.4
	c-23.8,0.2-42.9,19.4-42.9,42.9c0,6.4,1.2,12.2,3.9,17.9c0.7,1.5,2,2.4,3.4,2.7c1.5,0.2,3.2-0.2,4.2-1.2l27.9-28.2L66.4,196
	l-27.9,27.7c-1,1-1.5,2.7-1.2,4.2c0.2,1.5,1.2,2.9,2.7,3.4c5.4,2.4,11.3,3.7,17.6,3.7c23.5,0,42.6-19.1,42.6-42.6
	c0-5.1-1-10-2.7-14.7L177.9,97.6z M57.4,225.7c-2.4,0-4.7-0.2-6.9-0.7l26-26c1-1,1.5-2.2,1.5-3.4s-0.5-2.4-1.5-3.4l-18.9-18.9
	c-2-2-4.9-2-6.6,0l-26,26.5c-0.5-2.2-0.7-4.7-0.7-7.1c0-18.4,14.9-33.1,33.1-33.1c5.1,0,9.6,1,13.7,2.7c1.7,0.7,3.9,0.5,5.4-1l85-85
	c1.5-1.5,1.7-3.4,1-5.4c-2.2-4.7-3.2-8.8-3.2-13.5c0-18.4,14.9-33.1,33.1-33.1c2.4,0,4.7,0.2,6.9,0.7l-25.7,25.7c-2,2-2,4.9,0,6.6
	l18.9,18.9c1,1,2.2,1.5,3.4,1.5c1.2,0,2.4-0.5,3.4-1.5l26-26c0.5,2.2,0.7,4.7,0.7,7.1c0,18.4-14.9,33.1-33.1,33.1
	c-4.9,0-9.6-1-13.7-2.9c-1.7-0.7-3.9-0.5-5.4,1l-85.3,85c-1.5,1.5-1.7,3.4-1,5.4c2,4.4,2.9,8.8,2.9,13.7
	C90.7,211,75.8,225.7,57.4,225.7z M231.8,202.7c1,1,1.5,2.2,1.5,3.4s-0.5,2.4-1.5,3.4L212,229.4c-1,1-2.2,1.5-3.4,1.5
	s-2.4-0.5-3.4-1.5l-0.2-0.2l-68.6-68.8c-2-2-2-4.9,0-6.6c2-2,4.9-2,6.6,0l65.7,65.7l13.2-13.2l-65.7-65.7c-2-2-2-4.9,0-6.6
	c2-2,4.9-2,6.6,0L231.8,202.7z M42.2,59.6c1,1,2.2,1.5,3.4,1.5s2.4-0.5,3.4-1.5l3.2-3.2l47.5,47.5c1,1,2.2,1.5,3.4,1.5
	s2.4-0.5,3.4-1.5c2-2,2-4.9,0-6.6L58.9,49.5l2.7-2.7c1-1,1.5-2.2,1.5-3.4S62.5,41,61.5,40L41.9,20.4c-2-2-4.9-2-6.6,0L22.6,33.1
	c-2,2-2,4.9,0,6.6L42.2,59.6z M38.5,30.7l13,13l-2.7,2.7l0,0l0,0l-3.2,3.2l-13-13L38.5,30.7z"/>
</svg>
