<?xml version="1.0" encoding="utf-8"?>
<!-- Generator: Adobe Illustrator 21.0.2, SVG Export Plug-In . SVG Version: 6.00 Build 0)  -->
<svg version="1.1" id="Layer_1" xmlns="http://www.w3.org/2000/svg" xmlns:xlink="http://www.w3.org/1999/xlink" x="0px" y="0px"
	 viewBox="0 0 144 144" style="enable-background:new 0 0 144 144;" xml:space="preserve">
<style type="text/css">
	.st0{fill:#161314;}
</style>
<path class="st0" d="M71.1,2.1c-38.1,0-69,30.9-69,69s30.9,69,69,69s69-30.9,69-69S109.2,2.1,71.1,2.1L71.1,2.1z M71.1,134
	c-34.7,0-62.8-28.1-62.8-62.8S36.4,8.4,71.1,8.4s62.8,28.1,62.8,62.8S105.8,134,71.1,134L71.1,134z"/>
<path class="st0" d="M57.3,24.2c4.5-1.3,9.1-2,13.8-2c4.8,0,9.4,0.7,13.7,2L71.1,54.7L57.3,24.2L57.3,24.2z"/>
<path class="st0" d="M97.4,29.9c5.2,3.3,9.6,7.5,13.3,12.4L88,92.2l-8.7-19.4H62.8l-8.7,19.4l-22.5-50c3.6-4.9,8.1-9.1,13.2-12.4
	l18,40h16.5L97.4,29.9z M23.8,58.5c-1.1,4.1-1.7,8.4-1.7,12.7c0,19.2,11,35.8,27.1,43.8L23.8,58.5z"/>
<path class="st0" d="M57.6,118.2c4.4,1.3,9,1.9,13.5,1.9c4.7,0,9.2-0.7,13.5-1.9l-13.5-30L57.6,118.2z M92.9,114.9
	c16.1-8,27.1-24.6,27.1-43.8c0-4.3-0.6-8.5-1.6-12.6L92.9,114.9L92.9,114.9z"/>
<circle cx="31" cy="-7.6" r="0"/>
</svg>
