<?xml version="1.0" encoding="utf-8"?>
<!-- Generator: Adobe Illustrator 21.0.2, SVG Export Plug-In . SVG Version: 6.00 Build 0)  -->
<svg version="1.1" id="Layer_1" xmlns="http://www.w3.org/2000/svg" xmlns:xlink="http://www.w3.org/1999/xlink" x="0px" y="0px"
	 viewBox="56.4 105.3 147.7 53.3" enable-background="new 56.4 105.3 147.7 53.3" xml:space="preserve">
<g>
	<g>
		<path fill="#E29F00" d="M60.8,112.2h7.6l-2.1,21.2h0.1l5.5-21.2h6l0.3,21.2h0.1l3.3-23.7h7.8l-6,27.9h-9.3l-0.1-18h-0.1l-4.7,18
			h-9.6L60.8,112.2z"/>
	</g>
	<g>
		<path fill="#E29F00" d="M92.7,113.6h7.8l-4.2,24h-6.6L92.7,113.6z M105.4,108.7c4.4,2.3,6.8,5,6.8,8.1c0,2.8-1.6,5.7-4.4,8.6
			l-2.8,3.1l4.9,9h-8.2l-3.4-8.3l3.9-6.8c0.9-1.6,1.9-4.1,1.9-5c0-1.6-1.2-3.3-3.6-4.7l-4.2-2.2L105.4,108.7z"/>
	</g>
	<g>
		<path fill="#E29F00" d="M126.6,137.6h-13c0-0.2-0.1-0.5-0.1-0.9c0-4.3,0.7-12.8,2.5-18.6l5.9-1.5v-0.1l-7.1,0.2l1.5-6.1h14.7
			l-0.9,5.6l-6.3,0.2l-1.1,6h6.3l-0.8,4.4l-6.5,0.3l-1,5.7l6.4,0.3L126.6,137.6z"/>
	</g>
	<g>
		<path fill="#E29F00" d="M134.3,112.2h10.3l1.5,19.7h0.1l2.2-22.1l6.8,0.9l-4.6,27l-8.2,0.7l-1.7-18.9h-0.1l-2.7,18.2h-5.8
			L134.3,112.2z"/>
	</g>
	<g>
		<path fill="#E29F00" d="M169.3,112.9L169.3,112.9c-2.9,5.5-4.9,9.9-4.9,14c0,3.9,4.2,8.1,8.1,10.8h-9.9c-5-4.6-6.5-7-6.5-10.8
			c0-4.2,2-8.7,5.5-14.6h7.8l0.5-2.5h7l-2.5,13.9h-7.1L169.3,112.9z"/>
	</g>
	<g>
		<path fill="#E29F00" d="M179.6,112.2h8.1l-1.9,12.3h4.5l1.8-14.8h8.1l-4.9,27.9h-6.7l1.2-9.8l-4.7,0.6l-1.4,9.2h-6.6L179.6,112.2z
			"/>
	</g>
</g>
<path fill="#B7BFAB" d="M62.8,151.7l-0.5,1.8h-2.9l3.2-10.6h4.3l3.2,10.6h-2.9l-0.5-1.8H62.8z M64.8,145.1L64.8,145.1l-1.3,4.6h2.6
	L64.8,145.1z"/>
<path fill="#B7BFAB" d="M80.4,143v7c0,2.8-1.3,3.6-4.4,3.6c-4.2,0-4.7-1.1-4.7-3.6v-7h2.8v7c0,1.2,0.7,1.2,1.9,1.2s1.6-0.1,1.6-1.3
	V143H80.4z"/>
<path fill="#B7BFAB" d="M87.7,153.6h-2.8v-8.1h-2.7V143h8.4v2.4h-2.8V153.6z"/>
<path fill="#B7BFAB" d="M91.9,149.8v-3c0-3.2,2-3.9,4.9-3.9c2.9,0,4.9,0.6,4.9,3.9v3c0,3.2-2,3.9-4.9,3.9
	C93.9,153.6,91.9,153,91.9,149.8z M98.8,149.4v-2.4c0-1.6-0.5-1.7-2-1.7c-1.5,0-1.9,0.2-2,1.7v2.4c0,1.6,0.5,1.7,2,1.7
	S98.8,151,98.8,149.4z"/>
<path fill="#B7BFAB" d="M106.4,153.6h-2.8V143h4.5l2,6.6h0.1l1.9-6.6h4.6v10.6h-2.8l0.3-8.1H114l-2.7,8.1h-2.4l-2.7-8.1h-0.1
	L106.4,153.6z"/>
<path fill="#B7BFAB" d="M118.8,149.8v-3c0-3.2,2-3.9,4.9-3.9c2.9,0,4.9,0.6,4.9,3.9v3c0,3.2-2,3.9-4.9,3.9
	C120.8,153.6,118.8,153,118.8,149.8z M125.7,149.4v-2.4c0-1.6-0.5-1.7-2-1.7c-1.5,0-2,0.2-2,1.7v2.4c0,1.6,0.5,1.7,2,1.7
	C125.1,151.2,125.7,151,125.7,149.4z"/>
<path fill="#B7BFAB" d="M135.1,153.6h-2.8v-8.1h-2.7V143h8.4v2.4h-2.8L135.1,153.6L135.1,153.6z"/>
<path fill="#B7BFAB" d="M142.4,153.6h-2.8V143h2.8V153.6z"/>
<path fill="#B7BFAB" d="M151.7,143h2.9l-3.1,10.6h-4.4l-3-10.6h2.9l2.3,8.1h0.1L151.7,143z"/>
<path fill="#B7BFAB" d="M159,147.2h4.5v1.9H159v2.1h4.9v2.3h-7.7V143h7.6v2.3H159V147.2z"/>
</svg>
