<?xml version="1.0" encoding="utf-8"?>
<!-- Generator: Adobe Illustrator 21.0.2, SVG Export Plug-In . SVG Version: 6.00 Build 0)  -->
<svg version="1.1" id="Layer_1" xmlns="http://www.w3.org/2000/svg" xmlns:xlink="http://www.w3.org/1999/xlink" x="0px" y="0px"
	 viewBox="0 0 147.7 53.3" style="enable-background:new 0 0 147.7 53.3;" xml:space="preserve">
<style type="text/css">
	.st0{fill:#E29F00;}
	.st1{fill:#B7BFAB;}
</style>
<g>
	<g>
		<path class="st0" d="M4.4,6.9H12L9.9,28.1H10l5.5-21.2h6l0.3,21.2h0.1l3.3-23.7H33l-6,27.9h-9.3l-0.1-18h-0.1l-4.7,18H3.2L4.4,6.9
			z"/>
	</g>
	<g>
		<path class="st0" d="M36.3,8.3h7.8l-4.2,24h-6.6L36.3,8.3z M49,3.4c4.4,2.3,6.8,5,6.8,8.1c0,2.8-1.6,5.7-4.4,8.6l-2.8,3.1l4.9,9
			h-8.2l-3.4-8.3l3.9-6.8c0.9-1.6,1.9-4.1,1.9-5c0-1.6-1.2-3.3-3.6-4.7l-4.2-2.2L49,3.4z"/>
	</g>
	<g>
		<path class="st0" d="M70.2,32.3h-13c0-0.2-0.1-0.5-0.1-0.9c0-4.3,0.7-12.8,2.5-18.6l5.9-1.5v-0.1l-7.1,0.2l1.5-6.1h14.7l-0.9,5.6
			l-6.3,0.2l-1.1,6h6.3l-0.8,4.4l-6.5,0.3l-1,5.7l6.4,0.3L70.2,32.3z"/>
	</g>
	<g>
		<path class="st0" d="M77.9,6.9h10.3l1.5,19.7h0.1L92,4.5l6.8,0.9l-4.6,27L86,33.1l-1.7-18.9h-0.1l-2.7,18.2h-5.8L77.9,6.9z"/>
	</g>
	<g>
		<path class="st0" d="M112.9,7.6L112.9,7.6c-2.9,5.5-4.9,9.9-4.9,14c0,3.9,4.2,8.1,8.1,10.8h-9.9c-5-4.6-6.5-7-6.5-10.8
			c0-4.2,2-8.7,5.5-14.6h7.8l0.5-2.5h7L118,18.4h-7.1L112.9,7.6z"/>
	</g>
	<g>
		<path class="st0" d="M123.2,6.9h8.1l-1.9,12.3h4.5l1.8-14.8h8.1l-4.9,27.9h-6.7l1.2-9.8l-4.7,0.6l-1.4,9.2h-6.6L123.2,6.9z"/>
	</g>
</g>
<path class="st1" d="M7.5,48.3l-0.7,2.4H3l4.2-14.1h5.7l4.2,14.1h-3.8l-0.7-2.4H7.5z M10.2,39.5L10.2,39.5l-1.7,6.1h3.4L10.2,39.5z"
	/>
<path class="st1" d="M30.8,36.7V46c0,3.7-1.7,4.8-5.8,4.8c-5.6,0-6.2-1.5-6.2-4.8v-9.3h3.7V46c0,1.6,0.9,1.6,2.5,1.6
	c1.6,0,2.1-0.1,2.1-1.7v-9.1H30.8z"/>
<path class="st1" d="M40.5,50.8h-3.7V40h-3.6v-3.3h11.1v3.2h-3.7v10.9H40.5z"/>
<path class="st1" d="M46.1,45.7v-4c0-4.2,2.7-5.2,6.5-5.2s6.5,0.8,6.5,5.2v4c0,4.2-2.7,5.2-6.5,5.2C48.7,50.8,46.1,50,46.1,45.7z
	 M55.2,45.2V42c0-2.1-0.7-2.3-2.7-2.3c-2,0-2.5,0.3-2.7,2.3v3.2c0,2.1,0.7,2.3,2.7,2.3C54.6,47.5,55.2,47.3,55.2,45.2z"/>
<path class="st1" d="M65.3,50.8h-3.7V36.7h6l2.7,8.8h0.1l2.5-8.8H79v14.1h-3.7L75.7,40h-0.3l-3.6,10.7h-3.2L65.1,40h-0.1L65.3,50.8z
	"/>
<path class="st1" d="M81.8,45.7v-4c0-4.2,2.7-5.2,6.5-5.2s6.5,0.8,6.5,5.2v4c0,4.2-2.7,5.2-6.5,5.2C84.4,50.8,81.8,50,81.8,45.7z
	 M90.9,45.2V42c0-2.1-0.7-2.3-2.7-2.3S85.6,40,85.6,42v3.2c0,2.1,0.7,2.3,2.7,2.3C90.1,47.6,90.9,47.3,90.9,45.2z"/>
<path class="st1" d="M103.4,50.8h-3.7V40h-3.6v-3.3h11.1v3.2h-3.7L103.4,50.8L103.4,50.8z"/>
<path class="st1" d="M113,50.8h-3.7V36.7h3.7V50.8z"/>
<path class="st1" d="M125.4,36.7h3.8l-4.1,14.1h-5.8l-4-14.1h3.8l3,10.7h0.1L125.4,36.7z"/>
<path class="st1" d="M135.1,42.3h6v2.5h-6v2.8h6.5v3h-10.2V36.7h10.1v3h-6.4V42.3z"/>
</svg>
